<svg width="60" height="60" xmlns="http://www.w3.org/2000/svg" xmlns:xlink="http://www.w3.org/1999/xlink"><defs><path d="M28.904 38.835c-.06.178-.16.34-.293.473a1.189 1.189 0 0 1-.96.346 1.218 1.218 0 0 1-1.254-.874l-5.095-5.092a1.2 1.2 0 0 1 1.694-1.695l4.334 4.336 9.856-14.635a1.334 1.334 0 0 1 1.84-.513c.644.397.856 1.233.48 1.89L28.904 38.834z" id="a"/></defs><g transform="rotate(6 30.346 30.33)" fill="none" fill-rule="evenodd"><use fill="#00A669" xlink:href="#a"/><path stroke="#00A669" d="M29.353 39.063a1.732 1.732 0 0 1-.387.597c-.358.361-.86.542-1.28.492-.76.053-1.458-.4-1.725-1.1l-5.033-5.032a1.7 1.7 0 0 1 .07-2.33 1.706 1.706 0 0 1 2.352-.05l3.905 3.906 9.492-14.092a1.834 1.834 0 0 1 2.542-.699c.873.539 1.161 1.674.632 2.594L29.353 39.063z"/></g></svg>