<svg width="177" height="43" xmlns="http://www.w3.org/2000/svg"><path d="M5.264 34.533a17.6 17.6 0 0 0 1.89-1.237l.021-.016c.204-.152.4-.304.582-.451H3.483c.386.565.805 1.117 1.26 1.653l.08.096c.065.078.174.1.263.053l.16-.088h.002l.016-.01zm7.803-8.562H.517c.127.574.282 1.146.463 1.715h11.198c.325-.555.622-1.127.889-1.715zm1.184-3.428H.053c.027.569.079 1.14.156 1.714h13.54c.193-.561.362-1.133.502-1.714zM11.048 29.4H1.613c.245.579.518 1.151.823 1.714H9.61c.513-.543.994-1.115 1.438-1.714zm3.707-10.286H.029v1.715H14.58c.082-.566.14-1.138.174-1.715zm-14.726-12h14.76V5.4H.029v1.714zm0 3.429h14.76V8.828H.029v1.715zm0 6.857h14.76v-1.714H.029V17.4zm0-3.429h14.76v-1.714H.029v1.714zM39.114.257V21.58c0 10.947-8.75 19.821-19.542 19.821-5.195 0-9.915-2.057-13.415-5.41a20.568 20.568 0 0 0 9.604-12.533c.466-1.695.717-3.482.717-5.328V.257h22.636zm27.419 12.556v8.203c0 3.894-.882 4.888-3.18 4.943-2.3-.055-3.187-1.05-3.187-4.943v-8.203h-4.595v9.014c0 5.172 3.36 7.712 7.781 7.712 4.421 0 7.781-2.54 7.781-7.712v-9.014h-4.6zm68.482 8.268v-.25c0-3.255-1.468-4.914-3.99-4.914-2.584 0-4.02 1.721-4.02 4.977v.25c0 3.255 1.595 4.851 3.893 4.851 2.426 0 4.117-1.596 4.117-4.914zm-12.734.157v-.25c0-5.384 3.16-8.546 7.34-8.546 2.682 0 4.341 1.158 5.267 2.818v-2.504h4.595v16.432h-4.595v-2.723c-.862 1.659-2.905 3.067-5.362 3.067-4.053 0-7.245-2.848-7.245-8.294zm49.133-2.004c-.16-2.472-1.436-3.662-3.638-3.662-2.075 0-3.479 1.346-3.83 3.662h7.468zm-12.223 1.972v-.25c0-5.164 3.734-8.514 8.585-8.514 4.309 0 8.138 2.473 8.138 8.326v1.252h-12.032c.128 2.723 1.628 4.288 4.15 4.288 2.137 0 3.19-.908 3.478-2.284h4.372c-.542 3.536-3.415 5.508-7.978 5.508-5.043 0-8.713-3.099-8.713-8.326zm-5.708-.125v-.25c0-3.255-1.468-4.914-3.99-4.914-2.585 0-4.021 1.721-4.021 4.977v.25c0 3.255 1.596 4.851 3.894 4.851 2.425 0 4.117-1.596 4.117-4.914zm-12.734.157v-.25c0-5.384 3.16-8.546 7.34-8.546 2.681 0 4.34 1.158 5.266 2.818V5.4h4.596v23.788h-4.596v-2.723c-.862 1.659-2.904 3.067-5.362 3.067-4.053 0-7.244-2.848-7.244-8.294zm-28.945-8.42h4.627v3.13c1.053-2.191 2.681-3.349 5.394-3.38v4.225c-3.415-.031-5.394 1.064-5.394 4.194v8.2h-4.627V12.819zm-6.952 7.762v-.219c0-2.785-1.5-4.476-4.02-4.476-2.586 0-4.022 1.816-4.022 4.508v.25c0 2.723 1.628 4.413 3.926 4.413 2.425 0 4.116-1.69 4.116-4.476zm-12.638 8.952h4.596c.287 1.44 1.34 2.379 3.702 2.379 2.809 0 4.213-1.44 4.213-4.007v-2.472c-.926 1.596-2.904 3.036-5.362 3.036-4.053 0-7.277-2.973-7.277-7.825v-.22c0-4.694 3.192-7.98 7.34-7.98 2.714 0 4.341 1.157 5.299 2.817v-2.442h4.596v15.086c-.032 4.852-3.32 7.325-8.809 7.325-5.394 0-7.851-2.316-8.298-5.697zm-6.059-8.42v-.25c0-3.318-1.66-4.945-3.99-4.945-2.425 0-4.084 1.659-4.084 4.945v.25c0 3.287 1.595 4.883 4.117 4.883 2.553 0 3.957-1.69 3.957-4.883zm-12.542-8.294h4.627v2.567c.926-1.565 2.872-2.943 5.33-2.943 4.085 0 7.277 2.974 7.277 8.389v.25c0 5.415-3.128 8.451-7.277 8.451-2.585 0-4.468-1.252-5.33-2.848v8.075h-4.627V12.818z" fill="#00A669" fill-rule="evenodd"/></svg>