<svg width="137" height="32" xmlns="http://www.w3.org/2000/svg"><path d="M51.19 9.804v6.527c0 3.098-.687 3.889-2.482 3.933-1.793-.044-2.485-.835-2.485-3.933V9.804h-3.586v7.172c0 4.115 2.622 6.136 6.071 6.136 3.45 0 6.072-2.021 6.072-6.136V9.804h-3.59zm53.438 6.578v-.199c0-2.59-1.145-3.91-3.113-3.91-2.017 0-3.138 1.37-3.138 3.96v.2c0 2.59 1.245 3.86 3.038 3.86 1.893 0 3.213-1.27 3.213-3.91zm-9.937.125v-.2c0-4.283 2.466-6.798 5.728-6.798 2.092 0 3.387.921 4.11 2.242V9.758h3.586v13.075h-3.587v-2.167c-.672 1.32-2.266 2.44-4.183 2.44-3.163 0-5.654-2.266-5.654-6.6zm38.34-1.594c-.125-1.967-1.121-2.914-2.84-2.914-1.618 0-2.714 1.071-2.988 2.914h5.827zm-9.539 1.57v-.2c0-4.11 2.914-6.774 6.7-6.774 3.362 0 6.35 1.967 6.35 6.625v.996h-9.389c.1 2.166 1.27 3.411 3.238 3.411 1.668 0 2.49-.722 2.714-1.817h3.412c-.423 2.814-2.665 4.383-6.226 4.383-3.935 0-6.799-2.466-6.799-6.625zm-4.454-.1v-.2c0-2.59-1.145-3.91-3.113-3.91-2.017 0-3.137 1.37-3.137 3.96v.2c0 2.59 1.245 3.86 3.038 3.86 1.893 0 3.212-1.27 3.212-3.91zm-9.936.124v-.2c0-4.283 2.465-6.798 5.728-6.798 2.092 0 3.387.921 4.109 2.242V3.906h3.586v18.927h-3.586v-2.167c-.673 1.32-2.267 2.44-4.184 2.44-3.163 0-5.653-2.266-5.653-6.6zm-22.586-6.7h3.61v2.491c.823-1.743 2.093-2.664 4.21-2.69v3.363c-2.665-.025-4.21.847-4.21 3.337v6.525h-3.61V9.808zm-5.424 6.177v-.174c0-2.217-1.17-3.562-3.138-3.562-2.017 0-3.138 1.445-3.138 3.587v.199c0 2.167 1.27 3.511 3.063 3.511 1.893 0 3.213-1.344 3.213-3.56zm-9.862 7.123h3.586c.224 1.145 1.046 1.892 2.889 1.892 2.191 0 3.287-1.145 3.287-3.188v-1.967c-.722 1.27-2.266 2.416-4.184 2.416-3.162 0-5.678-2.366-5.678-6.226v-.174c0-3.736 2.49-6.351 5.728-6.351 2.117 0 3.387.921 4.134 2.242V9.808h3.586V21.81c-.025 3.86-2.59 5.828-6.873 5.828-4.21 0-6.127-1.843-6.475-4.532zm-4.728-6.7v-.199c0-2.64-1.295-3.935-3.113-3.935-1.893 0-3.188 1.32-3.188 3.935v.2c0 2.614 1.245 3.884 3.213 3.884 1.992 0 3.088-1.345 3.088-3.885zm-9.787-6.6h3.61v2.043c.723-1.245 2.242-2.341 4.16-2.341 3.187 0 5.678 2.366 5.678 6.674v.2c0 4.308-2.44 6.724-5.678 6.724-2.018 0-3.487-.997-4.16-2.267v6.426h-3.61V9.808zm-55.26 6.655V5.384h11.456v8.427c0 5.382-2.802 10.108-7.025 12.803-2.833-2.64-4.43-6.263-4.43-10.152zm11.456-12.39H.143v12.39A15.13 15.13 0 0 0 4.702 27.3a13.97 13.97 0 0 0 1.458 1.262c.045.035.088.07.134.104a15.126 15.126 0 0 0 9.02 2.968c8.384 0 15.18-6.796 15.18-15.18V.124H12.911v3.948z" fill="#00A668" fill-rule="evenodd"/></svg>