<svg width="108" height="36" xmlns="http://www.w3.org/2000/svg"><path d="M82.42 12.786c1.288 0 2.332-.946 2.332-2.114 0-1.169-1.044-2.116-2.332-2.116-1.289 0-2.333.947-2.333 2.116 0 1.168 1.044 2.114 2.333 2.114m-1.799 13.597h4.185V14.396H80.62zm10.058-6.667c0-1.375.655-2.719 2.22-2.719 1.566 0 1.951 1.344 1.951 2.686v6.547h4.166v-6.814c0-4.735-2.818-5.55-4.551-5.55-1.732 0-2.687.581-3.786 1.99v-1.613H86.5V26.23h4.178v-6.514zm-27.401-9.242c-.528.336-1.74.825-2.338.825a3.752 3.752 0 0 0-2.71-1.15c-2.07 0-3.75 1.667-3.75 3.723 0 .286.034.564.095.831-2.809-.073-5.88-1.471-7.73-3.864-1.136 1.955-.152 4.128 1.138 4.92-.442.033-1.255-.05-1.638-.421-.025 1.297.603 3.016 2.893 3.64-.441.235-1.222.168-1.561.117.119 1.096 1.663 2.527 3.351 2.527-.602.691-2.866 1.945-5.407 1.546a11.323 11.323 0 0 0 5.866 1.647c6.048 0 10.746-4.869 10.493-10.876l-.001-.02.001-.047-.002-.054a6.443 6.443 0 0 0 1.817-1.907c-.306.168-1.224.503-2.079.586.549-.294 1.361-1.257 1.562-2.023M16.137 26.626h3.407V17.33H22.1l.506-2.904h-3.062V12.32c0-.679.442-1.391 1.073-1.391h1.74V8.025h-2.132v.013c-3.337.12-4.023 2.04-4.082 4.056h-.006v2.332h-1.705v2.904h1.705v9.296z" fill="#FFF" fill-rule="evenodd"/></svg>