<svg width="24" height="18" xmlns="http://www.w3.org/2000/svg"><g fill="#FFF"><path d="M22.551 0H1.44C.672 0 0 .663 0 1.421V16.58C0 17.337.672 18 1.44 18h21.11c.768 0 1.44-.663 1.44-1.421V1.42C24.087.663 23.415 0 22.55 0zm.576 16.579c0 .284-.192.474-.48.474H1.535c-.287 0-.48-.19-.48-.474V4.358l10.077 5.874c.288.19.672.284.96.284.287 0 .671-.095.959-.284l10.076-5.874v12.22zm0-13.263L12.571 9.474c-.192.094-.288.094-.48.094s-.383 0-.48-.094L1.057 3.316v-1.8c0-.284.192-.474.48-.474h21.111c.288 0 .48.19.48.474v1.8z"/><path d="M16.146 7.854l7 7a.5.5 0 0 0 .708-.708l-7-7a.5.5 0 0 0-.708.708zM.162 14.18l7.06-6.066a.473.473 0 0 1 .663.047c.17.195.149.49-.047.658l-7.06 6.067a.473.473 0 0 1-.663-.047.464.464 0 0 1 .047-.658z"/></g></svg>