<svg width="25" height="24" xmlns="http://www.w3.org/2000/svg"><path d="M23.673 18.365l-3.026-3.026c-.313-.313-.73-.418-1.148-.418-.417 0-.835.105-1.148.418L17.1 16.59a1.127 1.127 0 0 1-.73.313c-.21 0-.418 0-.522-.209-1.148-.73-3.34-2.087-4.904-3.652C9.377 11.478 7.917 9.287 7.29 8.14c-.208-.417-.208-.94.105-1.252l1.252-1.252c.626-.626.626-1.67 0-2.192L5.621.417C5.308.104 4.891 0 4.473 0c-.417 0-.835.104-1.148.417L1.551 2.191C-.222 3.965-.535 6.782.925 8.974c1.774 2.608 4.279 6.052 6.157 7.93 1.878 1.878 5.321 4.382 7.93 6.156.94.626 1.983.94 3.026.94a5.296 5.296 0 0 0 3.757-1.566l1.773-1.774c.73-.73.73-1.67.105-2.295zm-.73 1.46L21.167 21.6a4.179 4.179 0 0 1-3.026 1.252c-.834 0-1.67-.209-2.4-.73-2.504-1.775-5.947-4.175-7.825-6.053-1.774-1.774-4.279-5.217-6.052-7.826-1.148-1.67-.94-3.965.521-5.426L4.16 1.043c.104-.104.209-.208.418-.208.208 0 .313.104.417.208L8.02 4.07a.504.504 0 0 1 0 .73L6.769 6.053c-.73.73-.835 1.774-.313 2.609.73 1.147 2.191 3.443 3.86 5.113 1.67 1.67 3.861 3.13 5.113 3.86.313.21.73.313 1.148.313a2.06 2.06 0 0 0 1.461-.626l1.252-1.252c.105-.104.209-.208.418-.208.208 0 .313.104.417.208l3.026 3.026c0 .209 0 .522-.209.73z" fill="#FFF"/></svg>