<?xml version="1.0" encoding="UTF-8" standalone="no"?>
<svg width="113px" height="96px" viewBox="0 0 113 96" version="1.1" xmlns="http://www.w3.org/2000/svg" xmlns:xlink="http://www.w3.org/1999/xlink">
    <!-- Generator: Sketch 49.1 (51147) - http://www.bohemiancoding.com/sketch -->
    <title>home-icon-check-your-rate</title>
    <desc>Created with Sketch.</desc>
    <defs>
        <path d="M43.9040243,36.8348645 C43.8435973,37.0129776 43.7432419,37.1749147 43.6106312,37.3082942 C43.3590238,37.5623262 43.0062099,37.6892412 42.6504358,37.6536979 C42.0791462,37.6935673 41.5572882,37.3299322 41.3968472,36.7801867 L36.3024769,31.6884836 C35.8810778,31.2135745 35.902437,30.4926306 36.3512123,30.043502 C36.7999876,29.5943734 37.5209144,29.5724467 37.996155,29.9934719 L42.3303706,34.3290211 L52.1857101,19.694042 C52.3582516,19.3783365 52.6510319,19.1457381 52.9975768,19.0490571 C53.3441217,18.9523761 53.7150285,18.9998154 54.0260847,19.1806042 C54.6697933,19.5777827 54.8822562,20.4140599 54.5061824,21.0703222 L43.9040243,36.8348645 Z" id="path-1"></path>
        <rect id="path-2" x="0" y="0" width="25.055926" height="43.4623948" rx="2"></rect>
    </defs>
    <g id="home-icon-check-your-rate" stroke="none" stroke-width="1" fill="none" fill-rule="evenodd">
        <g id="Check-Your-Rate" transform="translate(2.000000, 15.000000)">
            <g id="computer">
                <path d="M85.9370079,14.5887518 L85.9370079,5.40129412 C85.9370079,2.41842944 83.5321144,0 80.5659449,0 L5.37106299,0 C2.40489345,0 0,2.41842944 0,5.40129412 L0,58.5274556 C0,61.5103203 2.40489345,63.9287498 5.37106299,63.9287498 L71.2300997,63.9287498" id="Path" stroke="#3F465E" stroke-width="4"></path>
                <polygon id="Fill-1" fill="#3F465E" points="52.5493333 65 52.5493333 71.3173333 33.3333333 71.3173333 33.3333333 65 30 65 30 73.6506667 55.8826667 73.6506667 55.8826667 65"></polygon>
                <polygon id="Fill-2" fill="#3F465E" points="25 74.3333333 60.418 74.3333333 60.418 71 25 71"></polygon>
                <path d="M1,54 L69.4519877,54" id="Line" stroke="#3F465E" stroke-width="3" stroke-linecap="square"></path>
                <path d="M39.8244671,58.6886883 L46.1125408,58.6886883" id="Line-Copy" stroke="#3F465E" stroke-width="2" stroke-linecap="round"></path>
                <g id="checkmark" transform="translate(45.345952, 28.329789) rotate(6.000000) translate(-45.345952, -28.329789) ">
                    <use fill="#21C07D" fill-rule="evenodd" xlink:href="#path-1"></use>
                    <path stroke="#21C07D" stroke-width="1" d="M44.3529073,37.063365 C44.2665179,37.2869545 44.1346412,37.4904056 43.9658759,37.6601482 C43.6081564,38.0213148 43.106548,38.2017545 42.6852453,38.1524847 C41.9256806,38.2054935 41.2280603,37.752857 40.9608705,37.0513395 L35.9284821,32.0203388 C35.3315358,31.3475913 35.3617929,30.3263153 35.9975198,29.6900878 C36.6332467,29.0538603 37.6544986,29.0227994 38.3497628,29.6399729 L42.2548054,33.5462171 L51.7469602,19.4542535 C51.9841916,19.0201824 52.3867422,18.7003774 52.863215,18.5674484 C53.3396877,18.4345194 53.8496562,18.4997449 54.2886367,18.7550851 C55.1619758,19.2939493 55.4502306,20.4285521 54.921081,21.3493547 L44.3529073,37.063365 Z"></path>
                </g>
            </g>
            <g id="phone" transform="translate(82.000000, 27.000000)">
                <g id="Group-3">
                    <g id="Rectangle">
                        <use fill="#FFFFFF" fill-rule="evenodd" xlink:href="#path-2"></use>
                        <rect stroke="#3F465E" stroke-width="3.5" x="-1.75" y="-1.75" width="28.555926" height="46.9623948" rx="2"></rect>
                    </g>
                    <polygon id="Fill-9" fill="#DBD8D6" points="3 33 22 33 22 8 3 8"></polygon>
                </g>
                <path d="M9.53633813,2.79469944 L14.4511544,2.79469944" id="Line-Copy" stroke="#3F465E" stroke-width="2" stroke-linecap="round"></path>
                <path d="M14.4080775,38.3130531 C14.4080775,39.6584118 13.3175665,40.7489228 11.9722078,40.7489228 C10.6268491,40.7489228 9.53633813,39.6584118 9.53633813,38.3130531 C9.53633813,36.9676945 10.6268491,35.8771835 11.9722078,35.8771835 C13.3175665,35.8771835 14.4080775,36.9676945 14.4080775,38.3130531" id="Fill-95" fill="#3F465E"></path>
            </g>
        </g>
    </g>
</svg>