<?xml version="1.0" encoding="UTF-8" standalone="no"?>
<svg width="119px" height="96px" viewBox="0 0 119 96" version="1.1" xmlns="http://www.w3.org/2000/svg" xmlns:xlink="http://www.w3.org/1999/xlink">
    <!-- Generator: Sketch 49.1 (51147) - http://www.bohemiancoding.com/sketch -->
    <title>home-icon-next-day-funding</title>
    <desc>Created with Sketch.</desc>
    <defs></defs>
    <g id="home-icon-next-day-funding" stroke="none" stroke-width="1" fill="none" fill-rule="evenodd">
        <g id="Instant-Offer">
            <g id="Page-1" transform="translate(37.000000, 0.000000)">
                <path d="M40.8909882,17.6631261 C20.2435261,17.6631261 3.44524034,34.4607227 3.44524034,55.1088739 C3.44524034,75.7563361 20.2435261,92.5546218 40.8909882,92.5546218 C61.5384504,92.5546218 78.3367361,75.7563361 78.3367361,55.1088739 C78.3367361,34.4607227 61.5384504,17.6631261 40.8909882,17.6631261 M40.8909882,96 C18.3437445,96 -0.000137815126,77.6561176 -0.000137815126,55.1088739 C-0.000137815126,32.5616303 18.3437445,14.2177479 40.8909882,14.2177479 C63.4382319,14.2177479 81.7821143,32.5616303 81.7821143,55.1088739 C81.7821143,77.6561176 63.4382319,96 40.8909882,96" id="Fill-1" fill="#3F465E"></path>
                <path d="M41,73.667117 C30.7071441,73.667117 22.3322074,65.2928559 22.3322074,55 C22.3322074,44.7064685 30.7071441,36.3322074 41,36.3322074 C51.2928559,36.3322074 59.6677926,44.7064685 59.6677926,55 C59.6677926,65.2928559 51.2928559,73.667117 41,73.667117 M41,23 C23.326634,23 9,37.326634 9,55 C9,72.6740415 23.326634,87 41,87 C58.6740415,87 73,72.6740415 73,55 C73,37.326634 58.6740415,23 41,23" id="Fill-4" fill="#DBD8D6" opacity="0.531075093"></path>
                <g id="Group-6" transform="translate(14.000000, 28.000000)" fill="#3F465E">
                    <polygon id="Fill-6" points="26 4 29 4 29 0 26 0"></polygon>
                    <polygon id="Fill-8" points="13.9485553 8 12 4.71675587 15.0514447 3 17 6.28324413"></polygon>
                    <polygon id="Fill-9" points="6.2841455 18 3 16.0518748 4.7158545 13 8 14.9481252"></polygon>
                    <polygon id="Fill-10" points="0 29 0 26.0005999 4 26 4 28.9994001"></polygon>
                    <polygon id="Fill-11" points="4.71722718 43 3 39.9495348 6.28277282 38 8 41.0504652"></polygon>
                    <polygon id="Fill-12" points="15.0518748 52 12 50.2836948 13.9481252 47 17 48.7163052"></polygon>
                    <polygon id="Fill-13" points="26.0005999 55 26 51.0007239 28.9994001 51 29 54.9992761"></polygon>
                    <polygon id="Fill-14" points="39.9499648 52 38 48.717442 41.05074 47 43 50.282558"></polygon>
                    <polygon id="Fill-15" points="50.286459 43 47 41.0521494 48.713541 38 52 39.9478506"></polygon>
                    <polygon id="Fill-16" points="51.0014467 29 51 26.0005999 54.9985533 26 55 28.9994001"></polygon>
                    <polygon id="Fill-17" points="48.7144425 18 47 14.9489853 50.2855575 13 52 16.0510147"></polygon>
                    <polygon id="Fill-18" points="41.0518748 8 38 6.28369476 39.9481252 3 43 4.71630524"></polygon>
                </g>
                <g id="Group-7" transform="translate(34.000000, 43.000000)" fill="#21C07D">
                    <path d="M8.33695546,21 L5.67674988,21 C4.1671072,21 2.74175233,20.4220353 1.66314244,19.3719874 C0.58453255,18.2963121 0,16.8948994 0,15.4105349 L3.42633382,15.4105349 C3.42633382,16.0033365 3.66138032,16.5637667 4.08761625,16.9899904 C4.50494371,17.395982 5.07508566,17.6279771 5.67674988,17.6279771 L8.33695546,17.6279771 C8.92628488,17.6279771 9.51561429,17.3872147 9.95281449,16.9663863 C10.3468429,16.5772548 10.5736662,16.0181734 10.5736662,15.4105349 C10.5736662,14.7968267 10.3488987,14.2390942 9.94047969,13.8384979 C9.51355849,13.4277855 8.92491434,13.1856742 8.33695546,13.1856742 L5.67674988,13.1856742 C4.16642193,13.1856742 2.74038179,12.6063607 1.6617719,11.5536152 C0.58658835,10.4887303 0,9.08327122 0,7.58744188 C0,6.11251908 0.583847283,4.713804 1.64258443,3.64757037 C2.74106706,2.57796472 4.16642193,2 5.67674988,2 L8.33695546,2 C9.8123348,2 11.2740088,2.590104 12.3464513,3.61924538 C13.4202643,4.69019984 14,6.09161254 14,7.58744188 L10.5736662,7.58744188 C10.5736662,7.16054378 10.4619677,6.54076598 9.93020069,6.01068399 C9.51629956,5.6134597 8.92628488,5.37202286 8.33695546,5.37202286 L5.67674988,5.37202286 C5.07440039,5.37202286 4.50425844,5.60401803 4.07185512,6.02484648 C3.66275086,6.43690768 3.42633382,6.99936109 3.42633382,7.58744188 C3.42633382,8.18698754 3.66000979,8.74809214 4.08281938,9.16824619 C4.50631424,9.58098179 5.07577093,9.81365137 5.67674988,9.81365137 L8.33695546,9.81365137 C9.8123348,9.81365137 11.2746941,10.406453 12.3478218,11.4389664 C13.416838,12.4876655 14,13.893799 14,15.4105349 C14,16.9158059 13.4188938,18.3192418 12.363583,19.3625457 C11.2733235,20.409896 9.8123348,21 8.33695546,21" id="Fill-19"></path>
                    <polygon id="Fill-20" points="6 4 9 4 9 0 6 0"></polygon>
                    <polygon id="Fill-21" points="6 24 9 24 9 20 6 20"></polygon>
                </g>
                <polygon id="Fill-22" fill="#3F465E" points="38 16 43 16 43 10 38 10"></polygon>
                <path d="M35.6100655,3.38365435 C34.7642799,3.38365435 33.968044,3.70780843 33.3700069,4.29656429 C32.7705933,4.88532015 32.4409503,5.66762103 32.4409503,6.5 C32.4409503,7.33237897 32.7705933,8.11467985 33.3693187,8.70343571 C33.968044,9.29219157 34.7642799,9.61634565 35.6100655,9.61634565 L45.3899345,9.61634565 C46.2357201,9.61634565 47.0326441,9.29219157 47.6313695,8.70343571 C48.2294067,8.11535659 48.5590497,7.33237897 48.5590497,6.5 C48.5590497,5.66762103 48.2294067,4.88532015 47.6306813,4.29656429 C47.0326441,3.70780843 46.2357201,3.38365435 45.3899345,3.38365435 L35.6100655,3.38365435 Z M45.3899345,13 L35.6100655,13 C33.844858,13 32.1842554,12.3239459 30.9358786,11.0963561 C29.6881901,9.86876627 29,8.23649141 29,6.5 C29,4.76418532 29.6881901,3.13123373 30.9365668,1.90364394 C32.1842554,0.676054138 33.844858,0 35.6100655,0 L45.3899345,0 C47.155142,0 48.8150564,0.676054138 50.0641214,1.90364394 C51.3124981,3.13191046 52,4.76418532 52,6.5 C52,8.23581468 51.3124981,9.86808954 50.0648096,11.0963561 C48.8150564,12.3239459 47.155142,13 45.3899345,13 L45.3899345,13 Z" id="Fill-23" fill="#3F465E"></path>
                <path d="M74.5940352,28 L72.2746197,25.6807229 L74.4713391,23.4828224 C74.6320907,23.3227365 74.7193558,23.1101634 74.7193558,22.8844686 C74.7193558,22.5800429 74.5638533,22.3779673 74.4713391,22.2854587 L72.7142261,20.5277943 C72.3960036,20.2102469 71.8369818,20.2082787 71.5187593,20.5271383 L69.3194154,22.7256949 L67,20.4057617 L69.1980316,18.2085172 C69.9755443,17.4297388 71.0115717,17.0006561 72.1151804,17 C73.2174769,17.0006561 74.2528482,17.4297388 75.0329854,18.2078611 L76.7914107,19.9661816 C77.5708917,20.7469283 78,21.782894 78,22.8844686 C78,23.9873554 77.5702356,25.0239771 76.7907545,25.8034117 L74.5940352,28 Z" id="Fill-24" fill="#3F465E"></path>
                <path d="M6.40621459,28 L4.20910121,25.8020995 C3.43168128,25.0246332 3.00196815,23.9893236 3,22.887749 C3.00196815,21.7802696 3.43102523,20.74496 4.20844516,19.9668376 L5.9666607,18.2091733 C6.74736089,17.4290827 7.78326475,17 8.88346156,17 C9.98759468,17.0006561 11.0234985,17.4297388 11.8022306,18.2085172 L14,20.4057617 L11.6808612,22.7256949 L9.48243574,20.5284504 C9.32301545,20.3690206 9.11045506,20.2804485 8.88280551,20.2804485 C8.57971014,20.2804485 8.37830262,20.4365979 8.28514344,20.5291065 L6.52889605,22.2861148 C6.36881971,22.4462006 6.28090893,22.6600859 6.28025288,22.887749 C6.28090893,23.1095073 6.36881971,23.3227365 6.52889605,23.4828224 L8.72535337,25.6807229 L6.40621459,28 Z" id="Fill-25" fill="#3F465E"></path>
            </g>
            <path d="M7.70756361,60.704879 C6.66836726,60.704879 5.81811569,61.5804586 5.81811569,62.6506115 C5.81811569,63.7207644 6.66836726,64.596344 7.70756361,64.596344 L28.052291,64.596344 C29.0914874,64.596344 29.9417389,63.7207644 29.9417389,62.6506115 C29.9417389,61.5804586 29.0914874,60.704879 28.052291,60.704879 L7.70756361,60.704879 Z" id="Shape" fill="#3F465E"></path>
            <path d="M1.96049285,53.1327366 C0.921296488,53.1327366 0.0710449219,54.0083162 0.0710449219,55.0784691 C0.0710449219,56.148622 0.921296488,57.0242016 1.96049285,57.0242016 L28.052291,57.0242016 C29.0914874,57.0242016 29.9417389,56.148622 29.9417389,55.0784691 C29.9417389,54.0083162 29.0914874,53.1327366 28.052291,53.1327366 L1.96049285,53.1327366 Z" id="Shape" fill="#3F465E"></path>
            <path d="M13.7075636,45.5605942 C12.6683673,45.5605942 11.8181157,46.4361738 11.8181157,47.5063267 C11.8181157,48.5764796 12.6683673,49.4520592 13.7075636,49.4520592 L28.052291,49.4520592 C29.0914874,49.4520592 29.9417389,48.5764796 29.9417389,47.5063267 C29.9417389,46.4361738 29.0914874,45.5605942 28.052291,45.5605942 L13.7075636,45.5605942 Z" id="Shape" fill="#3F465E"></path>
        </g>
    </g>
</svg>