<?xml version="1.0" encoding="UTF-8" standalone="no"?>
<svg width="99px" height="96px" viewBox="0 0 99 96" version="1.1" xmlns="http://www.w3.org/2000/svg" xmlns:xlink="http://www.w3.org/1999/xlink">
    <!-- Generator: Sketch 49.1 (51147) - http://www.bohemiancoding.com/sketch -->
    <title>home-icon-choose-your-offer</title>
    <desc>Created with Sketch.</desc>
    <defs>
        <path d="M16.6026817,0.609556191 C7.91236262,0.609556191 0.842178798,7.6791401 0.842178798,16.370345 C0.842178798,25.0600419 7.91236262,32.1296258 16.6026817,32.1296258 C25.2924981,32.1296258 32.3621793,25.0600419 32.3621793,16.3698423 C32.3621793,7.6791401 25.2924981,0.609556191 16.6026817,0.609556191 Z" id="path-1"></path>
        <path d="M16.6026817,0.609556191 C7.91236262,0.609556191 0.842178798,7.6791401 0.842178798,16.370345 C0.842178798,25.0600419 7.91236262,32.1296258 16.6026817,32.1296258 C25.2924981,32.1296258 32.3621793,25.0600419 32.3621793,16.3698423 C32.3621793,7.6791401 25.2924981,0.609556191 16.6026817,0.609556191 Z" id="path-2"></path>
        <path d="M14.1631729,40.9797891 L14.1631729,59.5295649 C14.1625086,60.283836 14.4574511,60.9924539 14.9935289,61.52706 C15.530271,62.0610046 16.2423843,62.355435 16.9996689,62.355435 C17.755625,62.355435 18.4677382,62.0603429 19.0051446,61.5263984 C19.5412224,60.9924539 19.8368291,60.2831744 19.8368291,59.5289033 L19.8368291,40.9797891 L14.1631729,40.9797891 Z" id="path-3"></path>
    </defs>
    <g id="home-icon-choose-your-offer" stroke="none" stroke-width="1" fill="none" fill-rule="evenodd">
        <g id="Choose-Offer" transform="translate(0.000000, 9.000000)">
            <g id="Group-4" transform="translate(12.000000, 21.000000)">
                <polygon id="Fill-1" fill="#21C07D" points="0 5 5 5 5 0 0 0"></polygon>
                <polygon id="Fill-2" fill="#21C07D" points="12.5 5 17.5 5 17.5 0 12.5 0"></polygon>
                <polygon id="Fill-3" fill="#3F465E" points="25 5 30 5 30 0 25 0"></polygon>
                <polygon id="Fill-4" fill="#3F465E" points="37.5 5 42.5 5 42.5 0 37.5 0"></polygon>
                <polygon id="Fill-5" fill="#3F465E" points="0 17.5 5 17.5 5 12.5 0 12.5"></polygon>
                <polygon id="Fill-6" fill="#3F465E" points="12.5 17.5 17.5 17.5 17.5 12.5 12.5 12.5"></polygon>
                <polygon id="Fill-7" fill="#3F465E" points="25 17.5 30 17.5 30 12.5 25 12.5"></polygon>
                <polygon id="Fill-8" fill="#3F465E" points="37.5 17.5 42.5 17.5 42.5 12.5 37.5 12.5"></polygon>
                <polygon id="Fill-9" fill="#3F465E" points="0 30 5 30 5 25 0 25"></polygon>
                <polygon id="Fill-10" fill="#3F465E" points="12.5 30 17.5 30 17.5 25 12.5 25"></polygon>
                <polygon id="Fill-11" fill="#3F465E" points="25 30 30 30 30 25 25 25"></polygon>
                <polygon id="Fill-12" fill="#3F465E" points="37.5 30 42.5 30 42.5 25 37.5 25"></polygon>
                <polygon id="Fill-11-Copy" fill="#3F465E" points="25 42.5 30 42.5 30 37.5 25 37.5"></polygon>
                <polygon id="Fill-12-Copy" fill="#3F465E" points="37 42.5 42 42.5 42 37.5 37 37.5"></polygon>
                <polygon id="Fill-13" fill="#3F465E" points="0 42.5 5 42.5 5 37.5 0 37.5"></polygon>
                <polygon id="Fill-14" fill="#3F465E" points="12.5 42.5 17.5 42.5 17.5 37.5 12.5 37.5"></polygon>
            </g>
            <g id="Group" transform="translate(52.190476, 41.952381)"></g>
            <g id="Group-5">
                <path d="M65.0249023,76.2844027 C65.0249023,78.5576446 63.8485514,79.747151 61.5753095,79.747151 L3.34566716,79.747151 C1.07242525,79.747151 0,78.5576446 0,76.2844027 L0,3.52758388 C0,1.25434197 1.07242525,0.00628719765 3.34566716,0.00628719765 L53.161656,0.00628719765 C53.790993,-0.0578911351 53.9157628,0.380197933 54.3691406,0.821369737 L64.3662109,10.7461744 C64.7962265,11.1813763 65.0761549,11.9211809 65.0249023,12.5308424 L65.0249023,14.933824 L51.2271037,14.933824 C50.0904828,14.933824 50.1690694,15.0124106 50.1690694,13.8757897 L50.1690694,3.52758388 L3.34566716,3.52758388 L3.34566716,76.2844027 L61.5753095,76.2844027 L61.5753095,14.933824 L65.0249023,14.933824 L65.0249023,76.2844027 Z" id="file-path" fill="#3F465E"></path>
                <polygon id="file-path" fill="#FFFFFF" points="53.285138 3.52758388 53.285138 11.8177554 61.5753095 11.8177554"></polygon>
            </g>
            <g id="magnifier" transform="translate(67.421315, 56.932794) scale(-1, 1) rotate(-296.000000) translate(-67.421315, -56.932794) translate(50.921315, 25.432794)">
                <g id="Path-Copy">
                    <use fill="#FFFFFF" fill-rule="evenodd" xlink:href="#path-1"></use>
                    <path stroke="#FFFFFF" stroke-width="8.5" d="M16.6026817,-3.64044381 C27.6398928,-3.64044381 36.6121793,5.33211439 36.6121793,16.3698423 C36.6121793,27.4071664 27.639794,36.3796258 16.6026817,36.3796258 C5.56521052,36.3796258 -3.4078212,27.4073102 -3.4078212,16.370345 C-3.4078212,5.33216816 5.56491418,-3.64044381 16.6026817,-3.64044381 Z"></path>
                </g>
                <polygon id="Fill-3" fill="#242D3C" points="15.3204765 38.7912649 18.6795235 38.7912649 18.6795235 29.833806 15.3204765 29.833806"></polygon>
                <g id="Path">
                    <use fill="#FFFFFF" fill-rule="evenodd" xlink:href="#path-2"></use>
                    <path stroke="#3F465E" stroke-width="3.5" d="M16.6026817,-1.14044381 C26.2591639,-1.14044381 34.1121793,6.71280931 34.1121793,16.3698423 C34.1121793,26.0264591 26.2590775,33.8796258 16.6026817,33.8796258 C6.94587774,33.8796258 -0.907821202,26.0265536 -0.907821202,16.370345 C-0.907821202,6.71288773 6.94561836,-1.14044381 16.6026817,-1.14044381 Z"></path>
                </g>
                <path d="M10.0794689,15.8792616 L8,15.8792616 C8,12.9846408 9.12707216,10.2589769 11.1732696,8.20446161 C13.2303842,6.1390291 15.9638461,5.00103973 18.8714635,5 L18.8719834,7.07946893 C16.5216637,7.08050866 14.3111882,8.00119353 12.6470932,9.67204681 C10.9913161,11.3340623 10.0794689,13.5388193 10.0794689,15.8792616" id="Fill-7" stroke="#3F465E" fill="#3F465E" stroke-linecap="round" stroke-linejoin="round" transform="translate(13.435992, 10.439631) rotate(19.000000) translate(-13.435992, -10.439631) "></path>
                <g id="Path">
                    <use fill="#FFFFFF" fill-rule="evenodd" xlink:href="#path-3"></use>
                    <path stroke="#3F465E" stroke-width="3.5" d="M12.4131729,39.2297891 L21.5868291,39.2297891 L21.5868291,59.5289033 C21.5868291,60.7488424 21.1056576,61.9041986 20.2385765,62.7678273 C19.3733628,63.6274675 18.217873,64.105435 16.9996689,64.105435 C15.7799803,64.105435 14.6240937,63.6279829 13.757794,62.7661966 C12.89238,61.9031582 12.412099,60.7481806 12.4131729,59.5295649 L12.4131729,39.2297891 Z"></path>
                </g>
            </g>
        </g>
    </g>
</svg>