<?xml version="1.0" encoding="UTF-8" standalone="no"?>
<svg width="20px" height="30px" viewBox="0 0 20 30" version="1.1" xmlns="http://www.w3.org/2000/svg" xmlns:xlink="http://www.w3.org/1999/xlink">
    <!-- Generator: Sketch 49.1 (51147) - http://www.bohemiancoding.com/sketch -->
    <title>icon-green-figure</title>
    <desc>Created with Sketch.</desc>
    <defs></defs>
    <g id="icon-green-figure" stroke="none" stroke-width="1" fill="none" fill-rule="evenodd">
        <g id="Group-22" transform="translate(1.000000, 3.000000)" fill="#21C07D">
            <path d="M9.13500023,15.6643995 C4.46392868,15.6643995 2.58928578,19.2407777 2.06107148,23.4965993 L-5.68e-14,23.4965993 C0.673214303,18.1853888 3.32464294,13.7063496 9.13500023,13.7063496 C14.9453575,13.7063496 17.5967862,18.1853888 18.2700005,23.4965993 L16.208929,23.4965993 C15.6807147,19.2407777 13.8060718,15.6643995 9.13500023,15.6643995 Z M2.92071436,5.87414982 C2.92071436,2.62994645 5.70294491,0 9.13500023,0 C12.5670555,0 15.3492861,2.62994645 15.3492861,5.87414982 C15.3492861,9.11835318 12.5670555,11.7482996 9.13500023,11.7482996 C5.70294491,11.7482996 2.92071436,9.11835318 2.92071436,5.87414982 Z M4.99214298,5.87414982 C4.99214298,8.03695206 6.84696335,9.79024969 9.13500023,9.79024969 C11.4230371,9.79024969 13.2778575,8.03695206 13.2778575,5.87414982 C13.2778575,3.71134757 11.4230371,1.95804994 9.13500023,1.95804994 C6.84696335,1.95804994 4.99214298,3.71134757 4.99214298,5.87414982 Z" id="user" stroke="#21C07D"></path>
            <rect id="Rectangle-9" x="1" y="21.25" width="16.5" height="2.74997568"></rect>
        </g>
    </g>
</svg>