<?xml version="1.0" encoding="UTF-8" standalone="no"?>
<svg width="150px" height="112px" viewBox="0 0 150 112" version="1.1" xmlns="http://www.w3.org/2000/svg" xmlns:xlink="http://www.w3.org/1999/xlink">
    <!-- Generator: Sketch 49.1 (51147) - http://www.bohemiancoding.com/sketch -->
    <title>icon-major-purchase</title>
    <desc>Created with Sketch.</desc>
    <defs>
        <path d="M83.3636364,24.2727273 C83.3636364,21.3636364 80.8458498,18.8181818 77.9683794,18.8181818 C75.0909091,18.8181818 72.9328063,21 72.5731225,23.5454545 L72.5731225,23.9090909 L72.5731225,36.6363636 L11.4268775,36.6363636 L11.4268775,23.9090909 L11.4268775,23.5454545 C11.0671937,20.6363636 8.90909091,18.8181818 6.03162055,18.8181818 C3.1541502,18.8181818 0.636363636,21.3636364 0.636363636,24.2727273 C0.636363636,26.0909091 1.35573123,27.5454545 2.7944664,28.6363636 L4.23320158,29.7272727 L4.23320158,31.5454545 L4.23320158,47.9090909 L79.7667984,47.9090909 L79.7667984,31.5454545 L79.7667984,29.7272727 L81.2055336,28.6363636 C82.284585,27.5454545 83.3636364,26.0909091 83.3636364,24.2727273 Z" id="path-1"></path>
    </defs>
    <g id="icon-major-purchase" stroke="none" stroke-width="1" fill="none" fill-rule="evenodd">
        <g id="ICON-Major-Purchase-Copy" transform="translate(0.000000, 26.000000)">
            <g id="Sofa" transform="translate(63.000000, 26.000000)">
                <path d="M17.9090909,50.6363636 L7.90909091,50.6363636 L7.90909091,54.1363636 C7.90909091,54.412506 8.13294853,54.6363636 8.40909091,54.6363636 L17.4090909,54.6363636 C17.6852333,54.6363636 17.9090909,54.412506 17.9090909,54.1363636 L17.9090909,50.6363636 Z" id="Path" stroke="#3F465E" stroke-width="3" fill="#3F465E"></path>
                <path d="M76.4545455,50.6363636 L66.4545455,50.6363636 L66.4545455,54.1363636 C66.4545455,54.412506 66.6784031,54.6363636 66.9545455,54.6363636 L75.9545455,54.6363636 C76.2306878,54.6363636 76.4545455,54.412506 76.4545455,54.1363636 L76.4545455,50.6363636 Z" id="Path" stroke="#3F465E" stroke-width="3" fill="#3F465E"></path>
                <path d="M71.4138756,25.6264734 L71.4138756,36.9545455 L12.5861244,36.9545455 L12.5861244,25.7098161 C11.8601303,22.3019124 10.1625583,20.1041701 7.61911079,19.6030167 L6.40909091,19.364598 L6.40909091,2.4040404 C6.40909091,0.509954429 7.8033372,-0.863636364 9.70334928,-0.863636364 L74.2966507,-0.863636364 C76.1966628,-0.863636364 77.5909091,0.509954429 77.5909091,2.4040404 L77.5909091,19.3865005 L76.3553865,19.6078129 C73.3460013,20.1468678 71.751878,22.1567082 71.4138756,25.6264734 Z" id="Path" stroke="#3F465E" stroke-width="3"></path>
                <g id="Path">
                    <use fill="#FFFFFF" fill-rule="evenodd" xlink:href="#path-1"></use>
                    <path stroke="#3F465E" stroke-width="3" d="M81.2667984,30.4723537 L81.2667984,49.4090909 L2.73320158,49.4090909 L2.73320158,30.4723537 L1.88817418,29.8316186 C0.0746649753,28.4565402 -0.863636364,26.5593155 -0.863636364,24.2727273 C-0.863636364,20.5388567 2.32203122,17.3181818 6.03162055,17.3181818 C9.69004826,17.3181818 12.4657476,19.7234974 12.9155419,23.3613941 L12.9268775,23.5454545 L12.9268775,35.1363636 L71.0731225,35.1363636 L71.0731225,23.5454545 L71.0878771,23.3355829 C71.5667623,19.9465493 74.4402236,17.3181818 77.9683794,17.3181818 C81.6779688,17.3181818 84.8636364,20.5388567 84.8636364,24.2727273 C84.8636364,26.3214796 83.9103532,28.0348285 82.2719738,29.6912121 L82.1118258,29.8316186 L81.2667984,30.4723537 Z"></path>
                </g>
                <g id="Group-9" transform="translate(21.000000, 10.000000)" fill="#3F465E">
                    <path d="M36.9090909,2.36363636 C36.9090909,1.27272727 37.6363636,0.545454545 38.7272727,0.545454545 C39.8181818,0.545454545 40.5454545,1.27272727 40.5454545,2.36363636 C40.5454545,3.45454545 39.8181818,4.18181818 38.7272727,4.18181818 C37.6363636,4.18181818 36.9090909,3.45454545 36.9090909,2.36363636 Z" id="Path"></path>
                    <path d="M2.36363636,4.18181818 C3.45454545,4.18181818 4.18181818,3.45454545 4.18181818,2.36363636 C4.18181818,1.27272727 3.45454545,0.545454545 2.36363636,0.545454545 C1.27272727,0.545454545 0.545454545,1.27272727 0.545454545,2.36363636 C0.545454545,3.45454545 1.63636364,4.18181818 2.36363636,4.18181818 Z" id="Path"></path>
                    <path d="M20.5454545,4.18181818 C21.6363636,4.18181818 22.3636364,3.45454545 22.3636364,2.36363636 C22.3636364,1.27272727 21.6363636,0.545454545 20.5454545,0.545454545 C19.4545455,0.545454545 18.7272727,1.27272727 18.7272727,2.36363636 C18.7272727,3.45454545 19.8181818,4.18181818 20.5454545,4.18181818 Z" id="Path"></path>
                    <path d="M38.7272727,15.0909091 C39.8181818,15.0909091 40.5454545,14.3636364 40.5454545,13.2727273 C40.5454545,12.1818182 39.8181818,11.4545455 38.7272727,11.4545455 C37.6363636,11.4545455 36.9090909,12.1818182 36.9090909,13.2727273 C36.9090909,14.3636364 38,15.0909091 38.7272727,15.0909091 Z" id="Path"></path>
                    <path d="M2.36363636,15.0909091 C3.45454545,15.0909091 4.18181818,14.3636364 4.18181818,13.2727273 C4.18181818,12.1818182 3.45454545,11.4545455 2.36363636,11.4545455 C1.27272727,11.4545455 0.545454545,12.1818182 0.545454545,13.2727273 C0.545454545,14.3636364 1.63636364,15.0909091 2.36363636,15.0909091 Z" id="Path"></path>
                    <path d="M20.5454545,15.0909091 C21.6363636,15.0909091 22.3636364,14.3636364 22.3636364,13.2727273 C22.3636364,12.1818182 21.6363636,11.4545455 20.5454545,11.4545455 C19.4545455,11.4545455 18.7272727,12.1818182 18.7272727,13.2727273 C18.7272727,14.3636364 19.8181818,15.0909091 20.5454545,15.0909091 Z" id="Path"></path>
                </g>
            </g>
            <path d="M50.950591,0 L5.02747655,0 C2.34615572,0 0,2.34615572 0,5.02747655 L0,78.7637992 C0,81.44512 2.34615572,83.7912758 5.02747655,83.7912758 L50.950591,83.7912758 C53.6319118,83.7912758 55.9780675,81.44512 55.9780675,78.7637992 L55.9780675,5.02747655 C56.3132326,2.34615572 53.9670769,0 50.950591,0 Z M52.9615816,78.7637992 C52.9615816,79.7692945 52.2912514,80.4396247 51.2857561,80.4396247 L4.36264165,80.4396247 C3.35714634,80.4396247 2.68681613,79.7692945 2.68681613,78.7637992 L2.68681613,33.5165103 L52.9615816,33.5165103 L52.9615816,78.7637992 Z M52.9615816,30.1648593 L2.68681613,30.1648593 L2.68681613,5.02747655 C2.68681613,4.02198124 3.35714634,3.35165103 4.36264165,3.35165103 L51.2857561,3.35165103 C52.2912514,3.35165103 52.9615816,4.02198124 52.9615816,5.02747655 L52.9615816,30.1648593 Z M12.7417692,15.0824296 L12.7417692,21.7857317 C12.7417692,22.791227 12.071439,23.4615572 11.0659437,23.4615572 C10.0604484,23.4615572 9.39011819,22.791227 9.39011819,21.7857317 L9.39011819,15.0824296 C9.39011819,14.0769343 10.0604484,13.4066041 11.0659437,13.4066041 C12.071439,13.4066041 12.7417692,14.0769343 12.7417692,15.0824296 Z M9.39011819,51.950591 L9.39011819,41.8956379 C9.39011819,40.8901426 10.0604484,40.2198124 11.0659437,40.2198124 C12.071439,40.2198124 12.7417692,40.8901426 12.7417692,41.8956379 L12.7417692,51.950591 C12.7417692,52.9560863 12.071439,53.6264165 11.0659437,53.6264165 C10.0604484,53.6264165 9.39011819,52.9560863 9.39011819,51.950591 Z" id="Fridge" fill="#3F465E" fill-rule="nonzero"></path>
        </g>
    </g>
</svg>