<?xml version="1.0" encoding="UTF-8" standalone="no"?>
<svg width="83px" height="74px" viewBox="0 0 83 74" version="1.1" xmlns="http://www.w3.org/2000/svg" xmlns:xlink="http://www.w3.org/1999/xlink">
    <!-- Generator: Sketch 49.1 (51147) - http://www.bohemiancoding.com/sketch -->
    <title>icon-cover-sudden-expenses</title>
    <desc>Created with Sketch.</desc>
    <defs></defs>
    <g id="icon-cover-sudden-expenses" stroke="none" stroke-width="1" fill="none" fill-rule="evenodd">
        <path d="M82.9115373,57.9694409 L81.8632992,50.8654097 C81.3391802,46.9187256 77.9324065,44.0244907 74.0015138,44.0244907 L68.7603235,44.0244907 C67.7120854,44.0244907 66.6638474,43.4982662 65.8776688,42.9720416 L58.802062,35.8680104 C57.2297049,34.2893368 55.3952883,34 53.2988122,34 L35.4787652,34 C27.6169798,34 20.6205951,41.393368 20.6205951,51.9178587 L20.6205951,59.8112268 L19.3102976,59.8112268 C18.524119,59.8112268 18,60.3374513 18,61.1267881 C18,61.9161249 18.524119,62.4423494 19.3102976,62.4423494 L22.3757895,62.4423494 L23.686087,62.4423494 L28.4890103,62.4423494 C29.0131294,65.3365844 31.6190767,67.7045948 34.7637909,67.7045948 C37.9085051,67.7045948 40.5144524,65.3365844 41.0385714,62.4423494 L62.2533347,62.4423494 C62.7774537,65.3365844 64.8469159,68 68.7603235,68 C72.6737311,68 74.4779887,65.3365844 75.0021077,62.4423494 L78.194466,62.4423494 C81.6012397,62.4423494 83.4356563,60.3374513 82.9115373,57.9694409 Z M54.1154276,36.5 C55.4257251,36.5 56.7360227,37.0262245 57.7842608,38.0786736 L64.0736891,44.0500488 L38.9159757,44.0500488 L38.9159757,36.5 L54.1154276,36.5 Z M36.240551,36.5 L36.240551,44.0500488 L24.9719919,44.0500488 C27.3305275,39.0509157 31.7855393,36.5 36.240551,36.5 Z M34.8788777,65.393368 C32.7824016,65.393368 30.947985,63.5515822 30.947985,61.446684 C30.947985,59.3417859 32.7824016,57.5 34.8788777,57.5 C36.9753538,57.5 38.8097704,59.3417859 38.8097704,61.446684 C38.8097704,63.5515822 36.9753538,65.393368 34.8788777,65.393368 Z M68.7428384,65.393368 C66.6463623,65.393368 64.8119457,63.5515822 64.8119457,61.446684 C64.8119457,59.3417859 66.6463623,57.5 68.7428384,57.5 C70.8393145,57.5 72.6737311,59.3417859 72.6737311,61.446684 C72.6737311,63.5515822 70.8393145,65.393368 68.7428384,65.393368 Z M79.8469088,59.1293888 C79.5848493,59.3925011 79.3227898,59.6556134 78.7986708,59.6556134 L74.8677781,59.6556134 C74.343659,56.7613784 71.7230639,54.393368 68.5783497,54.393368 C65.4336355,54.393368 62.8130404,56.7613784 62.2889214,59.6556134 L41.0621007,59.6556134 C40.5379817,56.7613784 37.9173865,54.393368 34.7726724,54.393368 C31.6279582,54.393368 29.007363,56.7613784 28.483244,59.6556134 L24.2902918,59.6556134 L22.9799942,59.6556134 L22.9799942,51.7622454 C22.9799942,49.9204595 23.2420537,48.0786736 23.7661728,46.5 L69.1024687,46.5 L70.1507068,46.5 L74.343659,46.5 C76.9642542,46.5 79.0607303,48.3417859 79.5848493,50.9729085 L80.6330874,58.0769398 C80.3710279,58.6031643 80.1089683,59.1293888 79.8469088,59.1293888 Z M46.7777612,49.8155613 C46.7777612,50.6048981 46.2536421,51.1311227 45.4674636,51.1311227 L40.2262733,51.1311227 C39.4400948,51.1311227 38.9159757,50.6048981 38.9159757,49.8155613 C38.9159757,49.0262245 39.4400948,48.5 40.2262733,48.5 L45.4674636,48.5 C45.9915826,48.5 46.7777612,49.0262245 46.7777612,49.8155613 Z" id="Shape" fill="#FFFFFF" fill-rule="nonzero"></path>
        <polyline id="Shape" stroke="#FFFFFF" stroke-width="2" stroke-linecap="round" stroke-linejoin="round" transform="translate(11.500000, 38.500000) rotate(-62.000000) translate(-11.500000, -38.500000) " points="3.74918339 46 -2 41.4784771 5.10116252 42.0139547 3.09699995 31 10.1268487 39.2649664 17.1566974 31 15.7479202 40.6069207 25 41.331208 18.8853891 44.6758247"></polyline>
    </g>
</svg>