<?xml version="1.0" encoding="UTF-8" standalone="no"?>
<svg width="24px" height="30px" viewBox="0 0 24 30" version="1.1" xmlns="http://www.w3.org/2000/svg" xmlns:xlink="http://www.w3.org/1999/xlink">
    <!-- Generator: Sketch 49.1 (51147) - http://www.bohemiancoding.com/sketch -->
    <title>icon-green-arrow</title>
    <desc>Created with Sketch.</desc>
    <defs></defs>
    <g id="icon-green-arrow" stroke="none" stroke-width="1" fill="none" fill-rule="evenodd">
        <path d="M16.6874831,18.9587766 L20.1901863,23.4071855 C20.1938105,23.4118002 20.1938105,23.4118002 20.1974113,23.416433 C20.721888,24.0929912 20.5986015,25.0666224 19.9220433,25.5910991 L18.0726306,27.0247878 C17.3996916,27.5464589 16.4319405,27.4276375 15.9051895,26.7586674 L12.3839736,22.2867476 L9.53599939,26.5456093 C9.34012895,26.838514 9.04430368,27.0500733 8.70380958,27.1407495 C7.92996706,27.3468297 7.13558276,26.8865674 6.92950259,26.1127248 L1.69956527,6.47401851 C1.60392596,6.11488757 1.64983498,5.73274372 1.82781401,5.40648404 C2.21131685,4.70347135 3.09211172,4.44445743 3.79512442,4.82796027 L21.5367548,14.5062572 C21.8727036,14.6895218 22.1289813,14.9905866 22.256248,15.3514892 C22.5409356,16.1588057 22.1172612,17.0440498 21.3099448,17.3287374 L16.6874831,18.9587766 Z" id="Rectangle-237" stroke="#21C07D" stroke-width="2.7"></path>
    </g>
</svg>