<?xml version="1.0" encoding="UTF-8" standalone="no"?>
<svg width="108px" height="112px" viewBox="0 0 108 112" version="1.1" xmlns="http://www.w3.org/2000/svg" xmlns:xlink="http://www.w3.org/1999/xlink">
    <!-- Generator: Sketch 49.1 (51147) - http://www.bohemiancoding.com/sketch -->
    <title>icon-debt-consolidation</title>
    <desc>Created with Sketch.</desc>
    <defs>
        <rect id="path-1" x="11" y="43" width="12" height="12" rx="2"></rect>
        <rect id="path-2" x="29" y="43" width="12" height="12" rx="2"></rect>
        <rect id="path-3" x="47" y="43" width="12" height="12" rx="2"></rect>
        <rect id="path-4" x="65" y="43" width="12" height="12" rx="2"></rect>
        <rect id="path-5" x="11" y="59" width="12" height="12" rx="2"></rect>
        <rect id="path-6" x="29" y="59" width="12" height="12" rx="2"></rect>
        <rect id="path-7" x="47" y="59" width="12" height="12" rx="2"></rect>
        <path d="M67,59 L75,59 C76.1045695,59 77,59.8954305 77,61 L77,85 C77,86.1045695 76.1045695,87 75,87 L67,87 C65.8954305,87 65,86.1045695 65,85 L65,61 C65,59.8954305 65.8954305,59 67,59 Z" id="path-8"></path>
        <rect id="path-9" x="11" y="75" width="12" height="12" rx="2"></rect>
        <rect id="path-10" x="29" y="75" width="12" height="12" rx="2"></rect>
        <rect id="path-11" x="47" y="75" width="12" height="12" rx="2"></rect>
    </defs>
    <g id="icon-debt-consolidation" stroke="none" stroke-width="1" fill="none" fill-rule="evenodd">
        <g id="ICON-Debt-Consolidation-Copy" transform="translate(0.000000, 7.000000)">
            <g id="Calculator">
                <rect id="Rectangle-9" stroke="#3F465E" stroke-width="3" x="1.5" y="1.5" width="83" height="94" rx="7"></rect>
                <path d="M10.5,10.5 L10.5,35.5 L75.5,35.5 L75.5,10.5 L10.5,10.5 Z" id="Rectangle-10" stroke="#3F465E" stroke-width="3"></path>
                <text id="$" font-family="Roboto-Bold, Roboto" font-size="18" font-weight="bold" fill="#3F465E">
                    <tspan x="16.3364258" y="31">$</tspan>
                </text>
                <g id="Rectangle-14">
                    <use fill="#FFFFFF" fill-rule="evenodd" xlink:href="#path-1"></use>
                    <rect stroke="#3F465E" stroke-width="3" x="12.5" y="44.5" width="9" height="9" rx="2"></rect>
                </g>
                <g id="Rectangle-14-Copy">
                    <use fill="#FFFFFF" fill-rule="evenodd" xlink:href="#path-2"></use>
                    <rect stroke="#3F465E" stroke-width="3" x="30.5" y="44.5" width="9" height="9" rx="2"></rect>
                </g>
                <g id="Rectangle-14-Copy-2">
                    <use fill="#FFFFFF" fill-rule="evenodd" xlink:href="#path-3"></use>
                    <rect stroke="#3F465E" stroke-width="3" x="48.5" y="44.5" width="9" height="9" rx="2"></rect>
                </g>
                <g id="Rectangle-14-Copy-3">
                    <use fill="#FFFFFF" fill-rule="evenodd" xlink:href="#path-4"></use>
                    <rect stroke="#3F465E" stroke-width="3" x="66.5" y="44.5" width="9" height="9" rx="2"></rect>
                </g>
                <g id="Rectangle-14-Copy-7">
                    <use fill="#FFFFFF" fill-rule="evenodd" xlink:href="#path-5"></use>
                    <rect stroke="#3F465E" stroke-width="3" x="12.5" y="60.5" width="9" height="9" rx="2"></rect>
                </g>
                <g id="Rectangle-14-Copy-6">
                    <use fill="#FFFFFF" fill-rule="evenodd" xlink:href="#path-6"></use>
                    <rect stroke="#3F465E" stroke-width="3" x="30.5" y="60.5" width="9" height="9" rx="2"></rect>
                </g>
                <g id="Rectangle-14-Copy-5">
                    <use fill="#FFFFFF" fill-rule="evenodd" xlink:href="#path-7"></use>
                    <rect stroke="#3F465E" stroke-width="3" x="48.5" y="60.5" width="9" height="9" rx="2"></rect>
                </g>
                <g id="Rectangle-14-Copy-4">
                    <use fill="#FFFFFF" fill-rule="evenodd" xlink:href="#path-8"></use>
                    <path stroke="#3F465E" stroke-width="3" d="M67,60.5 C66.7238576,60.5 66.5,60.7238576 66.5,61 L66.5,85 C66.5,85.2761424 66.7238576,85.5 67,85.5 L75,85.5 C75.2761424,85.5 75.5,85.2761424 75.5,85 L75.5,61 C75.5,60.7238576 75.2761424,60.5 75,60.5 L67,60.5 Z"></path>
                </g>
                <g id="Rectangle-14-Copy-11">
                    <use fill="#FFFFFF" fill-rule="evenodd" xlink:href="#path-9"></use>
                    <rect stroke="#3F465E" stroke-width="3" x="12.5" y="76.5" width="9" height="9" rx="2"></rect>
                </g>
                <g id="Rectangle-14-Copy-10">
                    <use fill="#FFFFFF" fill-rule="evenodd" xlink:href="#path-10"></use>
                    <rect stroke="#3F465E" stroke-width="3" x="30.5" y="76.5" width="9" height="9" rx="2"></rect>
                </g>
                <g id="Rectangle-14-Copy-9">
                    <use fill="#FFFFFF" fill-rule="evenodd" xlink:href="#path-11"></use>
                    <rect stroke="#3F465E" stroke-width="3" x="48.5" y="76.5" width="9" height="9" rx="2"></rect>
                </g>
            </g>
            <path d="M103.71719,22.6866106 L100.919743,22.6866106 C98.6817849,22.6866106 97.2000122,24.6448238 97.2000122,26.8827816 L97.2000122,82.8317278 C97.2000122,85.0696857 100.332054,95.4602943 102.570012,95.4602943 L102.598211,95.4602943 C104.836169,95.4602943 107.913361,85.0696857 107.913361,82.8317278 L107.913361,26.8827816 C108.193106,24.6448238 106.234893,22.6866106 103.71719,22.6866106 Z M105.395658,82.8317278 C105.395658,83.670962 104.836169,84.2304515 103.996935,84.2304515 L101.199487,84.2304515 C100.360253,84.2304515 99.8007638,83.670962 99.8007638,82.8317278 L99.8007638,36.6738472 L105.395658,36.6738472 L105.395658,82.8317278 Z M105.395658,33.8763999 L99.8007638,33.8763999 L99.8007638,26.8827816 C99.8007638,26.0435474 100.360253,25.484058 101.199487,25.484058 L103.996935,25.484058 C104.836169,25.484058 105.395658,26.0435474 105.395658,26.8827816 L105.395658,33.8763999 Z" id="Pen" fill="#3F465E"></path>
        </g>
    </g>
</svg>