<?xml version="1.0" encoding="UTF-8" standalone="no"?>
<svg width="60px" height="74px" viewBox="0 0 60 74" version="1.1" xmlns="http://www.w3.org/2000/svg" xmlns:xlink="http://www.w3.org/1999/xlink">
    <!-- Generator: Sketch 49.1 (51147) - http://www.bohemiancoding.com/sketch -->
    <title>icon-save-on-utility-costs</title>
    <desc>Created with Sketch.</desc>
    <defs></defs>
    <g id="icon-save-on-utility-costs" stroke="none" stroke-width="1" fill="none" fill-rule="evenodd">
        <g id="Group-16-Copy" fill="#FFFFFF" fill-rule="nonzero">
            <path d="M58.5,63 L28.5,63 C26.1,63 24,60.9 24,58.5 L24,51 L31.5,51 C33.9,51 36,48.9 36,46.5 L36,39 L40.5,39 C42.9,39 45,36.9 45,34.5 L45,12 C45,10.2 43.8,9 42,9 L33,9 L33,1.5 C33,0.6 32.4,0 31.5,0 C30.6,0 30,0.6 30,1.5 L30,9 L15,9 L15,1.5 C15,0.6 14.4,0 13.5,0 C12.6,0 12,0.6 12,1.5 L12,9 L3,9 C1.2,9 0,10.2 0,12 L0,34.5 C0,36.9 2.1,39 4.5,39 L9,39 L9,46.5 C9,48.9 11.1,51 13.5,51 L21,51 L21,58.5 C21,62.7 24.3,66 28.5,66 L58.5,66 C59.4,66 60,65.4 60,64.5 C60,63.6 59.4,63 58.5,63 Z M13.5,48 C12.6,48 12,47.4 12,46.5 L12,39 L16.5,39 C17.4,39 18,38.4 18,37.5 C18,36.6 17.4,36 16.5,36 L4.5,36 C3.6,36 3,35.4 3,34.5 L3,21 L34.5,21 C35.4,21 36,20.4 36,19.5 C36,18.6 35.4,18 34.5,18 L3,18 L3,12 L42,12 L42,34.5 C42,35.4 41.4,36 40.5,36 L28.5,36 C27.6,36 27,36.6 27,37.5 C27,38.4 27.6,39 28.5,39 L33,39 L33,46.5 C33,47.4 32.4,48 31.5,48 L13.5,48 Z" id="Shape"></path>
        </g>
    </g>
</svg>