<?xml version="1.0" encoding="UTF-8" standalone="no"?>
<svg width="41px" height="74px" viewBox="0 0 41 74" version="1.1" xmlns="http://www.w3.org/2000/svg" xmlns:xlink="http://www.w3.org/1999/xlink">
    <!-- Generator: Sketch 49.1 (51147) - http://www.bohemiancoding.com/sketch -->
    <title>icon-medical-loans</title>
    <desc>Created with Sketch.</desc>
    <defs></defs>
    <g id="icon-medical-loans" stroke="none" stroke-width="1" fill="none" fill-rule="evenodd">
        <path d="M37.3614154,20.8333333 L31.3353807,20.8333333 L31.3353807,19.625 C31.3353807,17.6916667 29.6480909,16 27.7197598,16 L13.2572764,16 C11.3289453,16 9.64165559,17.6916667 9.64165559,19.625 L9.64165559,20.8333333 L3.61562085,20.8333333 C1.68728973,20.8333333 0,22.525 0,24.4583333 L0,70.375 C0,72.3083333 1.68728973,74 3.61562085,74 L37.3614154,74 C39.2897465,74 40.9770363,72.3083333 40.9770363,70.375 L40.9770363,24.4583333 C41.2180776,22.525 39.5307879,20.8333333 37.3614154,20.8333333 Z M12.2931109,19.625 C12.2931109,18.9 12.7751937,18.4166667 13.4983178,18.4166667 L27.9608012,18.4166667 C28.6839254,18.4166667 29.1660082,18.9 29.1660082,19.625 L29.1660082,22.0416667 C29.1660082,22.7666667 28.6839254,23.25 27.9608012,23.25 L13.4983178,23.25 C12.7751937,23.25 12.2931109,22.7666667 12.2931109,22.0416667 L12.2931109,19.625 Z M38.8076637,70.375 C38.8076637,71.1 38.325581,71.5833333 37.6024568,71.5833333 L3.85666224,71.5833333 C3.13353807,71.5833333 2.65145529,71.1 2.65145529,70.375 L2.65145529,24.4583333 C2.65145529,23.7333333 3.13353807,23.25 3.85666224,23.25 L10.1237384,23.25 C10.6058211,24.7 12.0520695,25.6666667 13.4983178,25.6666667 L27.9608012,25.6666667 C29.6480909,25.6666667 30.8532979,24.7 31.3353807,23.25 L37.6024568,23.25 C38.325581,23.25 38.8076637,23.7333333 38.8076637,24.4583333 L38.8076637,70.375 Z M27.7197598,45 L24.104139,45 L24.104139,41.375 C24.104139,40.65 23.6220562,40.1666667 22.898932,40.1666667 L18.0781042,40.1666667 C17.3549801,40.1666667 16.8728973,40.65 16.8728973,41.375 L16.8728973,45 L13.2572764,45 C12.5341523,45 12.0520695,45.4833333 12.0520695,46.2083333 L12.0520695,51.0416667 C12.0520695,51.7666667 12.5341523,52.25 13.2572764,52.25 L16.8728973,52.25 L16.8728973,55.875 C16.8728973,56.6 17.3549801,57.0833333 18.0781042,57.0833333 L22.898932,57.0833333 C23.6220562,57.0833333 24.104139,56.6 24.104139,55.875 L24.104139,52.25 L27.7197598,52.25 C28.442884,52.25 28.9249668,51.7666667 28.9249668,51.0416667 L28.9249668,46.2083333 C29.1660082,45.4833333 28.442884,45 27.7197598,45 Z M26.7555943,49.8333333 L21.9347665,49.8333333 L21.9347665,54.6666667 L19.5243526,54.6666667 L19.5243526,49.8333333 L14.7035248,49.8333333 L14.7035248,47.4166667 L19.5243526,47.4166667 L19.5243526,42.5833333 L21.9347665,42.5833333 L21.9347665,47.4166667 L26.7555943,47.4166667 L26.7555943,49.8333333 Z" id="Shape" fill="#FFFFFF" fill-rule="nonzero"></path>
    </g>
</svg>