<?xml version="1.0" encoding="UTF-8" standalone="no"?>
<svg width="45px" height="74px" viewBox="0 0 45 74" version="1.1" xmlns="http://www.w3.org/2000/svg" xmlns:xlink="http://www.w3.org/1999/xlink">
    <!-- Generator: Sketch 49.1 (51147) - http://www.bohemiancoding.com/sketch -->
    <title>icon-dental-loans</title>
    <desc>Created with Sketch.</desc>
    <defs></defs>
    <g id="icon-dental-loans" stroke="none" stroke-width="1" fill="none" fill-rule="evenodd">
        <path d="M12.5714206,65.3114187 C15.4759282,63.9116076 17.5046144,61.1304832 17.9242239,57.8951961 L18.5228552,53.2796087 C18.7820904,51.2808442 20.4844945,49.7849793 22.5,49.7849793 C24.5155055,49.7849793 26.2179096,51.2808442 26.4771448,53.2796087 L27.0757761,57.8951961 C27.4916241,61.1014809 29.4882603,63.8632366 32.353785,65.274975 C34.462305,63.7902106 35.8510222,61.4539857 36.1034189,58.8235534 L36.9205337,50.3077315 C36.9880633,49.6039511 37.1203506,48.9078977 37.3157153,48.2284129 L38.6350184,43.6398337 L39.0177165,43.3402574 C41.8289475,41.1396245 43.5,37.79163 43.5,34.1673823 C43.5,27.7253973 38.2476523,22.5 31.7647059,22.5 C28.6479209,22.5 25.7276495,23.7113709 23.5473086,25.8378305 L22.5,26.8592576 L21.4526914,25.8378305 C19.2723505,23.7113709 16.3520791,22.5 13.2352941,22.5 C6.75234768,22.5 1.5,27.7253973 1.5,34.1673823 C1.5,37.7774118 3.15785428,41.1136495 5.95036102,43.3151797 L6.33107644,43.6153246 L7.76324578,48.6339777 C7.95729995,49.3139885 8.088218,50.0104489 8.15433627,50.7145085 L8.93508193,59.0282704 C9.17548509,61.5882008 10.5225848,63.8635874 12.5714206,65.3114187 Z" id="Rectangle-29-Copy" stroke="#FFFFFF" stroke-width="3"></path>
    </g>
</svg>