<?xml version="1.0" encoding="UTF-8" standalone="no"?>
<svg width="36px" height="74px" viewBox="0 0 36 74" version="1.1" xmlns="http://www.w3.org/2000/svg" xmlns:xlink="http://www.w3.org/1999/xlink">
    <!-- Generator: Sketch 49.1 (51147) - http://www.bohemiancoding.com/sketch -->
    <title>icon-special-occasions</title>
    <desc>Created with Sketch.</desc>
    <defs></defs>
    <g id="icon-special-occasions" stroke="none" stroke-width="1" fill="none" fill-rule="evenodd">
        <g id="Group-18" transform="translate(2.000000, 19.000000)" stroke="#FFFFFF">
            <path d="M15.7278169,18.4980557 L21.0178809,7.57151168 L27.6201223,7.57151168 L16.7278169,18.4980557 L15.7278169,18.4980557 Z M12.2148925,7.57151168 L20.0521522,7.57151168 L15.9570912,17.8271529 L12.2148925,7.57151168 Z M11.2538067,7.57151168 L15.1167215,18.2891241 L4.37763273,7.57151168 L11.2538067,7.57151168 Z M11.0077316,6.6429264 L4.99049902,6.6429264 L9.11164683,1.21319667 L11.0077316,6.6429264 Z M20.3167991,6.6429264 L11.9688174,6.6429264 L9.99380285,0.928585279 L22.3846721,0.928585279 L20.3167991,6.6429264 Z M27.0815428,6.6429264 L21.2825277,6.6429264 L23.2668281,1.22248252 L27.0815428,6.6429264 Z M23.2668281,0.0858941383 C23.2296847,0.0561794094 23.1832555,0.034821948 23.1321833,0.0208931688 C23.0718252,0.00835726751 23.0346818,0 23.0021813,0 L9.39486534,0 C9.36236486,0 9.32986437,0.00742868223 9.29736389,0.0139287792 C9.22307707,0.0311076069 9.1766478,0.0506078977 9.13486147,0.0784654561 L3.20297235,6.72139185 C3.10082797,6.79150004 3.02654115,6.90200169 3.00796945,7.02643212 C2.98475481,7.15086254 3.01261237,7.27854302 3.08689919,7.38115169 L15.6228005,20.5599794 C15.7110161,20.6797669 15.8503039,20.7503393 15.9988775,20.7503393 C16.1474511,20.7503393 16.2867389,20.6797669 16.3749545,20.5599794 L28.9108558,7.38115169 C28.9851426,7.28040019 29.0130002,7.15550547 28.9944285,7.03293221 C28.9712139,6.90989466 28.9062129,6.80078589 28.8040685,6.72882053 L23.2668281,0.0858941383 Z" id="Fill-54" stroke-width="1.5" fill="#FFFFFF"></path>
            <ellipse id="Oval-3" stroke-width="3" cx="16" cy="35.5555556" rx="16" ry="15.5555556"></ellipse>
        </g>
    </g>
</svg>