<?xml version="1.0" encoding="UTF-8" standalone="no"?>
<svg width="27px" height="30px" viewBox="0 0 27 30" version="1.1" xmlns="http://www.w3.org/2000/svg" xmlns:xlink="http://www.w3.org/1999/xlink">
    <!-- Generator: Sketch 49.1 (51147) - http://www.bohemiancoding.com/sketch -->
    <title>icon-green-thumbs-up</title>
    <desc>Created with Sketch.</desc>
    <defs></defs>
    <g id="icon-green-thumbs-up" stroke="none" stroke-width="1" fill="none" fill-rule="evenodd">
        <g id="On-Demand" transform="translate(1.000000, 1.000000)" fill="#21C07D" stroke="#21C07D" stroke-width="1.2">
            <path d="M23.3716266,8.70819837 C22.7504705,8.17997896 21.972763,7.89323128 21.1849554,7.89323128 L20.3870476,7.89323128 L17.5135698,7.89323128 L15.8773539,7.89323128 L15.8773539,4.07495957 C15.8773539,2.47017871 15.4076994,1.31312668 14.4784904,0.633987438 C13.0089261,-0.442574019 10.9838565,0.171166625 10.8980056,0.201350591 C10.6455032,0.281841167 10.4738015,0.513251574 10.4738015,0.774845947 L10.4738015,5.04587715 C10.4738015,6.43937025 9.80719507,7.62157559 8.48913229,8.5623092 C7.50437275,9.26660174 6.49941301,9.57347206 6.39336198,9.60868669 L6.24691056,9.64390131 C6.02975845,9.27666306 5.63080459,9.03016067 5.17125013,9.03016067 L1.24736209,9.03016067 C0.560555434,9.03016067 0,9.58856404 0,10.2727339 L0,21.7627637 C0,22.4469336 0.560555434,23.005337 1.24736209,23.005337 L5.18135023,23.005337 C5.56515395,23.005337 5.91360733,22.8292638 6.14085953,22.5576081 C6.77211565,23.2266861 7.66597431,23.6442309 8.63558371,23.6442309 L11.963566,23.6442309 L12.3069693,23.6442309 L19.1295854,23.6442309 C21.4475579,23.6442309 22.9272223,22.4368723 23.1898248,20.3239946 L24.548288,11.9278214 C24.7351398,10.7204628 24.2856854,9.48292016 23.3716266,8.70819837 L23.3716266,8.70819837 Z M5.21165052,21.7627637 C5.21165052,21.7828863 5.19650038,21.7979783 5.17630018,21.7979783 L1.24736209,21.7979783 C1.2271619,21.7979783 1.21201175,21.7828863 1.21201175,21.7627637 L1.21201175,10.2727339 C1.21201175,10.2526113 1.2271619,10.2375193 1.24736209,10.2375193 L5.18135023,10.2375193 C5.20155042,10.2375193 5.21670057,10.2526113 5.21670057,10.2727339 L5.21670057,21.7627637 L5.21165052,21.7627637 L5.21165052,21.7627637 Z M23.3413263,11.7366563 L21.9879132,20.1479215 C21.9879132,20.1529522 21.9879132,20.1630135 21.9828631,20.1730748 C21.7960113,21.6772425 20.836502,22.4419029 19.1245354,22.4419029 L12.3019193,22.4419029 L11.9585159,22.4419029 L8.63053366,22.4419029 C7.55487324,22.4419029 6.62061418,21.6420278 6.45396257,20.585589 C6.44891252,20.5503744 6.43881242,20.5151598 6.42871232,20.4799451 L6.42871232,10.8411986 L6.69131487,10.7808307 C6.70141496,10.7808307 6.70646501,10.7758 6.71656511,10.7758 C6.7670656,10.7607081 7.9639272,10.4236538 9.1708889,9.5684414 C10.8222549,8.40132804 11.6908633,6.83679247 11.6908633,5.04587715 L11.6908633,1.2577894 C12.2160684,1.17226817 13.1149771,1.12699222 13.7664335,1.60993568 C14.3623392,2.04760318 14.6653422,2.87766225 14.6653422,4.07495957 L14.6653422,8.49187994 C14.6653422,8.82390357 14.9380448,9.09555926 15.271348,9.09555926 L17.5135698,9.09555926 L20.3870476,9.09555926 L21.1849554,9.09555926 C21.6849102,9.09555926 22.1848651,9.28169372 22.5838189,9.62377867 C23.1797247,10.1318754 23.4726275,10.9418119 23.3413263,11.7366563 L23.3413263,11.7366563 Z" id="like"></path>
        </g>
    </g>
</svg>