<?xml version="1.0" encoding="UTF-8" standalone="no"?>
<svg width="159px" height="112px" viewBox="0 0 159 112" version="1.1" xmlns="http://www.w3.org/2000/svg" xmlns:xlink="http://www.w3.org/1999/xlink">
    <!-- Generator: Sketch 49.1 (51147) - http://www.bohemiancoding.com/sketch -->
    <title>icon-refinance-credit-cards</title>
    <desc>Created with Sketch.</desc>
    <defs>
        <path d="M55,101.75 C80.8193121,101.75 101.75,80.8193121 101.75,55 C101.75,29.1806879 80.8193121,8.25 55,8.25 C29.1806879,8.25 8.25,29.1806879 8.25,55 C8.25,80.8193121 29.1806879,101.75 55,101.75 Z" id="path-1"></path>
        <mask id="mask-2" maskContentUnits="userSpaceOnUse" maskUnits="objectBoundingBox" x="0" y="0" width="93.5" height="93.5" fill="white">
            <use xlink:href="#path-1"></use>
        </mask>
        <path d="M6.21130437,0 C2.78111153,0 0,3.00360046 0,6.70820872 L0,46.9574611 C0,50.6620693 2.78111153,53.6656698 6.21130437,53.6656698 L65.2186959,53.6656698 C68.6488888,53.6656698 71.4300003,50.6620693 71.4300003,46.9574611 L71.4300003,6.70820872 C71.4300003,3.00360046 68.6488888,0 65.2186959,0 L6.21130437,0 Z" id="path-3"></path>
    </defs>
    <g id="icon-refinance-credit-cards" stroke="none" stroke-width="1" fill="none" fill-rule="evenodd">
        <g id="ICON-Refinance-Credit-Cards">
            <g id="coin" stroke="#3F465E">
                <circle id="Oval-3" stroke-width="3" cx="55" cy="55" r="53.5"></circle>
                <use id="Oval-3-Copy" mask="url(#mask-2)" stroke-width="4" stroke-dasharray="2,4" xlink:href="#path-1"></use>
            </g>
            <g id="%" transform="translate(35.000000, 34.000000)">
                <path d="M39.85,1.66719243 L39.85,14.6776025 C39.85,15.677918 39.183123,16.344795 38.1828076,16.344795 C37.1824921,16.344795 36.5156151,15.677918 36.5156151,14.6776025 L36.5156151,5.66845426 L4.83422713,40.3498423 C4.16735016,41.0167192 3.1670347,41.0167192 2.50015773,40.3498423 C1.83328076,39.6829653 1.83328076,38.6826498 2.50015773,38.0157729 L34.1815457,3.33438486 L25.1723975,3.33438486 C24.172082,3.33438486 23.505205,2.66750789 23.505205,1.66719243 C23.505205,0.666876972 24.172082,0 25.1723975,0 L38.1828076,0 C38.5162461,0 39.183123,0.333438486 39.5165615,0.333438486 C39.5165615,0.666876972 39.85,1.33375394 39.85,1.66719243 Z" id="Shape" fill="#3F465E" fill-rule="nonzero"></path>
                <rect id="Rectangle-8" stroke="#3F465E" stroke-width="3" x="1.5" y="1.5" width="10" height="17" rx="5"></rect>
                <rect id="Rectangle-8-Copy" stroke="#3F465E" stroke-width="3" x="28.5" y="24.5" width="10" height="17" rx="5"></rect>
            </g>
            <g id="credit-card" transform="translate(84.000000, 54.000000)">
                <g id="Path">
                    <use fill="#FFFFFF" fill-rule="evenodd" xlink:href="#path-3"></use>
                    <path stroke="#3F465E" stroke-width="3" d="M6.21130437,-1.5 L65.2186959,-1.5 C69.5042028,-1.5 72.9300003,2.19986134 72.9300003,6.70820872 L72.9300003,46.9574611 C72.9300003,51.4658085 69.5042028,55.1656698 65.2186959,55.1656698 L6.21130437,55.1656698 C1.92579753,55.1656698 -1.5,51.4658085 -1.5,46.9574611 L-1.5,6.70820872 C-1.5,2.19986134 1.92579753,-1.5 6.21130437,-1.5 Z"></path>
                </g>
                <path d="M4.55282609,40.3541044 L13.8697827,40.3541044 C14.7284955,40.3541044 15.4226087,39.602785 15.4226087,38.6770522 C15.4226087,37.7513194 14.7284955,37 13.8697827,37 L4.55282609,37 C3.69411326,37 3,37.7513194 3,38.6770522 C3,39.602785 3.69411326,40.3541044 4.55282609,40.3541044 L4.55282609,40.3541044 Z" id="Path" fill="#00375B"></path>
                <polygon id="Path" fill="#3F465E" points="0 21.7082087 0 10 71.3399963 10 71.3399963 21.7082087"></polygon>
            </g>
        </g>
    </g>
</svg>