<?xml version="1.0" encoding="UTF-8" standalone="no"?>
<svg width="22px" height="30px" viewBox="0 0 22 30" version="1.1" xmlns="http://www.w3.org/2000/svg" xmlns:xlink="http://www.w3.org/1999/xlink">
    <!-- Generator: Sketch 49.1 (51147) - http://www.bohemiancoding.com/sketch -->
    <title>icon-green-dollar</title>
    <desc>Created with Sketch.</desc>
    <defs></defs>
    <g id="icon-green-dollar" stroke="none" stroke-width="1" fill="none" fill-rule="evenodd">
        <g id="You're-in-Control" transform="translate(-2.000000, 1.000000)">
            <g id="Group-11" transform="translate(0.333333, 10.000000)"></g>
            <g id="ICON-NOFEE" transform="translate(2.000000, 0.000000)" fill="#21C07D" stroke="#21C07D" stroke-width="0.5">
                <path d="M14.742668,8.42276958 L17.6106609,8.42276958 C17.5198195,6.19066654 16.1571985,4.14024631 13.4449337,3.4784018 L13.4449337,0.636363636 L9.55173075,0.636363636 L9.55173075,3.43946977 C8.86393156,3.59519789 8.2150644,3.82879007 7.63108395,4.14024631 L9.53875341,6.04791576 C10.0708245,5.82730093 10.7196916,5.6975275 11.4983322,5.6975275 C13.8082993,5.6975275 14.664804,6.80060167 14.742668,8.42276958 Z M0.545454545,3.66008461 L5.00966062,8.12429068 C5.00966062,10.8235781 7.03412616,12.2900179 10.0838018,13.1984319 L14.6388493,17.7534794 C14.1976196,18.3763918 13.2762283,18.9344176 11.4983322,18.9344176 C8.82499953,18.9344176 7.77383473,17.740502 7.63108395,16.2091755 L4.77606844,16.2091755 C4.93179656,19.0512137 7.06008085,20.6474269 9.55173075,21.179498 L9.55173075,23.9955815 L13.4449337,23.9955815 L13.4449337,21.2054527 C14.6907587,20.9718605 15.8068102,20.4916988 16.6243828,19.7519902 L19.505353,22.6329604 L21.4554544,20.682859 L2.49555593,1.70998322 L0.545454545,3.66008461 Z" id="ICON-NO-FEE"></path>
            </g>
        </g>
    </g>
</svg>