<?xml version="1.0" encoding="UTF-8" standalone="no"?>
<svg width="21px" height="30px" viewBox="0 0 21 30" version="1.1" xmlns="http://www.w3.org/2000/svg" xmlns:xlink="http://www.w3.org/1999/xlink">
    <!-- Generator: Sketch 49.1 (51147) - http://www.bohemiancoding.com/sketch -->
    <title>icon-green-lock</title>
    <desc>Created with Sketch.</desc>
    <defs></defs>
    <g id="icon-green-lock" stroke="none" stroke-width="1" fill="none" fill-rule="evenodd">
        <g id="Customized-For-You" transform="translate(0.000000, 1.000000)" fill="#21C07D">
            <path d="M20.4689242,22.5349268 L20.4689242,11.3240838 C20.4689242,10.493651 19.787468,9.81420598 18.9545771,9.81420598 L17.2761758,9.81420598 L17.2761758,7.00834966 C17.2761758,3.14557884 14.1212862,0 10.2470816,0 C6.37287713,0 3.2053679,3.14557884 3.2053679,7.00834966 L3.2053679,9.81420598 L1.51434704,9.81420598 C0.681456168,9.81420598 0,10.493651 0,11.3240838 L0,22.5349268 C0,23.3653596 0.681456168,24.0448047 1.51434704,24.0448047 L18.9419576,24.0448047 C19.787468,24.0448047 20.4689242,23.3653596 20.4689242,22.5349268 L20.4689242,22.5349268 Z M6.23406198,7.00834966 C6.23406198,4.80644447 8.02603931,3.01975569 10.2344621,3.01975569 C12.4428848,3.01975569 14.2348622,4.80644447 14.2348622,7.00834966 L14.2348622,9.81420598 L6.23406198,9.81420598 L6.23406198,7.00834966 L6.23406198,7.00834966 Z M17.4402301,21.025049 L3.02869408,21.025049 L3.02869408,12.8339617 L17.4276105,12.8339617 L17.4276105,21.025049 L17.4402301,21.025049 L17.4402301,21.025049 Z" id="monitor-1"></path>
        </g>
    </g>
</svg>