<?xml version="1.0" encoding="UTF-8" standalone="no"?>
<svg width="28px" height="30px" viewBox="0 0 28 30" version="1.1" xmlns="http://www.w3.org/2000/svg" xmlns:xlink="http://www.w3.org/1999/xlink">
    <!-- Generator: Sketch 49.1 (51147) - http://www.bohemiancoding.com/sketch -->
    <title>icon-green-bolt</title>
    <desc>Created with Sketch.</desc>
    <defs></defs>
    <g id="icon-green-bolt" stroke="none" stroke-width="1" fill="none" fill-rule="evenodd">
        <g id="Icon" transform="translate(1.333333, 2.000000)" stroke="#21C07D">
            <path d="M12.3565385,24.6794872 C19.0828205,24.6794872 24.5360256,19.2262821 24.5360256,12.5 C24.5360256,5.77371795 19.0828205,0.320512821 12.3565385,0.320512821 C5.63025641,0.320512821 0.177051282,5.77371795 0.177051282,12.5 C0.177051282,19.2262821 5.63025641,24.6794872 12.3565385,24.6794872 L12.3565385,24.6794872 Z" id="Stroke-202" stroke-width="3" stroke-linecap="round"></path>
            <g id="Group-9" transform="translate(9.000000, 6.000000)" fill="#21C07D" stroke-width="2">
                <path d="M0.330768446,6.90670984 C0.0142128907,6.72393206 -0.0938982204,6.31948762 0.0888795574,6.00293206 C0.0888795574,6.00293206 3.94976845,-0.0940679362 4.266324,0.0887098416 C4.58287956,0.271487619 1.23376845,6.66482095 1.23376845,6.66482095 C1.11165734,6.87637651 0.889212891,6.99537651 0.660546224,6.99537651 C0.548546224,6.99537651 0.434990668,6.96659873 0.330768446,6.90670984 Z" id="Fill-214"></path>
                <path d="M5.80119067,6.99537651 L0.721524002,6.99537651 C0.355968446,6.99537651 0.0596351129,6.69904317 0.0596351129,6.33348762 C0.0596351129,5.96870984 0.355968446,5.67237651 0.721524002,5.67237651 L5.80119067,5.67237651 C6.16674622,5.67237651 6.46307956,5.96870984 6.46307956,6.33348762 C6.46307956,6.69904317 6.16674622,6.99537651 5.80119067,6.99537651" id="Fill-216"></path>
                <path d="M2.19549067,12.5789654 C1.87893511,12.3961876 5.22804622,6.00285429 5.22804622,6.00285429 C5.410824,5.68707651 5.81526845,5.57818762 6.131824,5.7609654 C6.44837956,5.94374317 6.55649067,6.34818762 6.37371289,6.66474317 C6.37371289,6.66474317 2.29893511,12.6388543 2.19549067,12.5789654 Z" id="Fill-218"></path>
            </g>
        </g>
    </g>
</svg>