<?xml version="1.0" encoding="UTF-8" standalone="no"?>
<svg width="77px" height="76px" viewBox="0 0 77 76" version="1.1" xmlns="http://www.w3.org/2000/svg" xmlns:xlink="http://www.w3.org/1999/xlink">
    <!-- Generator: Sketch 49.2 (51160) - http://www.bohemiancoding.com/sketch -->
    <title>icon-stay-in-the-know</title>
    <desc>Created with Sketch.</desc>
    <defs></defs>
    <g id="icon-stay-in-the-know" stroke="none" stroke-width="1" fill="none" fill-rule="evenodd">
        <g id="stay-on-top-of-changes">
            <polygon id="Fill-1" fill="#DBD8D6" points="48.2361823 51.4045974 48.2361823 47.143858 32.4500416 51.4045974"></polygon>
            <polygon id="Fill-2" fill="#DBD8D6" points="45.2486679 29.0491154 31.1605197 33.3524323 31.1605197 27.2653416 45.2486679 22.9627718"></polygon>
            <polygon id="Fill-3" fill="#DBD8D6" points="46.1755197 41.0006984 30.2336679 45.3040152 30.2336679 39.2169246 46.1755197 34.9143548"></polygon>
            <polygon id="Fill-4" fill="#F9A62C" points="60.4694119 6.2585671 44.5297844 11.1758965 60.4694119 16.093226 76.4082978 21.0113024 76.4082978 1.34123767"></polygon>
            <polygon id="Fill-5" fill="#F9A62C" points="0 11.1749255 0 21.0095843 16.1420519 16.0922549 32.2855867 11.1749255 16.1420519 6.25759603 0 1.34026661"></polygon>
            <polygon id="Fill-31" fill="#3F465E" points="25.3520504 53.6160424 51.0569889 53.6160424 51.0569889 51.3463908 25.3520504 51.3463908"></polygon>
            <g id="Group-15" transform="translate(3.564815, 57.459534)" fill="#3F465E">
                <path d="M6.45096874,5.89092376 C3.25221763,5.89092376 0.650359111,3.26904525 0.650359111,0.0473466557 L2.90332207,0.0473466557 C2.90332207,1.62196771 3.9212963,3.59122085 6.45096874,3.62127219 C8.98064119,3.65132352 9.99861541,1.62196771 9.99861541,0.0473466557 L12.2515784,0.0473466557 C12.2515784,3.26904525 9.64897837,5.89092376 6.45096874,5.89092376 Z" id="Fill-6"></path>
                <path d="M15.7820911,5.84357711 C12.58334,5.84357711 9.98148148,3.22169859 9.98148148,0 L12.2344444,0 C12.2344444,1.57462106 13.2524187,3.54387419 15.7820911,3.57392553 C18.3117636,3.60397687 19.3297378,1.57462106 19.3297378,0 L21.5827007,0 C21.5827007,3.22169859 18.9801007,5.84357711 15.7820911,5.84357711 Z" id="Fill-6-Copy"></path>
                <path d="M25.0506096,5.84357711 C21.8518585,5.84357711 19.25,3.22169859 19.25,0 L21.502963,0 C21.502963,1.57462106 22.5209372,3.54387419 25.0506096,3.57392553 C27.5802821,3.60397687 28.5982563,1.57462106 28.5982563,0 L30.8512193,0 C30.8512193,3.22169859 28.2486193,5.84357711 25.0506096,5.84357711 Z" id="Fill-6-Copy-2"></path>
                <path d="M34.3191281,5.84357711 C31.120377,5.84357711 28.5185185,3.22169859 28.5185185,0 L30.7714815,0 C30.7714815,1.57462106 31.7894557,3.54387419 34.3191281,3.57392553 C36.8488006,3.60397687 37.8667748,1.57462106 37.8667748,0 L40.1197378,0 C40.1197378,3.22169859 37.5171378,5.84357711 34.3191281,5.84357711 Z" id="Fill-6-Copy-3"></path>
                <path d="M43.5876467,5.84357711 C40.3888956,5.84357711 37.787037,3.22169859 37.787037,0 L40.04,0 C40.04,1.57462106 41.0579742,3.54387419 43.5876467,3.57392553 C46.1173191,3.60397687 47.1352933,1.57462106 47.1352933,0 L49.3882563,0 C49.3882563,3.22169859 46.7856563,5.84357711 43.5876467,5.84357711 Z" id="Fill-6-Copy-4"></path>
                <path d="M52.8561652,5.84357711 C49.6574141,5.84357711 47.0555556,3.22169859 47.0555556,0 L49.3085185,0 C49.3085185,1.57462106 50.3264927,3.54387419 52.8561652,3.57392553 C55.3858376,3.60397687 56.4038119,1.57462106 56.4038119,0 L58.6567748,0 C58.6567748,3.22169859 56.0541748,5.84357711 52.8561652,5.84357711 Z" id="Fill-6-Copy-5"></path>
                <path d="M62.1246837,5.84357711 C58.9259326,5.84357711 56.3240741,3.22169859 56.3240741,0 L58.577037,0 C58.577037,1.57462106 59.5950113,3.54387419 62.1246837,3.57392553 C64.6543561,3.60397687 65.6723304,1.57462106 65.6723304,0 L67.9252933,0 C67.9252933,3.22169859 65.3226933,5.84357711 62.1246837,5.84357711 Z" id="Fill-6-Copy-6"></path>
            </g>
            <polygon id="Fill-22" fill="#3F465E" points="46.7060041 52.1071551 44.6246656 22.0339844 46.8709552 21.8255786 48.9515522 51.8994963"></polygon>
            <polygon id="Fill-24" fill="#3F465E" points="29.702442 52.1071551 27.4568939 51.8994963 29.5374909 21.8255786 31.7837805 22.0339844"></polygon>
            <path d="M29.7063719,20.8452041 L46.7034089,20.8452041 L46.7034089,16.42082 L29.7063719,16.42082 L29.7063719,20.8452041 Z M27.4534089,23.1148557 L48.9563719,23.1148557 L48.9563719,14.1511684 L27.4534089,14.1511684 L27.4534089,23.1148557 Z" id="Fill-26" fill="#3F465E"></path>
            <path d="M32.6722978,14.1511684 L43.737483,14.1511684 L43.737483,9.69805456 L32.6722978,9.69805456 L32.6722978,14.1511684 Z M30.4193348,16.42082 L45.9904459,16.42082 L45.9904459,7.42840298 L30.4193348,7.42840298 L30.4193348,16.42082 Z" id="Fill-29" fill="#3F465E"></path>
            <polygon id="Fill-30" fill="#3F465E" points="46.1016681 8.23040017 38.2048904 2.90596994 30.3066296 8.23040017 28.6575748 6.46570297 38.2048904 0.0290285564 47.7514644 6.46570297"></polygon>
            <polygon id="Fill-32" fill="#3F465E" points="36.7219274 15.7698609 39.6878533 15.7698609 39.6878533 11.785502 36.7219274 11.785502"></polygon>
        </g>
    </g>
</svg>