<?xml version="1.0" encoding="UTF-8" standalone="no"?>
<svg width="80px" height="76px" viewBox="0 0 80 76" version="1.1" xmlns="http://www.w3.org/2000/svg" xmlns:xlink="http://www.w3.org/1999/xlink">
    <!-- Generator: Sketch 49.2 (51160) - http://www.bohemiancoding.com/sketch -->
    <title>icon-understand-your-credit-score</title>
    <desc>Created with Sketch.</desc>
    <defs></defs>
    <g id="icon-understand-your-credit-score" stroke="none" stroke-width="1" fill="none" fill-rule="evenodd">
        <g id="Understand-Your-Credit-Score" transform="translate(-6.000000, 0.000000)">
            <g id="Understand-your-credit">
                <g id="pie-chart" transform="translate(40.500000, 41.000000) rotate(170.000000) translate(-40.500000, -41.000000) translate(6.000000, 6.000000)">
                    <path d="M49.2611772,53.6775037 L53.3371246,59.4957074 C53.4457561,59.4129481 53.5521246,59.3286704 53.6577386,59.2451519 C60.6795632,53.657763 64.6876158,45.9368556 65.2488789,36.9176148 C65.2820719,36.3588 65.3092298,35.7931519 65.3197912,35.2191519 C65.3605281,32.2580407 65.0648088,29.713763 64.3458789,26.9705593 L57.591107,29.0744667 C58.0671246,31.0508185 58.2934404,33.0772815 58.2655281,35.1189296 C58.1629316,42.3394852 54.8232649,49.1690222 49.2611772,53.6775037 Z M52.6310193,63.7574296 L45.0848965,52.9865778 L46.3160544,52.1111519 C51.8132649,48.2032444 55.1521772,41.835337 55.2487386,35.0779296 C55.2796684,32.8472259 54.9628263,30.6370222 54.3065105,28.5088185 L53.8606684,27.0578741 L64.9229842,23.6115963 L65.2843351,24.7884481 L66.7282298,24.3647815 L66.5652825,24.4232444 L66.7320018,24.3754111 L65.3205456,24.9046148 L66.7448263,24.4148926 L66.8044228,24.5895222 C66.8180018,24.6343185 66.8323351,24.6791148 66.845914,24.7239111 L67.2713877,26.0594481 L67.2283877,26.0731148 C68.0385982,29.1298926 68.3810895,32.0173556 68.3365807,35.2631889 C68.3252649,35.8918556 68.2965982,36.4985037 68.2611421,37.1028741 C67.6448088,47.0119667 63.2414579,55.4906148 55.5278614,61.6277074 C54.9975281,62.0490963 54.4385281,62.4697259 53.8651947,62.8782074 L52.6310193,63.7574296 Z" id="Fill-1" fill="#3F465E"></path>
                    <path d="M21.1153386,6.30207963 L21.0406544,6.33776481 C11.3188825,10.8880056 4.49319825,20.3597648 3.23714561,31.0546907 L3.21451404,31.2596907 C3.17453158,31.6104685 3.14284737,31.9825056 3.11644386,32.3522648 L3.07570702,32.9277833 C3.06439123,33.0978574 3.05911053,33.2610981 3.05458421,33.4250981 L3.03270702,34.0036537 C3.02742632,34.112987 3.02214561,34.2215611 3.02063684,34.332413 C2.93312807,40.4930426 4.60560175,46.4243759 7.87209298,51.5812648 L13.6484263,47.4835426 C11.2419351,43.5642463 10.0115316,39.0838574 10.0764088,34.4341537 C10.2619877,21.2503759 21.0670579,10.5258389 34.1624439,10.5258389 L34.5109702,10.5281167 C44.4786719,10.6700981 53.213707,16.8945056 56.6997246,26.173413 L63.4454439,24.0717833 L63.3330404,23.7718759 C58.9696719,11.9137648 48.4520228,4.13439444 35.8869702,3.47080185 C35.5897421,3.45485741 35.2985491,3.44954259 35.0066018,3.44270926 L34.6346895,3.42828333 C34.6060228,3.42980185 34.5796193,3.43056111 34.551707,3.43056111 L34.2416544,3.42828333 C33.9217947,3.42828333 33.6011807,3.43435741 33.2820754,3.44270926 L32.9350579,3.45182037 C32.6295316,3.46396852 32.3519175,3.48370926 32.0720404,3.50345 L31.7929175,3.52319074 C31.6194088,3.53457963 31.4451456,3.54596852 31.2708825,3.56267222 C31.1592333,3.57254259 31.0498474,3.58620926 30.9404614,3.59911667 L30.6575667,3.63252407 C30.3090404,3.67200556 29.9590053,3.71148704 29.6119877,3.76159815 C26.9459877,4.1632463 24.3901281,4.89061667 21.9564789,5.93383889 L21.7097947,6.04089444 C21.5113912,6.12669074 21.3122333,6.21172778 21.1153386,6.30207963 Z M7.11695263,55.8331167 L6.2479,54.5940056 C2.05879474,48.6254685 -0.100257895,41.6045981 0.00384736842,34.291413 C0.00535614035,34.1471537 0.0113912281,34.0028944 0.0181807018,33.8593944 L0.0385491228,33.327913 C0.0445842105,33.1305056 0.0513736842,32.9338574 0.0634438596,32.7387278 C0.0732508772,32.5792833 0.0860754386,32.4122463 0.0989,32.2436907 L0.10644386,32.1275241 C0.136619298,31.7190426 0.172075439,31.3075241 0.218092982,30.9005611 L0.246005263,30.6621537 C1.61672456,18.9832278 9.0806193,8.60719074 19.7250053,3.60443148 L19.8479702,3.54596852 C20.070514,3.44346852 20.2960754,3.34628333 20.5201281,3.24985741 L20.7660579,3.14280185 C23.4441281,1.99480185 26.2481807,1.19682037 29.1088123,0.768598148 C29.5591807,0.701024074 29.9409,0.657746296 30.3211105,0.614468519 L30.5806193,0.584857407 C30.7156544,0.567394444 30.8514439,0.55145 30.9872333,0.538542593 C31.1894088,0.519561111 31.393093,0.505894444 31.5967772,0.492227778 L31.8577947,0.474764815 C32.1708649,0.451987037 32.4831807,0.429968519 32.7977596,0.41782037 C32.8588649,0.414783333 32.9456193,0.412505556 33.0316193,0.410987037 L33.1704263,0.40795 C33.5506368,0.39807963 33.8953912,0.391246296 34.2416544,0.391246296 L34.5735842,0.393524074 L34.6603386,0.390487037 L35.0790228,0.406431481 C35.3973737,0.413264815 35.7210053,0.420857407 36.0484088,0.43832037 C49.8325491,1.16569074 61.3731456,9.70280185 66.1642509,22.7203019 L66.2977772,23.0763944 C66.4441281,23.4901907 66.5836895,23.9077833 66.7187246,24.3322093 L67.2716895,26.0587648 L54.7526544,29.9598389 L54.3068123,28.5073759 C51.6023386,19.6999685 43.6307421,13.694987 34.4687246,13.5651537 L34.1624439,13.5628759 C22.707093,13.5628759 13.2561456,22.9442833 13.0931982,34.4766722 C13.0305842,38.9897093 14.3628298,43.3197648 16.9458474,47.0006537 L17.8171632,48.2412833 L7.11695263,55.8331167 Z" id="Fill-3" fill="#3F465E"></path>
                    <path d="M52.9932754,61.6390204 L47.1867667,53.3517056 C43.4193632,56.0288537 38.8138368,57.5785019 33.851486,57.5078907 L33.8507316,57.5078907 C26.3370474,57.4008352 19.7391877,53.6128907 15.7137842,47.876687 L7.48041579,53.7176685 C7.48343333,53.7214648 7.48494211,53.7214648 7.48795965,53.7260204 C7.85459123,54.2514278 8.23329298,54.7593722 8.62180175,55.2544093 C14.1190123,62.2904648 21.6115737,66.4739833 30.3473632,67.4283722 C30.407714,67.433687 30.4673105,67.4390019 30.526907,67.4450759 C30.9742579,67.4913907 31.4231175,67.5377056 31.8765035,67.5665574 C31.902907,67.5688352 31.9270474,67.5688352 31.9504333,67.571113 C32.0824509,67.5794648 32.2167316,67.5794648 32.3502579,67.5870574 C32.8013807,67.6136315 33.2532579,67.6417241 33.7111702,67.6477981 C40.7375211,67.7480204 47.2803105,65.6076685 52.6598368,61.8812241 C53.3229421,61.4233907 53.5394509,61.2502796 52.9932754,61.6390204" id="Fill-5" fill="#E8E6E4"></path>
                    <path d="M32.0428456,66.0559352 L32.5294246,66.0764352 C32.9292491,66.0999722 33.3275649,66.1242685 33.7326702,66.1295833 L34.1815298,66.1333796 C40.1381614,66.1333796 45.8858281,64.4485833 50.8745825,61.2505833 L46.7971263,55.4301019 C43.0003018,57.7883611 38.6686175,59.0282315 34.1777579,59.0282315 L33.8307404,59.026713 C26.6557754,58.924213 19.8700737,55.5637315 15.3897754,49.9641944 L9.61117895,54.0634352 C9.67530175,54.1461944 9.74093333,54.2304722 9.80656491,54.3155093 C15.0276702,60.99775 22.186793,65.0096759 30.5106877,65.9185093 L30.6834421,65.9344537 C31.1096702,65.97925 31.5389158,66.023287 31.9711789,66.0513796 L32.0428456,66.0559352 Z M34.1822842,69.1704167 L34.1815298,69.1704167 L33.6904246,69.1666204 C33.2400561,69.1605463 32.7972316,69.1347315 32.354407,69.1089167 L32.109986,69.0975278 C32.0262491,69.09525 31.9410035,69.092213 31.8580211,69.0868981 L31.7637228,69.0785463 C31.3073193,69.051213 30.8373368,69.0041389 30.3703719,68.9555463 L30.1991263,68.9388426 C21.0356,67.9381389 13.1688632,63.5313981 7.43552982,56.1939167 C7.0176,55.6601574 6.64191579,55.1537315 6.2866,54.6473056 L5.30137193,53.4059167 L16.0762667,45.7609352 L16.9453193,47.0000463 C20.8296526,52.5335278 27.1566877,55.8940093 33.872986,55.9896759 L34.1777579,55.9911944 C38.5471614,55.9911944 42.7453193,54.6503426 46.3158281,52.1113796 L47.5492491,51.2344352 L53.6243193,59.9051759 L54.413407,59.9051759 L54.7438281,60.974213 C54.9927754,61.7813056 54.6502842,62.2649537 54.1101439,62.7000093 L54.112407,62.7045648 C54.0995825,62.7129167 54.0807228,62.7265833 54.0543193,62.7448056 C53.8868456,62.8753981 53.7035298,63.0029537 53.5141789,63.132787 C53.4500561,63.1775833 53.3859333,63.2216204 53.3210561,63.2656574 L52.630793,63.7576574 L52.6157053,63.7348796 C47.1147228,67.294287 40.7650561,69.1704167 34.1822842,69.1704167 Z" id="Fill-7" fill="#3F465E"></path>
                </g>
                <path d="M44.967041,22.997272 L45.4159999,3.7962963 C63.0184611,4.41097013 81.5595869,24.6945577 77.8795383,48.0590779 L58.6796354,42.4115068 C58.686648,42.1950718 58.6901815,41.9777513 58.6901815,41.7596002 C58.6901815,32.9416637 52.9168613,25.4808692 44.967041,22.997272 Z" id="Combined-Shape" fill="#F9A62C"></path>
                <polygon id="Fill-12" fill="#3F465E" points="68.2195 28.6410759 66.0853421 26.4938907 75.1070439 17.41315 85.9468158 17.41315 85.9468158 20.450187 76.3570614 20.450187"></polygon>
                <polygon id="Fill-14" fill="#3F465E" points="79.4096842 26.7778537 85.947193 26.7778537 85.947193 23.7408167 79.4096842 23.7408167"></polygon>
                <polygon id="Fill-14-Copy-2" fill="#3F465E" points="79.4096842 32.0926685 85.947193 32.0926685 85.947193 29.0556315 79.4096842 29.0556315"></polygon>
                <path d="M40.8398183,44.1906151 C38.1436404,44.1906151 35.5742811,46.9333872 35.0884962,51.1007374 L32.4385965,51.1007374 C33.0577341,45.899938 35.496184,41.5140104 40.8398183,41.5140104 C46.1834525,41.5140104 48.6219024,45.899938 49.24104,51.1007374 L46.5911403,51.1007374 C46.1053554,46.9333872 43.5359962,44.1906151 40.8398183,44.1906151 Z M40.8398183,39.596665 C37.6834464,39.596665 35.1247014,37.0213907 35.1247014,33.8446288 C35.1247014,30.6678669 37.6834464,28.0925926 40.8398183,28.0925926 C43.9961901,28.0925926 46.5549351,30.6678669 46.5549351,33.8446288 C46.5549351,37.0213907 43.9961901,39.596665 40.8398183,39.596665 L40.8398183,39.596665 Z M40.8393896,30.7691973 C39.1520143,30.7691973 37.7841263,32.1459217 37.7841263,33.8441974 C37.7841263,35.5424731 39.1520143,36.9191975 40.8393896,36.9191975 C42.526765,36.9191975 43.8946529,35.5424731 43.8946529,33.8441974 C43.8946529,32.1459217 42.526765,30.7691973 40.8393896,30.7691973 L40.8393896,30.7691973 Z" id="user-copy" fill="#3F465E"></path>
            </g>
        </g>
    </g>
</svg>