<?xml version="1.0" encoding="UTF-8" standalone="no"?>
<svg width="24px" height="30px" viewBox="0 0 24 30" version="1.1" xmlns="http://www.w3.org/2000/svg" xmlns:xlink="http://www.w3.org/1999/xlink">
    <!-- Generator: Sketch 49.1 (51147) - http://www.bohemiancoding.com/sketch -->
    <title>icon-green-percentage</title>
    <desc>Created with Sketch.</desc>
    <defs></defs>
    <g id="icon-green-percentage" stroke="none" stroke-width="1" fill="none" fill-rule="evenodd">
        <g id="Group-17" transform="translate(0.000000, 3.000000)">
            <g id="Group-11" transform="translate(0.333333, 8.000000)"></g>
            <path d="M2.83992024,21.5667569 C2.44864234,21.5667569 2.05736444,21.4153227 1.76706148,21.1250737 C1.1738337,20.5319564 1.1738337,19.572873 1.76706148,18.9797556 L19.46292,1.28719087 C20.0561478,0.69407351 21.0154098,0.69407351 21.6086375,1.28719087 C22.2018653,1.88030824 22.2018653,2.83939163 21.6086375,3.432509 L3.91277899,21.1250737 C3.60985417,21.4153227 3.23119814,21.5667569 2.83992024,21.5667569 Z M14.8433164,20.595054 C12.7985739,18.5633115 12.7985739,15.2443782 14.8433164,13.2000162 C15.8278221,12.2156938 17.1404964,11.6730545 18.5415237,11.6730545 C19.942551,11.6730545 21.2552252,12.2156938 22.2397309,13.2000162 C24.2844735,15.2317587 24.2844735,18.550692 22.2397309,20.595054 C21.2552252,21.5793764 19.942551,22.1220157 18.5415237,22.1220157 C17.1404964,22.1220157 15.8278221,21.5793764 14.8433164,20.595054 Z M18.5415237,19.1059508 C19.1221296,19.1059508 19.6774918,18.8787995 20.0940134,18.4623554 C20.9523004,17.6042281 20.9523004,16.2034616 20.0940134,15.3453343 C19.6774918,14.9288902 19.1347515,14.7017389 18.5415237,14.7017389 C17.9609178,14.7017389 17.4055556,14.9288902 16.989034,15.3453343 C16.1307469,16.2034616 16.1307469,17.6042281 16.989034,18.4623554 C17.4055556,18.8787995 17.9482959,19.1059508 18.5415237,19.1059508 Z M8.92366048,8.92199948 C7.9391548,9.90632192 6.62648055,10.4489612 5.22545324,10.4489612 C3.82442592,10.4489612 2.51175168,9.90632192 1.52724599,8.92199948 C0.542740312,7.93767705 0,6.62524714 0,5.2244806 C0,3.82371406 0.542740312,2.51128415 1.52724599,1.52696172 C2.51175168,0.54263929 3.82442592,1.10134124e-13 5.22545324,1.10134124e-13 C6.62648055,1.10134124e-13 7.9391548,0.54263929 8.92366048,1.52696172 C9.90816616,2.51128415 10.4509065,3.82371406 10.4509065,5.2244806 C10.4509065,6.62524714 9.90816616,7.93767705 8.92366048,8.92199948 Z M5.22545324,3.01606489 C4.64484732,3.01606489 4.08948514,3.24321622 3.67296351,3.65966033 C3.25644187,4.07610443 3.02924825,4.63136324 3.02924825,5.21186109 C3.02924825,5.79235893 3.25644187,6.34761774 3.67296351,6.76406184 C4.08948514,7.18050595 4.64484732,7.40765728 5.22545324,7.40765728 C5.80605915,7.40765728 6.36142133,7.18050595 6.77794297,6.76406184 C7.1944646,6.34761774 7.42165822,5.80497845 7.42165822,5.21186109 C7.42165822,4.63136324 7.1944646,4.07610443 6.77794297,3.65966033 C6.36142133,3.24321622 5.80605915,3.01606489 5.22545324,3.01606489 Z" id="shopping-cart-3" fill="#21C07D"></path>
        </g>
    </g>
</svg>