<?xml version="1.0" encoding="UTF-8" standalone="no"?>
<svg width="54px" height="74px" viewBox="0 0 54 74" version="1.1" xmlns="http://www.w3.org/2000/svg" xmlns:xlink="http://www.w3.org/1999/xlink">
    <!-- Generator: Sketch 49.1 (51147) - http://www.bohemiancoding.com/sketch -->
    <title>icon-add-value-to-your-home</title>
    <desc>Created with Sketch.</desc>
    <defs></defs>
    <g id="icon-add-value-to-your-home" stroke="none" stroke-width="1" fill="none" fill-rule="evenodd">
        <g id="Group-16" fill="#FFFFFF" fill-rule="nonzero">
            <path d="M9.27460856,48.8085814 L6.57789817,48.8085814 C4.42052987,48.8085814 2.5328326,50.6962061 2.5328326,52.8534915 L2.5328326,63.6399183 C2.5328326,65.7972037 4.42052987,67.6848284 6.57789817,67.6848284 L9.27460856,67.6848284 C11.4319769,67.6848284 13.3196741,65.7972037 13.3196741,63.6399183 L13.3196741,52.8534915 C13.3196741,50.6962061 11.7016479,48.8085814 9.27460856,48.8085814 Z M10.6229637,63.6399183 C10.6229637,64.4489003 10.0836217,64.9882217 9.27460856,64.9882217 L6.57789817,64.9882217 C5.76888506,64.9882217 5.22954298,64.4489003 5.22954298,63.6399183 L5.22954298,52.8534915 C5.22954298,52.0445095 5.76888506,51.5051881 6.57789817,51.5051881 L9.27460856,51.5051881 C10.0836217,51.5051881 10.6229637,52.0445095 10.6229637,52.8534915 L10.6229637,63.6399183 Z M28.1515812,35.3255479 L25.4548709,35.3255479 C23.2975025,35.3255479 21.4098053,37.2131726 21.4098053,39.370458 L21.4098053,63.6399183 C21.4098053,65.7972037 23.2975025,67.6848284 25.4548709,67.6848284 L28.1515812,67.6848284 C30.3089495,67.6848284 32.1966468,65.7972037 32.1966468,63.6399183 L32.1966468,39.370458 C32.1966468,37.2131726 30.5786206,35.3255479 28.1515812,35.3255479 Z M29.4999364,63.6399183 C29.4999364,64.4489003 28.9605944,64.9882217 28.1515812,64.9882217 L25.4548709,64.9882217 C24.6458577,64.9882217 24.1065157,64.4489003 24.1065157,63.6399183 L24.1065157,39.370458 C24.1065157,38.5614759 24.6458577,38.0221546 25.4548709,38.0221546 L28.1515812,38.0221546 C28.9605944,38.0221546 29.4999364,38.5614759 29.4999364,39.370458 L29.4999364,63.6399183 Z M47.0285539,19.1459076 L44.3318435,19.1459076 C42.1744752,19.1459076 40.286778,21.0335323 40.286778,23.1908177 L40.286778,63.6399183 C40.286778,65.7972037 42.1744752,67.6848284 44.3318435,67.6848284 L47.0285539,67.6848284 C49.1859222,67.6848284 51.0736195,65.7972037 51.0736195,63.6399183 L51.0736195,23.1908177 C51.0736195,21.0335323 49.4555933,19.1459076 47.0285539,19.1459076 Z M48.3769091,63.6399183 C48.3769091,64.4489003 47.837567,64.9882217 47.0285539,64.9882217 L44.3318435,64.9882217 C43.5228304,64.9882217 42.9834883,64.4489003 42.9834883,63.6399183 L42.9834883,23.1908177 C42.9834883,22.3818357 43.5228304,21.8425143 44.3318435,21.8425143 L47.0285539,21.8425143 C47.837567,21.8425143 48.3769091,22.3818357 48.3769091,23.1908177 L48.3769091,63.6399183 Z M53.7703299,1.61796403 L53.7703299,12.4043909 C53.7703299,13.2133729 53.2309878,13.7526942 52.4219747,13.7526942 C51.6129616,13.7526942 51.0736195,13.2133729 51.0736195,12.4043909 L51.0736195,4.85389208 C31.6573047,24.5391211 1.99349052,40.17944 1.72381948,40.4491006 C1.45414845,40.4491006 1.18447741,40.7187613 1.18447741,40.7187613 C0.645135332,40.7187613 0.105793255,40.4491006 0.105793255,39.9097793 C-0.163877783,39.370458 0.105793255,38.5614759 0.645135332,38.0221546 C0.91480637,37.7524939 30.3089495,22.3818357 49.4555933,2.69660671 L41.9048042,2.69660671 C41.0957911,2.69660671 40.556449,2.15728537 40.556449,1.34830335 C40.556449,0.539321342 41.0957911,0 41.9048042,0 L52.6916457,0 L52.9613168,0 L53.2309878,0 C53.2309878,0 53.5006588,0 53.5006588,0.269660671 L53.7703299,0.269660671 L53.7703299,0.269660671 C53.7703299,0.269660671 53.7703299,0.539321342 54.0400009,0.539321342 C54.0400009,0.539321342 54.0400009,0.539321342 54.0400009,0.808982013 C54.0400009,0.808982013 54.0400009,0.808982013 54.0400009,1.07864268 C53.7703299,1.34830335 53.7703299,1.34830335 53.7703299,1.61796403 L53.7703299,1.61796403 Z" id="Shape"></path>
        </g>
    </g>
</svg>