<?xml version="1.0" encoding="UTF-8" standalone="no"?>
<svg width="54px" height="74px" viewBox="0 0 54 74" version="1.1" xmlns="http://www.w3.org/2000/svg" xmlns:xlink="http://www.w3.org/1999/xlink">
    <!-- Generator: Sketch 49.1 (51147) - http://www.bohemiancoding.com/sketch -->
    <title>icon-dream-vacation</title>
    <desc>Created with Sketch.</desc>
    <defs></defs>
    <g id="icon-dream-vacation" stroke="none" stroke-width="1" fill="none" fill-rule="evenodd">
        <path d="M30.8582068,28.1216331 C30.1302095,28.2476726 29.5083226,28.4166191 29.0046345,28.5855657 C29.4626549,27.2058354 30.1409549,25.8287867 31.0878885,24.5455972 C32.7467014,22.2996804 35.0488918,20.5606034 38.1583264,19.4973127 C42.5840658,17.9848386 46.2025612,18.6405122 49.1749926,20.6410542 C49.5806294,20.9132459 49.9379122,21.198846 50.2710179,21.4871279 L30.8582068,28.1216331 Z M40.6391582,33.4394276 C41.7298108,34.2908647 42.6203314,35.1945948 43.3308674,36.1452545 C44.9816212,38.3549685 45.5766448,40.6330655 45.5282907,42.7006498 L36.232223,35.4506964 L30.5895731,31.0500404 L31.4814368,30.7443275 C32.2161499,30.6196288 32.9710105,30.5753809 33.7406459,30.6169472 C35.928667,30.7349416 38.2469755,31.5743111 40.6391582,33.4394276 L40.6391582,33.4394276 Z M32.353153,36.949762 C32.0401948,37.1160269 31.6869416,37.2152495 31.306825,37.2152495 C30.6406135,37.2152495 30.0442468,36.924286 29.6251783,36.4697392 C29.2504343,36.0607812 29.0153799,35.5231021 29.0153799,34.9264257 C29.0153799,34.5362395 29.1402945,34.1862788 29.3135632,33.8658166 C29.3659468,33.7706166 29.4022123,33.6646897 29.4666844,33.5761939 L32.2671903,35.7604318 L33.0623459,36.3799026 C32.8675865,36.6158914 32.624473,36.8076324 32.353153,36.949762 L32.353153,36.949762 Z M30.6392703,66.3183083 L24.7051529,66.3183083 C24.0389414,66.3183083 23.5983822,65.8476714 23.6453931,65.190657 L24.5184525,53.0975684 L27.0006274,53.0975684 C27.7420563,53.0975684 28.3437957,52.4982103 28.3437957,51.7567226 C28.3437957,51.0152348 27.7420563,50.4158767 27.0006274,50.4158767 L24.7118687,50.4158767 L25.8656503,34.4396986 C25.9019158,33.9395631 26.222933,33.4997657 26.6446879,33.2222106 C26.4472421,33.7545264 26.3290433,34.3257267 26.3290433,34.9264257 C26.3290433,37.158934 27.8213033,39.0307548 29.85486,39.6569298 L31.6976869,65.190657 C31.746041,65.8490123 31.306825,66.3183083 30.6392703,66.3183083 L30.6392703,66.3183083 Z M8.4595325,42.7086949 C8.42863963,40.5888176 9.07738991,36.7808155 13.3607536,33.4407685 C15.7717406,31.5595618 18.3103287,30.6062204 20.9039866,30.6062204 C21.47349,30.6062204 21.9959824,30.6558317 22.471464,30.7282374 L23.4103386,31.0500404 L8.4595325,42.7086949 Z M3.72889382,21.4871279 C4.06199955,21.198846 4.41928231,20.9132459 4.82491914,20.6410542 C7.79869371,18.6405122 11.4158459,17.9848386 15.8415854,19.4973127 C18.9510199,20.5606034 21.2532104,22.2996804 22.9120232,24.5455972 C23.8603,25.8287867 24.5372568,27.2058354 24.9966204,28.5869066 C24.4902459,28.4166191 23.8656727,28.2476726 23.1349891,28.1202922 L3.72889382,21.4871279 Z M53.4059727,20.834136 C53.4059727,20.834136 47.6733305,13.4112134 37.2879533,16.9617732 C31.2222054,19.0360617 28.3491684,23.2034105 26.9992843,26.3195363 C25.6507433,23.2034105 22.7777064,19.0360617 16.7119584,16.9617732 C6.32658127,13.4112134 0.593939051,20.834136 0.593939051,20.834136 C-0.398662308,21.8290436 -0.119283306,23.0063062 1.22388497,23.4648755 L16.5024242,28.6888108 C14.9819577,29.2103999 13.3674694,30.0323384 11.7073134,31.3275954 C3.90484886,37.4123538 6.06063395,45.0793103 6.06063395,45.0793103 C6.25136385,46.5354689 7.34470283,46.9819706 8.52400458,46.0634912 L23.157823,34.6488706 L20.9657724,64.998916 C20.8072785,67.20863 22.4808662,69 24.7051529,69 L30.6392703,69 C32.8662433,69 34.5371447,67.20863 34.3786508,64.998916 L32.5532851,39.7226312 C33.5969269,39.446417 34.5089381,38.8430363 35.1684338,38.0237795 L45.4772503,46.0634912 C46.6565521,46.9819706 47.749891,46.5354689 47.9406209,45.0793103 C47.9406209,45.0793103 50.096406,37.4123538 42.2939415,31.3275954 C40.6324423,30.0323384 39.0192972,29.2103999 37.4974876,28.6888108 L52.7773699,23.4648755 C54.119195,23.0063062 54.398574,21.8290436 53.4059727,20.834136 L53.4059727,20.834136 Z" id="VACATIONS" fill="#FFFFFF"></path>
    </g>
</svg>