<?xml version="1.0" encoding="UTF-8" standalone="no"?>
<svg width="63px" height="76px" viewBox="0 0 63 76" version="1.1" xmlns="http://www.w3.org/2000/svg" xmlns:xlink="http://www.w3.org/1999/xlink">
    <!-- Generator: Sketch 49.2 (51160) - http://www.bohemiancoding.com/sketch -->
    <title>icon-get-personalized-recommendations</title>
    <desc>Created with Sketch.</desc>
    <defs></defs>
    <g id="icon-get-personalized-recommendations" stroke="none" stroke-width="1" fill="none" fill-rule="evenodd">
        <g id="Get-Custom-Recommendations">
            <g id="Get-custom-recommendations">
                <path d="M7.24137931,71 L54.3103448,71 L54.3103448,59.4081633 L7.24137931,59.4081633 L7.24137931,71 Z M9.77079934,68.458042 L51.7809248,68.458042 L51.7809248,61.9496128 L9.77079934,61.9496128 L9.77079934,68.458042 Z" id="Fill-1" fill="#3F465E"></path>
                <path d="M14.8961468,59.4362807 L46.3641387,59.4362807 C41.0391145,49.465345 38.1538161,37.5388664 37.9749774,24.7304664 L23.2853081,24.7304664 C23.1069774,37.5378521 20.221171,49.4638236 14.8961468,59.4362807 Z M50.7263806,61.971995 L10.5333968,61.971995 L11.637929,60.0686879 C17.6015903,49.791945 20.7541306,37.1336593 20.7541306,23.4626093 L20.7541306,22.1947521 L40.5066629,22.1947521 L40.5066629,23.4626093 C40.5066629,37.1351807 43.6586952,49.7934664 49.6218484,60.0686879 L50.7263806,61.971995 Z" id="Fill-2" fill="#3F465E"></path>
                <path d="M22.8777895,17.3040693 L38.3829024,17.3040693 L44.4176927,2.53556214 L39.2481363,2.53556214 L39.2481363,7.47969786 L31.8085476,7.47969786 L31.8085476,2.53556214 L29.4501121,2.53556214 L29.4501121,7.47969786 L22.0100153,7.47969786 L22.0100153,2.53556214 L16.8424911,2.53556214 L22.8777895,17.3040693 Z M40.0899992,19.8397836 L21.1706927,19.8397836 L13.0624911,-0.000152142857 L24.5503379,-0.000152142857 L24.5503379,4.94398357 L26.9097895,4.94398357 L26.9097895,-0.000152142857 L34.3488702,-0.000152142857 L34.3488702,4.94398357 L36.7078137,4.94398357 L36.7078137,-0.000152142857 L48.1971847,-0.000152142857 L40.0899992,19.8397836 Z" id="Fill-4" fill="#3F465E"></path>
                <path d="M18.4269919,22.1946 L42.8328871,22.1946 L42.8328871,19.8394286 L18.4269919,19.8394286 L18.4269919,22.1946 Z M15.8866694,24.7303143 L45.3732097,24.7303143 L45.3732097,17.3037143 L15.8866694,17.3037143 L15.8866694,24.7303143 Z" id="Fill-7" fill="#3F465E"></path>
                <path d="M36.6975,39.1478279 C36.6975,42.4944636 33.9839274,45.2097064 30.6301935,45.2097064 C27.2769677,45.2097064 24.5593306,42.4944636 24.5593306,39.1478279 C24.5593306,35.8011921 27.2769677,33.0894993 30.6301935,33.0894993 C33.9839274,33.0894993 36.6975,35.8011921 36.6975,39.1478279" id="Fill-9" fill="#F9A62C"></path>
                <polygon id="Fill-10" fill="#3F465E" points="1.79651613 40.4157357 20.5943952 40.4157357 20.5943952 37.8800214 1.79651613 37.8800214"></polygon>
                <polygon id="Fill-11" fill="#3F465E" points="5.19501048 44.3336679 5.08064519e-05 39.147625 5.19501048 33.9620893 6.99152661 35.7548393 3.592575 39.147625 6.99152661 42.5404107"></polygon>
                <polygon id="Fill-12" fill="#3F465E" points="30.6286694 40.4157357 48.754379 40.4157357 48.754379 37.8800214 30.6286694 37.8800214"></polygon>
                <path d="M52.6807016,41.2727564 L56.3971935,41.2727564 L54.2678952,39.1478279 L56.3971935,37.0228993 L52.6807016,37.0228993 L50.5514032,39.1478279 L52.6807016,41.2727564 Z M62.5320726,43.8084707 L51.6290081,43.8084707 L46.9578629,39.1478279 L51.6290081,34.487185 L62.5320726,34.487185 L57.8609274,39.1478279 L62.5320726,43.8084707 Z" id="Fill-13" fill="#3F465E"></path>
            </g>
        </g>
    </g>
</svg>