<?xml version="1.0" encoding="UTF-8" standalone="no"?>
<svg width="148px" height="112px" viewBox="0 0 148 112" version="1.1" xmlns="http://www.w3.org/2000/svg" xmlns:xlink="http://www.w3.org/1999/xlink">
    <!-- Generator: Sketch 49.1 (51147) - http://www.bohemiancoding.com/sketch -->
    <title>icon-home-improvement</title>
    <desc>Created with Sketch.</desc>
    <defs></defs>
    <g id="icon-home-improvement" stroke="none" stroke-width="1" fill="none" fill-rule="evenodd">
        <g id="ICON-Home-Improvement-Copy" transform="translate(0.000000, 23.000000)" fill="#3F465E">
            <path d="M94.3906544,42.3523459 L48.8096543,0.569762501 C48.0499709,-0.189920834 46.9104459,-0.189920834 46.1507626,0.569762501 C15.7634292,28.4248181 0.569762501,42.3523459 0.569762501,42.3523459 C0.569762501,42.3523459 0.569762501,42.3523459 0.569762501,42.3523459 L0.569762501,42.3523459 C2.1244701,44.4917737 4.95392146,45.2686436 7.38312346,44.2230603 L11.5851709,42.4144042 L11.5851709,82.4760377 C11.5851709,85.514771 14.2440625,88.1736627 17.2827959,88.1736627 C29.0578876,88.1736627 66.282371,88.1736627 78.0574627,88.1736627 C81.096196,88.1736627 83.7550877,85.514771 83.7550877,82.4760377 L83.7550877,42.4144042 L88.152166,44.307006 C90.4289493,45.2869849 93.0801395,44.4563068 94.3906544,42.3523459 Z M65.3831626,84.7550877 L49.1894959,84.7550877 L49.1894959,58.166171 L65.3831626,58.166171 L65.3831626,84.7550877 Z M79.956671,82.8558793 C79.956671,83.9954043 79.1969877,84.7550877 78.0574627,84.7550877 L68.561421,84.7550877 L68.561421,58.166171 C68.561421,55.8871209 67.0420543,54.3677543 64.7630043,54.3677543 L49.5693376,54.3677543 C47.2902876,54.3677543 45.7709209,55.8871209 45.7709209,58.166171 L45.7709209,84.7550877 L17.2827959,84.7550877 C16.1432709,84.7550877 15.3835875,83.9954043 15.3835875,82.8558793 L15.3835875,39.3756709 L47.6701293,9.74802084 L79.956671,39.3756709 L79.956671,82.8558793 Z M33.9958292,54.3677543 L26.3989959,54.3677543 C24.1199459,54.3677543 22.6005792,55.8871209 22.6005792,58.166171 L22.6005792,65.7630043 C22.6005792,68.0420543 24.1199459,69.561421 26.3989959,69.561421 L33.9958292,69.561421 C36.2748792,69.561421 37.7942459,68.0420543 37.7942459,65.7630043 L37.7942459,58.166171 C37.7942459,55.8871209 36.2748792,54.3677543 33.9958292,54.3677543 Z M33.9958292,65.7630043 L26.3989959,65.7630043 L26.3989959,58.166171 L33.9958292,58.166171 L33.9958292,65.7630043 Z" id="Shape" fill-rule="nonzero"></path>
            <g id="Tools" transform="translate(98.000000, 37.000000)">
                <path d="M26.7322872,34.0661616 C27.6382035,33.1617965 28.0927128,31.9611472 28.0911616,30.7760101 C28.0927128,29.5924242 27.6382035,28.3917749 26.7322872,27.4858586 L22.3438672,23.0974387 C21.4395022,22.1915224 20.2373016,21.737013 19.0537157,21.7385642 C17.8685786,21.737013 16.6679293,22.1915224 15.762013,23.0989899 C15.1570346,23.7039683 15.1570346,24.6858947 15.7635642,25.2924242 C16.3685426,25.8974026 17.3520202,25.8974026 17.9569986,25.290873 C18.2579365,24.9914863 18.6472944,24.8425685 19.0537157,24.8410173 C19.4601371,24.8425685 19.8494949,24.9914863 20.1504329,25.2924242 L24.5388528,29.6792929 C24.8382395,29.9802309 24.9871573,30.3695887 24.9887085,30.7760101 C24.9871573,31.1824315 24.8382395,31.5717893 24.5373016,31.8727273 C23.9323232,32.4792569 23.9323232,33.4611833 24.5388528,34.0677128 C25.1438312,34.6726912 26.1257576,34.6726912 26.7322872,34.0661616" id="Fill-162"></path>
                <path d="M8.85284993,43.1703102 L21.2626623,30.7604978 C21.8691919,30.1555195 21.8691919,29.1720418 21.2626623,28.5670635 C20.657684,27.9605339 19.6757576,27.9605339 19.069228,28.5670635 L6.65941558,40.9768759 C6.05443723,41.5818543 6.05443723,42.5653319 6.65941558,43.1703102 C7.26594517,43.7768398 8.24787157,43.7768398 8.85284993,43.1703102" id="Fill-163"></path>
                <path d="M24.8196248,18.4282468 L20.1504329,23.0974387 C19.5454545,23.7039683 19.5454545,24.6858947 20.1504329,25.2924242 C20.7569625,25.8974026 21.7388889,25.8974026 22.3438672,25.2924242 L27.0130592,20.6232323 C27.6195887,20.0167027 27.6195887,19.0347763 27.0130592,18.4282468 C26.4080808,17.8232684 25.4261544,17.8232684 24.8196248,18.4282468" id="Fill-164"></path>
                <path d="M29.2080447,22.8166667 L24.5388528,27.4858586 C23.9323232,28.0908369 23.9323232,29.0743146 24.5388528,29.6792929 C25.1438312,30.2858225 26.1257576,30.2858225 26.7322872,29.6792929 L31.4014791,25.010101 C32.0064574,24.4035714 32.0064574,23.421645 31.4014791,22.8166667 C30.7949495,22.2101371 29.8130231,22.2101371 29.2080447,22.8166667" id="Fill-165"></path>
                <path d="M40.3318903,42.0735931 L40.3318903,43.6248196 C42.0475469,43.6201659 43.4296898,42.2380231 43.4343434,40.5223665 C43.4296898,38.80671 42.0475469,37.4245671 40.3318903,37.4199134 C38.6162338,37.4245671 37.2340909,38.80671 37.2294372,40.5223665 C37.2340909,42.2380231 38.6162338,43.6201659 40.3318903,43.6248196 L40.3318903,40.5223665 L40.3318903,42.0735931" id="Fill-166"></path>
                <path d="M40.3318903,46.7272727 C36.912987,46.7210678 34.133189,43.9412698 34.1269841,40.5223665 C34.1254329,40.3253608 34.1657648,40.0507937 34.2200577,39.6676407 C34.2867605,39.1852092 34.1254329,38.7027778 33.7810606,38.3584055 L26.9556638,31.5330087 C26.6268038,31.2041486 26.1660895,31.0397186 25.7022727,31.0878066 C25.2400072,31.1343434 24.821176,31.3871934 24.5652237,31.775 L24.4271645,31.9828644 L10.1341631,46.2758658 C9.83322511,46.5768038 9.44386724,46.7257215 9.03744589,46.7272727 C8.63102453,46.7257215 8.24166667,46.5768038 7.94072872,46.2758658 L3.55386003,41.8889971 C3.25292208,41.5880592 3.10400433,41.1987013 3.1024531,40.7922799 C3.10400433,40.3858586 3.25292208,39.9965007 3.55386003,39.6955628 L17.8468615,25.4025613 L18.0547258,25.2645022 C18.4425325,25.0085498 18.6953824,24.5897186 18.7419192,24.1274531 C18.7900072,23.6636364 18.6255772,23.2029221 18.2967172,22.874062 L18.2563853,22.8352814 L17.1395022,21.716847 C16.7160173,21.2933622 16.0862193,21.1522006 15.5215729,21.3523088 C14.5179293,21.7106421 13.4599928,21.8905844 12.4005051,21.8905844 C10.0116162,21.8890332 7.63048341,20.9831169 5.82020202,19.1728355 C4.00992063,17.3625541 3.10400433,14.9814214 3.1024531,12.5909812 C3.1024531,12.4296537 3.13502886,12.2698773 3.14278499,12.1085498 L8.01363636,16.9794012 C8.37972583,17.3454906 8.90559163,17.505267 9.41439394,17.402886 L14.899531,16.3061688 C15.5138167,16.1836219 15.9931457,15.7042929 16.1156926,15.0900072 L17.2124098,9.60487013 C17.3147908,9.09606782 17.1550144,8.57020202 16.788925,8.20411255 L11.9180736,3.33326118 C12.0794012,3.32550505 12.2391775,3.29292929 12.4005051,3.29292929 C14.7909452,3.29448052 17.1720779,4.20039683 18.9823593,6.01067821 C20.7926407,7.81940837 21.698557,10.2020924 21.7001082,12.5909812 C21.7001082,13.650469 21.5201659,14.7084055 21.1633838,15.7120491 C20.9617244,16.2751443 21.1044372,16.9064935 21.5279221,17.3299784 L24.8196248,20.6216811 C25.108153,20.9117605 25.5083694,21.0761905 25.916342,21.0761905 C26.3258658,21.0761905 26.724531,20.9117605 27.0130592,20.6216811 L33.8896465,13.746645 C34.1781746,13.4581169 34.3441558,13.0579004 34.3441558,12.6499278 L34.3441558,9.14105339 L43.4591631,3.69314574 L46.1365801,6.37056277 L40.6871212,15.48557 L37.179798,15.48557 C36.7718254,15.48557 36.3716089,15.6515512 36.0830808,15.9400794 L29.2080447,22.8166667 C28.6015152,23.421645 28.6015152,24.4035714 29.2080447,25.010101 L38.1679293,33.9699856 C38.5123016,34.3143579 38.9931818,34.4772367 39.4756133,34.4105339 C39.8603175,34.356241 40.1348846,34.3159091 40.3318903,34.3174603 C43.7507937,34.3236652 46.5305916,37.1034632 46.5367965,40.5223665 C46.5305916,43.9412698 43.7507937,46.7210678 40.3318903,46.7272727 L40.3318903,46.7272727 Z M40.3318903,31.2150072 C40.1457431,31.2150072 39.9906205,31.2320707 39.8323954,31.247583 L32.4981962,23.9133838 L37.823557,18.5880231 L41.5682179,18.5880231 C42.1111472,18.5880231 42.6199495,18.2994949 42.8991703,17.8325758 L49.4205267,6.92435065 C49.7850649,6.31316739 49.6888889,5.53445166 49.1847403,5.03185426 L44.7978716,0.64498557 C44.2937229,0.140836941 43.5165584,0.0446608947 42.9053752,0.410750361 L31.9971501,6.93055556 C31.5302309,7.20977633 31.2417027,7.71702742 31.2417027,8.26150794 L31.2417027,12.0061688 L25.916342,17.3315296 L24.3806277,15.7958153 C24.6598485,14.7471861 24.8025613,13.6690837 24.8025613,12.5909812 C24.8041126,9.41872294 23.5895022,6.22940115 21.1757937,3.81569264 C18.7620851,1.40198413 15.5727633,0.188924964 12.4005051,0.19047619 C10.9919913,0.19047619 9.58192641,0.429365079 8.23856421,0.907142857 C7.73596681,1.08708514 7.36367244,1.50746753 7.24577922,2.02867965 C7.12943723,2.54989177 7.28455988,3.08816739 7.66305916,3.46511544 L14.0075758,9.81118326 L13.2769481,13.4674242 L9.62070707,14.1980519 L3.27463925,7.85198413 C2.8976912,7.47503608 2.35786436,7.31836219 1.83820346,7.43625541 C1.31699134,7.55414863 0.896608947,7.92489177 0.716666667,8.4290404 C0.238888889,9.7724026 -8.20824915e-13,11.1809163 -8.20824915e-13,12.5909812 C-0.00155122655,15.7632395 1.21150794,18.9525613 3.62676768,21.3662698 C6.03892496,23.7815296 9.22824675,24.9930375 12.4005051,24.9930375 C12.9294733,24.9930375 13.4553391,24.9480519 13.9812049,24.8813492 L1.36042569,37.5021284 C0.452958153,38.4064935 -0.00155122655,39.6086941 -8.20824915e-13,40.7922799 C-0.00155122655,41.9758658 0.452958153,43.1780664 1.36042569,44.0824315 L5.74729437,48.4693001 C6.65165945,49.3767677 7.85386003,49.8312771 9.03744589,49.8297258 C10.222583,49.8312771 11.4232323,49.3767677 12.3275974,48.4708514 L25.916342,34.8821068 L31.0571068,40.0213203 C31.0415945,40.1810967 31.0260823,40.3362193 31.024531,40.5223665 C31.0276335,45.6600289 35.194228,49.8266234 40.3318903,49.8297258 C45.4695527,49.8266234 49.6361472,45.6600289 49.6392496,40.5223665 C49.6361472,35.3847042 45.4695527,31.2181097 40.3318903,31.2150072 L40.3318903,31.2150072 Z" id="Fill-167"></path>
            </g>
        </g>
    </g>
</svg>