<?xml version="1.0" encoding="UTF-8" standalone="no"?>
<svg width="56px" height="74px" viewBox="0 0 56 74" version="1.1" xmlns="http://www.w3.org/2000/svg" xmlns:xlink="http://www.w3.org/1999/xlink">
    <!-- Generator: Sketch 49.1 (51147) - http://www.bohemiancoding.com/sketch -->
    <title>icon-pool-loans</title>
    <desc>Created with Sketch.</desc>
    <defs></defs>
    <g id="icon-pool-loans" stroke="none" stroke-width="1" fill="none" fill-rule="evenodd">
        <path d="M28,13 C12.544,13 0,25.32 0,40.5 C0,55.68 12.544,68 28,68 C43.456,68 56,55.68 56,40.5 C56,25.32 43.456,13 28,13 Z M33.6,15.86 C43.232,18.06 51.072,25.54 53.088,35 L38.976,35 C37.632,32.8 35.84,30.82 33.6,29.72 L33.6,15.86 Z M38.08,40.5 C38.08,46 33.6,50.4 28,50.4 C22.4,50.4 17.92,46 17.92,40.5 C17.92,35 22.4,30.6 28,30.6 C33.6,30.6 38.08,35 38.08,40.5 Z M24.64,15.42 C25.76,15.2 26.88,15.2 28,15.2 C29.12,15.2 30.24,15.2 31.36,15.42 L31.36,28.84 C30.24,28.62 29.12,28.4 28,28.4 C26.88,28.4 25.76,28.62 24.64,28.84 L24.64,15.42 Z M22.4,15.86 L22.4,29.72 C20.16,30.82 18.144,32.8 17.024,35 L2.912,35 C4.928,25.54 12.544,17.84 22.4,15.86 Z M2.24,40.5 C2.24,39.4 2.24,38.3 2.464,37.2 L16.128,37.2 C15.904,38.3 15.68,39.4 15.68,40.5 C15.68,41.6 15.904,42.7 16.128,43.8 L2.464,43.8 C2.24,42.7 2.24,41.6 2.24,40.5 Z M22.4,65.14 C12.768,62.94 4.928,55.46 2.912,46 L17.024,46 C18.144,48.2 19.936,50.18 22.4,51.28 L22.4,65.14 Z M31.36,65.58 C30.24,65.8 29.12,65.8 28,65.8 C26.88,65.8 25.76,65.8 24.64,65.58 L24.64,52.16 C25.76,52.38 26.88,52.6 28,52.6 C29.12,52.6 30.24,52.38 31.36,52.16 L31.36,65.58 Z M33.6,65.14 L33.6,51.28 C35.84,50.18 37.856,48.2 38.976,46 L53.088,46 C50.848,55.46 43.232,63.16 33.6,65.14 Z M39.648,43.8 C39.872,42.7 40.096,41.6 40.096,40.5 C40.096,39.4 39.872,38.3 39.648,37.2 L53.312,37.2 C53.536,38.3 53.536,39.4 53.536,40.5 C53.536,41.6 53.536,42.7 53.312,43.8 L39.648,43.8 Z" id="Shape" fill="#FFFFFF" fill-rule="nonzero" transform="translate(28.000000, 40.500000) rotate(33.000000) translate(-28.000000, -40.500000) "></path>
    </g>
</svg>