<?xml version="1.0" encoding="UTF-8" standalone="no"?>
<svg width="75px" height="74px" viewBox="0 0 75 74" version="1.1" xmlns="http://www.w3.org/2000/svg" xmlns:xlink="http://www.w3.org/1999/xlink">
    <!-- Generator: Sketch 49.1 (51147) - http://www.bohemiancoding.com/sketch -->
    <title>icon-tackle-home-repairs</title>
    <desc>Created with Sketch.</desc>
    <defs></defs>
    <g id="icon-tackle-home-repairs" stroke="none" stroke-width="1" fill="none" fill-rule="evenodd">
        <g id="Group" fill="#FFFFFF" fill-rule="nonzero">
            <path d="M74.5231196,33.437939 L38.5361001,0.449837744 C37.9363164,-0.149945915 37.0366409,-0.149945915 36.4368573,0.449837744 L0.449837744,33.437939 C-0.149945915,34.0377226 -0.149945915,34.9373981 0.449837744,35.5371818 C1.0496214,36.1369654 1.94929689,36.1369654 2.54908055,35.5371818 L9.14670079,29.5393452 L9.14670079,61.3278791 C9.14670079,63.7270137 11.2459436,65.8262565 13.6450782,65.8262565 L61.6277709,65.8262565 C64.0269056,65.8262565 66.1261484,63.7270137 66.1261484,61.3278791 L66.1261484,29.5393452 L72.7237686,35.5371818 C73.0236604,35.8370736 73.3235523,35.8370736 73.6234441,35.8370736 C73.9233359,35.8370736 74.5231196,35.5371818 74.8230114,35.2372899 C75.1229032,34.9373981 75.1229032,34.0377226 74.5231196,33.437939 Z M63.1272301,27.1402106 L63.1272301,61.6277709 C63.1272301,62.5274464 62.5274464,63.1272301 61.6277709,63.1272301 L13.6450782,63.1272301 C12.7454027,63.1272301 12.1456191,62.5274464 12.1456191,61.6277709 L12.1456191,27.1402106 L12.1456191,27.1402106 L37.6364246,3.74864787 L63.1272301,27.1402106 L63.1272301,27.1402106 Z M34.3376145,44.5339367 L48.4325304,30.4390207 C49.0323141,29.839237 49.9319896,29.839237 50.5317732,30.4390207 C51.1315569,31.0388043 51.1315569,31.9384798 50.5317732,32.5382635 L35.5371818,47.532855 C35.2372899,47.8327468 34.9373981,47.8327468 34.3376145,47.8327468 C34.0377226,47.8327468 33.7378308,47.8327468 33.437939,47.532855 L24.4411841,41.5350184 C23.8414004,40.9352347 23.8414004,40.0355592 24.1412923,39.4357756 C24.7410759,38.8359919 25.6407514,38.8359919 26.2405351,39.1358837 L34.3376145,44.5339367 Z" id="Shape"></path>
        </g>
    </g>
</svg>