<?xml version="1.0" encoding="UTF-8" standalone="no"?>
<svg width="299px" height="149px" viewBox="0 0 299 149" version="1.1" xmlns="http://www.w3.org/2000/svg" xmlns:xlink="http://www.w3.org/1999/xlink">
    <!-- Generator: Sketch 49.1 (51147) - http://www.bohemiancoding.com/sketch -->
    <title>office-montreal</title>
    <desc>Created with Sketch.</desc>
    <defs></defs>
    <g id="office-montreal" stroke="none" stroke-width="1" fill="none" fill-rule="evenodd">
        <g id="Montreal" transform="translate(0.000000, 1.000000)">
            <g>
                <path d="M297.471367,147.593746 L0.669083423,147.593746 C0.299749373,147.593746 0,147.297004 0,146.931376 C0,146.565748 0.299749373,146.269006 0.669083423,146.269006 L297.471367,146.269006 C297.840701,146.269006 298.140451,146.565748 298.140451,146.931376 C298.140451,147.297004 297.840701,147.593746 297.471367,147.593746" id="Fill-20" fill="#37383A"></path>
                <g id="Group-25" transform="translate(4.371345, 0.432749)">
                    <g id="Group-21" transform="translate(229.932749, 38.947368)">
                        <polyline id="Fill-90" fill="#ECE4DD" points="8.5559527 6.05847953 0 6.05847953 0 107.321637 31.3321619 107.321637 40.2163743 107.321637 40.2163743 6.05847953 31.6615614 6.05847953"></polyline>
                        <polyline id="Stroke-91" stroke="#37383A" stroke-width="1.4" stroke-linecap="round" stroke-linejoin="round" points="8.5559527 6.05847953 0 6.05847953 0 107.321637 31.3321619 107.321637 40.2163743 107.321637 40.2163743 6.05847953 31.6615614 6.05847953"></polyline>
                        <g id="Group-22" transform="translate(47.210526, 94.339181)">
                            <path d="M8.73675752,7.44495286 C8.25011084,7.97705693 7.58370375,8.29013725 6.85930943,8.32590524 C6.63583557,8.33738632 6.22724863,8.34268528 5.64380788,8.34268528 C5.10229637,8.34268528 4.50859634,8.3378279 4.04246822,8.33429526 C3.73781224,8.33208736 3.48757504,8.32987946 3.33993063,8.32987946 C2.32604622,8.32987946 1.50084333,7.5129562 1.50084333,6.50880296 C1.50084333,5.50994868 2.32247777,4.69390858 3.33190163,4.6890512 C3.55091494,4.68816804 3.75520841,4.58130565 3.87965792,4.40246569 C4.00410744,4.22406731 4.03220894,3.99665354 3.95504132,3.79352667 C3.87653554,3.58642559 3.83683659,3.3727008 3.83683659,3.15897601 C3.83683659,2.15526435 4.66203947,1.33834109 5.676816,1.33834109 C6.53413489,1.33834109 7.26923454,1.91592792 7.46416085,2.7434491 C7.5118888,2.94392648 7.65016604,3.11128536 7.83973968,3.19606874 C8.77288802,3.61468672 9.38353816,4.50049648 9.4343885,5.50818236 C9.47096506,6.22486693 9.22295814,6.91284879 8.73675752,7.44495286 M10.7712172,5.44194534 C10.7002943,4.04213629 9.90720745,2.79952978 8.67698607,2.13053586 C8.24029762,0.868941401 7.04888307,0.0136006683 5.676816,0.0136006683 C3.92426349,0.0136006683 2.49866974,1.42444922 2.49866974,3.15897601 C2.49866974,3.2636305 2.50357635,3.368285 2.51472774,3.47249791 C1.16273317,3.83371047 0.162676483,5.0604201 0.162676483,6.50880296 C0.162676483,8.24332975 1.58827023,9.65461988 3.33993063,9.65461988 C3.48534476,9.65461988 3.73156746,9.65682778 4.03131683,9.65903568 C4.26371181,9.66080201 4.52688462,9.66256833 4.80031671,9.66433465 L4.80031671,12.2581764 C4.80031671,12.6242463 5.10006609,12.9205466 5.46940014,12.9205466 C5.83873419,12.9205466 6.13848356,12.6242463 6.13848356,12.2581764 L6.13848356,9.66565939 C6.48863722,9.66300991 6.75225609,9.65771094 6.92621778,9.64887934 C8.00701053,9.59544814 9.00260667,9.12869794 9.72923126,8.33385368 C10.4554098,7.53900943 10.825636,6.5123356 10.7712172,5.44194534" id="Fill-47" fill="#37383A"></path>
                            <path d="M8.73675752,7.44495286 C8.25011084,7.97705693 7.58370375,8.29013725 6.85930943,8.32590524 C6.63583557,8.33738632 6.22724863,8.34268528 5.64380788,8.34268528 C5.10229637,8.34268528 4.50859634,8.3378279 4.04246822,8.33429526 C3.73781224,8.33208736 3.48757504,8.32987946 3.33993063,8.32987946 C2.32604622,8.32987946 1.50084333,7.5129562 1.50084333,6.50880296 C1.50084333,5.50994868 2.32247777,4.69390858 3.33190163,4.6890512 C3.55091494,4.68816804 3.75520841,4.58130565 3.87965792,4.40246569 C4.00410744,4.22406731 4.03220894,3.99665354 3.95504132,3.79352667 C3.87653554,3.58642559 3.83683659,3.3727008 3.83683659,3.15897601 C3.83683659,2.15526435 4.66203947,1.33834109 5.676816,1.33834109 C6.53413489,1.33834109 7.26923454,1.91592792 7.46416085,2.7434491 C7.5118888,2.94392648 7.65016604,3.11128536 7.83973968,3.19606874 C8.77288802,3.61468672 9.38353816,4.50049648 9.4343885,5.50818236 C9.47096506,6.22486693 9.22295814,6.91284879 8.73675752,7.44495286" id="Fill-204" fill="#FDD083"></path>
                        </g>
                        <polygon id="Fill-93" fill="#FFFFFF" points="31.1371615 107.321637 31.4736842 107.321637 31.4736842 0 7.86842105 0 7.86842105 107.321637"></polygon>
                        <polygon id="Stroke-94" stroke="#37383A" stroke-width="1.4" stroke-linecap="round" stroke-linejoin="round" points="31.1371615 107.321637 31.4736842 107.321637 31.4736842 0 7.86842105 0 7.86842105 107.321637"></polygon>
                        <path d="M14.4522019,20.3979114 L16.7618779,20.3979114 L16.7618779,15.1726936 L14.4522019,15.1726936 L14.4522019,20.3979114 Z M13.7831185,21.7226519 L17.4305153,21.7226519 C17.8002954,21.7226519 18.0995987,21.42591 18.0995987,21.0602817 L18.0995987,14.5103234 C18.0995987,14.1446951 17.8002954,13.8479532 17.4305153,13.8479532 L13.7831185,13.8479532 C13.4133384,13.8479532 13.1140351,14.1446951 13.1140351,14.5103234 L13.1140351,21.0602817 C13.1140351,21.42591 13.4133384,21.7226519 13.7831185,21.7226519 L13.7831185,21.7226519 Z" id="Fill-189" fill="#37383A"></path>
                        <path d="M22.320623,20.3979114 L24.630299,20.3979114 L24.630299,15.1726936 L22.320623,15.1726936 L22.320623,20.3979114 Z M21.6515396,21.7226519 L25.2989363,21.7226519 C25.6687164,21.7226519 25.9680198,21.42591 25.9680198,21.0602817 L25.9680198,14.5103234 C25.9680198,14.1446951 25.6687164,13.8479532 25.2989363,13.8479532 L21.6515396,13.8479532 C21.2817595,13.8479532 20.9824561,14.1446951 20.9824561,14.5103234 L20.9824561,21.0602817 C20.9824561,21.42591 21.2817595,21.7226519 21.6515396,21.7226519 L21.6515396,21.7226519 Z" id="Fill-189-Copy" fill="#37383A"></path>
                        <path d="M14.4522019,30.7838764 L16.7618779,30.7838764 L16.7618779,25.5586586 L14.4522019,25.5586586 L14.4522019,30.7838764 Z M13.7831185,32.1086168 L17.4305153,32.1086168 C17.8002954,32.1086168 18.0995987,31.8118749 18.0995987,31.4462466 L18.0995987,24.8962883 C18.0995987,24.53066 17.8002954,24.2339181 17.4305153,24.2339181 L13.7831185,24.2339181 C13.4133384,24.2339181 13.1140351,24.53066 13.1140351,24.8962883 L13.1140351,31.4462466 C13.1140351,31.8118749 13.4133384,32.1086168 13.7831185,32.1086168 L13.7831185,32.1086168 Z" id="Fill-189-Copy-3" fill="#37383A"></path>
                        <path d="M22.320623,30.7838764 L24.630299,30.7838764 L24.630299,25.5586586 L22.320623,25.5586586 L22.320623,30.7838764 Z M21.6515396,32.1086168 L25.2989363,32.1086168 C25.6687164,32.1086168 25.9680198,31.8118749 25.9680198,31.4462466 L25.9680198,24.8962883 C25.9680198,24.53066 25.6687164,24.2339181 25.2989363,24.2339181 L21.6515396,24.2339181 C21.2817595,24.2339181 20.9824561,24.53066 20.9824561,24.8962883 L20.9824561,31.4462466 C20.9824561,31.8118749 21.2817595,32.1086168 21.6515396,32.1086168 L21.6515396,32.1086168 Z" id="Fill-189-Copy-2" fill="#37383A"></path>
                        <path d="M14.4522019,41.1698413 L16.7618779,41.1698413 L16.7618779,35.9446235 L14.4522019,35.9446235 L14.4522019,41.1698413 Z M13.7831185,42.4945817 L17.4305153,42.4945817 C17.8002954,42.4945817 18.0995987,42.1978398 18.0995987,41.8322115 L18.0995987,35.2822533 C18.0995987,34.9166249 17.8002954,34.619883 17.4305153,34.619883 L13.7831185,34.619883 C13.4133384,34.619883 13.1140351,34.9166249 13.1140351,35.2822533 L13.1140351,41.8322115 C13.1140351,42.1978398 13.4133384,42.4945817 13.7831185,42.4945817 L13.7831185,42.4945817 Z" id="Fill-189-Copy-5" fill="#37383A"></path>
                        <path d="M22.320623,41.1698413 L24.630299,41.1698413 L24.630299,35.9446235 L22.320623,35.9446235 L22.320623,41.1698413 Z M21.6515396,42.4945817 L25.2989363,42.4945817 C25.6687164,42.4945817 25.9680198,42.1978398 25.9680198,41.8322115 L25.9680198,35.2822533 C25.9680198,34.9166249 25.6687164,34.619883 25.2989363,34.619883 L21.6515396,34.619883 C21.2817595,34.619883 20.9824561,34.9166249 20.9824561,35.2822533 L20.9824561,41.8322115 C20.9824561,42.1978398 21.2817595,42.4945817 21.6515396,42.4945817 L21.6515396,42.4945817 Z" id="Fill-189-Copy-4" fill="#37383A"></path>
                        <path d="M14.4522019,51.5558062 L16.7618779,51.5558062 L16.7618779,46.3305884 L14.4522019,46.3305884 L14.4522019,51.5558062 Z M13.7831185,52.8805466 L17.4305153,52.8805466 C17.8002954,52.8805466 18.0995987,52.5838047 18.0995987,52.2181764 L18.0995987,45.6682182 C18.0995987,45.3025898 17.8002954,45.005848 17.4305153,45.005848 L13.7831185,45.005848 C13.4133384,45.005848 13.1140351,45.3025898 13.1140351,45.6682182 L13.1140351,52.2181764 C13.1140351,52.5838047 13.4133384,52.8805466 13.7831185,52.8805466 L13.7831185,52.8805466 Z" id="Fill-189-Copy-7" fill="#37383A"></path>
                        <path d="M22.320623,51.5558062 L24.630299,51.5558062 L24.630299,46.3305884 L22.320623,46.3305884 L22.320623,51.5558062 Z M21.6515396,52.8805466 L25.2989363,52.8805466 C25.6687164,52.8805466 25.9680198,52.5838047 25.9680198,52.2181764 L25.9680198,45.6682182 C25.9680198,45.3025898 25.6687164,45.005848 25.2989363,45.005848 L21.6515396,45.005848 C21.2817595,45.005848 20.9824561,45.3025898 20.9824561,45.6682182 L20.9824561,52.2181764 C20.9824561,52.5838047 21.2817595,52.8805466 21.6515396,52.8805466 L21.6515396,52.8805466 Z" id="Fill-189-Copy-6" fill="#37383A"></path>
                        <path d="M14.4522019,61.9417711 L16.7618779,61.9417711 L16.7618779,56.7165533 L14.4522019,56.7165533 L14.4522019,61.9417711 Z M13.7831185,63.2665115 L17.4305153,63.2665115 C17.8002954,63.2665115 18.0995987,62.9697697 18.0995987,62.6041413 L18.0995987,56.0541831 C18.0995987,55.6885547 17.8002954,55.3918129 17.4305153,55.3918129 L13.7831185,55.3918129 C13.4133384,55.3918129 13.1140351,55.6885547 13.1140351,56.0541831 L13.1140351,62.6041413 C13.1140351,62.9697697 13.4133384,63.2665115 13.7831185,63.2665115 L13.7831185,63.2665115 Z" id="Fill-189-Copy-9" fill="#37383A"></path>
                        <path d="M22.320623,61.9417711 L24.630299,61.9417711 L24.630299,56.7165533 L22.320623,56.7165533 L22.320623,61.9417711 Z M21.6515396,63.2665115 L25.2989363,63.2665115 C25.6687164,63.2665115 25.9680198,62.9697697 25.9680198,62.6041413 L25.9680198,56.0541831 C25.9680198,55.6885547 25.6687164,55.3918129 25.2989363,55.3918129 L21.6515396,55.3918129 C21.2817595,55.3918129 20.9824561,55.6885547 20.9824561,56.0541831 L20.9824561,62.6041413 C20.9824561,62.9697697 21.2817595,63.2665115 21.6515396,63.2665115 L21.6515396,63.2665115 Z" id="Fill-189-Copy-8" fill="#37383A"></path>
                        <path d="M14.4522019,72.327736 L16.7618779,72.327736 L16.7618779,67.1025182 L14.4522019,67.1025182 L14.4522019,72.327736 Z M13.7831185,73.6524764 L17.4305153,73.6524764 C17.8002954,73.6524764 18.0995987,73.3557346 18.0995987,72.9901062 L18.0995987,66.440148 C18.0995987,66.0745196 17.8002954,65.7777778 17.4305153,65.7777778 L13.7831185,65.7777778 C13.4133384,65.7777778 13.1140351,66.0745196 13.1140351,66.440148 L13.1140351,72.9901062 C13.1140351,73.3557346 13.4133384,73.6524764 13.7831185,73.6524764 L13.7831185,73.6524764 Z" id="Fill-189-Copy-11" fill="#37383A"></path>
                        <path d="M22.320623,72.327736 L24.630299,72.327736 L24.630299,67.1025182 L22.320623,67.1025182 L22.320623,72.327736 Z M21.6515396,73.6524764 L25.2989363,73.6524764 C25.6687164,73.6524764 25.9680198,73.3557346 25.9680198,72.9901062 L25.9680198,66.440148 C25.9680198,66.0745196 25.6687164,65.7777778 25.2989363,65.7777778 L21.6515396,65.7777778 C21.2817595,65.7777778 20.9824561,66.0745196 20.9824561,66.440148 L20.9824561,72.9901062 C20.9824561,73.3557346 21.2817595,73.6524764 21.6515396,73.6524764 L21.6515396,73.6524764 Z" id="Fill-189-Copy-10" fill="#37383A"></path>
                        <path d="M14.4522019,82.7137009 L16.7618779,82.7137009 L16.7618779,77.4884831 L14.4522019,77.4884831 L14.4522019,82.7137009 Z M13.7831185,84.0384413 L17.4305153,84.0384413 C17.8002954,84.0384413 18.0995987,83.7416995 18.0995987,83.3760711 L18.0995987,76.8261129 C18.0995987,76.4604845 17.8002954,76.1637427 17.4305153,76.1637427 L13.7831185,76.1637427 C13.4133384,76.1637427 13.1140351,76.4604845 13.1140351,76.8261129 L13.1140351,83.3760711 C13.1140351,83.7416995 13.4133384,84.0384413 13.7831185,84.0384413 L13.7831185,84.0384413 Z" id="Fill-189-Copy-13" fill="#37383A"></path>
                        <path d="M22.320623,82.7137009 L24.630299,82.7137009 L24.630299,77.4884831 L22.320623,77.4884831 L22.320623,82.7137009 Z M21.6515396,84.0384413 L25.2989363,84.0384413 C25.6687164,84.0384413 25.9680198,83.7416995 25.9680198,83.3760711 L25.9680198,76.8261129 C25.9680198,76.4604845 25.6687164,76.1637427 25.2989363,76.1637427 L21.6515396,76.1637427 C21.2817595,76.1637427 20.9824561,76.4604845 20.9824561,76.8261129 L20.9824561,83.3760711 C20.9824561,83.7416995 21.2817595,84.0384413 21.6515396,84.0384413 L21.6515396,84.0384413 Z" id="Fill-189-Copy-12" fill="#37383A"></path>
                        <path d="M14.4522019,93.0996658 L16.7618779,93.0996658 L16.7618779,87.874448 L14.4522019,87.874448 L14.4522019,93.0996658 Z M13.7831185,94.4244063 L17.4305153,94.4244063 C17.8002954,94.4244063 18.0995987,94.1276644 18.0995987,93.762036 L18.0995987,87.2120778 C18.0995987,86.8464495 17.8002954,86.5497076 17.4305153,86.5497076 L13.7831185,86.5497076 C13.4133384,86.5497076 13.1140351,86.8464495 13.1140351,87.2120778 L13.1140351,93.762036 C13.1140351,94.1276644 13.4133384,94.4244063 13.7831185,94.4244063 L13.7831185,94.4244063 Z" id="Fill-189-Copy-15" fill="#37383A"></path>
                        <path d="M22.320623,93.0996658 L24.630299,93.0996658 L24.630299,87.874448 L22.320623,87.874448 L22.320623,93.0996658 Z M21.6515396,94.4244063 L25.2989363,94.4244063 C25.6687164,94.4244063 25.9680198,94.1276644 25.9680198,93.762036 L25.9680198,87.2120778 C25.9680198,86.8464495 25.6687164,86.5497076 25.2989363,86.5497076 L21.6515396,86.5497076 C21.2817595,86.5497076 20.9824561,86.8464495 20.9824561,87.2120778 L20.9824561,93.762036 C20.9824561,94.1276644 21.2817595,94.4244063 21.6515396,94.4244063 L21.6515396,94.4244063 Z" id="Fill-189-Copy-14" fill="#37383A"></path>
                    </g>
                    <g id="taller-building" transform="translate(72.564327, 0.000000)">
                        <polygon id="Fill-359" fill="#FFFFFF" points="0 146.269006 33.2222222 146.269006 33.2222222 29.4269006 0 29.4269006"></polygon>
                        <polygon id="Stroke-360" stroke="#37383A" stroke-width="1.4" stroke-linecap="round" stroke-linejoin="round" points="0 146.269006 33.2222222 146.269006 33.2222222 29.4269006 0 29.4269006"></polygon>
                        <g id="Group-20" transform="translate(4.371345, 35.485380)">
                            <polygon id="Fill-369" fill="#CBEDE0" points="0 110.33357 5.19262803 110.33357 5.19262803 5.1718861 0 5.1718861"></polygon>
                            <polygon id="Stroke-370" stroke="#37383A" stroke-width="1.4" stroke-linecap="round" stroke-linejoin="round" points="0 110.33357 5.19262803 110.33357 5.19262803 5.1718861 0 5.1718861"></polygon>
                            <polygon id="Fill-371" fill="#CBEDE0" points="19.2869041 110.33357 24.4795322 110.33357 24.4795322 5.1718861 19.2869041 5.1718861"></polygon>
                            <polygon id="Stroke-372" stroke="#37383A" stroke-width="1.4" stroke-linecap="round" stroke-linejoin="round" points="19.2869041 110.33357 24.4795322 110.33357 24.4795322 5.1718861 19.2869041 5.1718861"></polygon>
                            <polygon id="Fill-373" fill="#CBEDE0" points="4.45082403 110.33357 9.64345206 110.33357 9.64345206 11.2057532 4.45082403 11.2057532"></polygon>
                            <polygon id="Stroke-374" stroke="#37383A" stroke-width="1.4" stroke-linecap="round" stroke-linejoin="round" points="4.45082403 110.33357 9.64345206 110.33357 9.64345206 11.2057532 4.45082403 11.2057532"></polygon>
                            <polygon id="Fill-375" fill="#CBEDE0" points="14.0942761 110.33357 19.2869041 110.33357 19.2869041 11.2057532 14.0942761 11.2057532"></polygon>
                            <polygon id="Stroke-376" stroke="#37383A" stroke-width="1.4" stroke-linecap="round" stroke-linejoin="round" points="14.0942761 110.33357 19.2869041 110.33357 19.2869041 11.2057532 14.0942761 11.2057532"></polygon>
                            <polygon id="Fill-361" fill="#CBEDE0" points="0 6.03386712 5.19262803 6.03386712 5.19262803 0 0 0"></polygon>
                            <polygon id="Stroke-362" stroke="#37383A" stroke-width="1.4" stroke-linecap="round" stroke-linejoin="round" points="0 6.03386712 5.19262803 6.03386712 5.19262803 0 0 0"></polygon>
                            <polygon id="Fill-363" fill="#CBEDE0" points="4.45082403 11.2057532 9.64345206 11.2057532 9.64345206 5.1718861 4.45082403 5.1718861"></polygon>
                            <polygon id="Stroke-364" stroke="#37383A" stroke-width="1.4" stroke-linecap="round" stroke-linejoin="round" points="4.45082403 11.2057532 9.64345206 11.2057532 9.64345206 5.1718861 4.45082403 5.1718861"></polygon>
                            <polygon id="Fill-365" fill="#CBEDE0" points="14.0942761 11.2057532 19.2869041 11.2057532 19.2869041 5.1718861 14.0942761 5.1718861"></polygon>
                            <polygon id="Stroke-366" stroke="#37383A" stroke-width="1.4" stroke-linecap="round" stroke-linejoin="round" points="14.0942761 11.2057532 19.2869041 11.2057532 19.2869041 5.1718861 14.0942761 5.1718861"></polygon>
                            <polygon id="Fill-367" fill="#CBEDE0" points="19.2869041 6.03386712 24.4795322 6.03386712 24.4795322 0 19.2869041 0"></polygon>
                            <polygon id="Stroke-368" stroke="#37383A" stroke-width="1.4" stroke-linecap="round" stroke-linejoin="round" points="19.2869041 6.03386712 24.4795322 6.03386712 24.4795322 0 19.2869041 0"></polygon>
                            <path d="M9.64345206,11.2057532 L14.8360801,11.2057532" id="Fill-377" fill="#FEFEFE"></path>
                            <path d="M9.64345206,11.2057532 L14.8360801,11.2057532" id="Stroke-378" stroke="#37383A" stroke-width="1.4" stroke-linecap="round" stroke-linejoin="round"></path>
                        </g>
                        <polygon id="Fill-380" fill="#FFFFFF" points="22.2075121 4.03150783 19.4090867 4.03150783 19.4090867 0 16.611336 0 13.8135852 0 13.8135852 4.03150783 11.014935 4.03150783 2.62280702 25.3958463 2.62280702 29.4269006 16.611336 29.4269006 30.5994152 29.4269006 30.5994152 25.3958463"></polygon>
                        <polygon id="Stroke-381" stroke="#37383A" stroke-width="1.4" stroke-linecap="round" stroke-linejoin="round" points="22.2075121 4.03150783 19.4090867 4.03150783 19.4090867 0 16.611336 0 13.8135852 0 13.8135852 4.03150783 11.014935 4.03150783 2.62280702 25.3958463 2.62280702 29.4269006 16.611336 29.4269006 30.5994152 29.4269006 30.5994152 25.3958463"></polygon>
                    </g>
                    <g id="Group-24" transform="translate(59.450292, 132.421053)">
                        <path d="M6.41700069,10.0371166 L3.01538056,10.0371166 C2.11167189,10.0371166 1.37657223,9.30939253 1.37657223,8.41475116 C1.37657223,7.79477265 1.73207856,7.23794009 2.30436791,6.9619525 C2.48412833,6.87540279 2.61526868,6.71378446 2.66210452,6.52081394 C2.7084943,6.328285 2.66567296,6.12515813 2.54523795,5.96707244 C2.16073801,5.46367108 1.95733665,4.86665473 1.95733665,4.24137725 C1.95733665,2.65875403 3.25803482,1.37110634 4.85669814,1.37110634 C6.45536147,1.37110634 7.75605964,2.65875403 7.75605964,4.24137725 C7.75605964,4.54121017 7.70788564,4.83927676 7.61332185,5.12807018 C7.52544889,5.39522616 7.61733635,5.68799379 7.84304049,5.85888531 C8.4318339,6.30488125 8.769498,6.97873255 8.769498,7.70778136 C8.769498,8.99233799 7.71413042,10.0371166 6.41700069,10.0371166 M9.09422649,4.24137725 C9.09422649,1.92838047 7.19313746,0.0463659148 4.85669814,0.0463659148 C2.52025883,0.0463659148 0.619169799,1.92838047 0.619169799,4.24137725 C0.619169799,4.92052751 0.782426155,5.57583244 1.0955572,6.16975773 C0.43093433,6.72040816 0.0384053885,7.53159088 0.0384053885,8.41475116 C0.0384053885,10.0397661 1.3738959,11.361857 3.01538056,11.361857 L4.42580842,11.361857 L4.42580842,13.8457453 C4.42580842,14.2113737 4.72555779,14.5081155 5.09489184,14.5081155 C5.46467195,14.5081155 5.76397527,14.2113737 5.76397527,13.8457453 L5.76397527,11.361857 L6.41700069,11.361857 C8.4519064,11.361857 10.1076648,9.72271154 10.1076648,7.70778136 C10.1076648,6.71555078 9.71022929,5.78867407 9.00278509,5.10378327 C9.06389471,4.82028882 9.09422649,4.53105383 9.09422649,4.24137725" id="Fill-45" fill="#37383A"></path>
                        <path d="M6.41700069,10.0371166 L3.01538056,10.0371166 C2.11167189,10.0371166 1.37657223,9.30939253 1.37657223,8.41475116 C1.37657223,7.79477265 1.73207856,7.23794009 2.30436791,6.9619525 C2.48412833,6.87540279 2.61526868,6.71378446 2.66210452,6.52081394 C2.7084943,6.328285 2.66567296,6.12515813 2.54523795,5.96707244 C2.16073801,5.46367108 1.95733665,4.86665473 1.95733665,4.24137725 C1.95733665,2.65875403 3.25803482,1.37110634 4.85669814,1.37110634 C6.45536147,1.37110634 7.75605964,2.65875403 7.75605964,4.24137725 C7.75605964,4.54121017 7.70788564,4.83927676 7.61332185,5.12807018 C7.52544889,5.39522616 7.61733635,5.68799379 7.84304049,5.85888531 C8.4318339,6.30488125 8.769498,6.97873255 8.769498,7.70778136 C8.769498,8.99233799 7.71413042,10.0371166 6.41700069,10.0371166" id="Fill-202" fill="#FDD083"></path>
                    </g>
                    <g id="statue" transform="translate(0.000000, 26.830409)">
                        <path d="M26.187478,14.7134503 C26.187478,14.7134503 24.9822957,14.2975018 25.4842155,11.5946369 C25.9865774,8.89200065 24.7053667,8.37200786 22.293676,8.16414794 C19.8826484,7.95605936 17.1443009,1.61507426 16.6421601,0.263641811 C16.1397982,-1.08847665 21.8666795,3.17436663 24.1780304,3.69413075 C26.4889393,4.21366621 28.3980471,6.81202948 27.8956852,9.61939602 C27.3931023,12.4263052 26.187478,14.7134503 26.187478,14.7134503" id="Fill-382" fill="#CBEDE0"></path>
                        <path d="M26.187478,14.7134503 C26.187478,14.7134503 24.9822957,14.2975018 25.4842155,11.5946369 C25.9865774,8.89200065 24.7053667,8.37200786 22.293676,8.16414794 C19.8826484,7.95605936 17.1443009,1.61507426 16.6421601,0.263641811 C16.1397982,-1.08847665 21.8666795,3.17436663 24.1780304,3.69413075 C26.4889393,4.21366621 28.3980471,6.81202948 27.8956852,9.61939602 C27.3931023,12.4263052 26.187478,14.7134503 26.187478,14.7134503 Z" id="Stroke-383" stroke="#37383A" stroke-width="1.4" stroke-linecap="round" stroke-linejoin="round"></path>
                        <path d="M28.8508772,8.47941706 C28.8508772,8.47941706 30.606934,5.64064689 31.1050642,5.61546463 C31.6036327,5.59075307 31.7029081,5.20407595 32.4999603,4.54133538 C33.2970124,3.87883016 34.3929865,2.70161839 34.8913358,2.70161839 C35.3892469,2.70161839 35.8873771,3.34388367 37.5814142,2.70161839 C39.2747939,2.05982381 41.8655968,0.882847384 40.8691173,2.70161839 C39.8724186,4.52062474 39.3747267,4.62041238 39.1752993,5.1052297 C38.9756528,5.59075307 38.5774554,6.55356262 37.6809087,6.76772949 C36.7841429,6.98142567 36.1860799,7.30267598 35.6881688,7.40952407 C35.1902578,7.51660751 34.6914701,6.87457758 34.492481,8.47941706 C34.2934919,10.0842565 34.7427515,10.1896925 33.8700922,10.9404533 C32.9972139,11.6909788 30.109023,12.1169591 30.109023,12.1169591 L28.8508772,8.47941706 Z" id="Fill-384" fill="#CBEDE0"></path>
                        <path d="M28.8508772,8.47941706 C28.8508772,8.47941706 30.606934,5.64064689 31.1050642,5.61546463 C31.6036327,5.59075307 31.7029081,5.20407595 32.4999603,4.54133538 C33.2970124,3.87883016 34.3929865,2.70161839 34.8913358,2.70161839 C35.3892469,2.70161839 35.8873771,3.34388367 37.5814142,2.70161839 C39.2747939,2.05982381 41.8655968,0.882847384 40.8691173,2.70161839 C39.8724186,4.52062474 39.3747267,4.62041238 39.1752993,5.1052297 C38.9756528,5.59075307 38.5774554,6.55356262 37.6809087,6.76772949 C36.7841429,6.98142567 36.1860799,7.30267598 35.6881688,7.40952407 C35.1902578,7.51660751 34.6914701,6.87457758 34.492481,8.47941706 C34.2934919,10.0842565 34.7427515,10.1896925 33.8700922,10.9404533 C32.9972139,11.6909788 30.109023,12.1169591 30.109023,12.1169591 L28.8508772,8.47941706 Z" id="Stroke-385" stroke="#37383A" stroke-width="1.4" stroke-linecap="round" stroke-linejoin="round"></path>
                        <path d="M26.7293424,24.3775153 C25.4798482,23.2772622 25.2711792,23.1771592 25.3756282,22.7769672 C25.4798482,22.3769951 24.1261339,21.6771541 24.1261339,21.6771541 C24.1261339,21.6771541 23.6052632,21.9770231 23.6052632,21.6771541 C23.6052632,21.3768451 27.9790658,16.1756686 26.1044808,16.0757856 C24.2303539,15.9759026 26.1044808,16.6757436 25.1676464,16.6757436 C24.2303539,16.6757436 24.5425557,16.3760946 24.2303539,15.9759026 C23.917923,15.5757105 23.709025,14.0752654 24.1261339,13.6752934 C24.5425557,13.2753213 24.9589774,12.0745252 25.1676464,11.3746842 C25.3756282,10.6746231 26.7293424,9.17417796 27.9790658,9.37438399 C29.22856,9.57459001 27.0415442,9.374824 27.2497551,7.37408381 C27.458195,5.37334362 28.4997075,4.87326858 28.9163583,5.37334362 C29.3325509,5.87407869 29.1243401,6.47381673 29.8534217,6.77390576 C30.5822743,7.07421479 29.8534217,7.87415885 29.8534217,9.07429496 C29.8534217,10.2748711 31.8315395,9.07429496 32.1441994,10.0746651 C32.4566302,11.0745951 34.1225462,12.5750403 32.9772719,12.8751293 C31.8315395,13.1749983 31.103145,13.8754994 31.103145,13.8754994 C31.103145,13.8754994 32.0399794,15.2758415 31.9357594,16.2757716 C31.8315395,17.2761417 33.3547543,17.6763337 33.374224,18.3761748 C33.3939227,19.0764559 33.9145644,19.3765449 34.0183263,20.276592 C34.1225462,21.176859 34.1225462,21.9770231 34.0183263,22.2768921 C33.9145644,22.5772012 30.998696,22.7769672 30.998696,22.7769672 C30.998696,22.7769672 32.5606211,24.6776044 32.0402085,24.9776934 C31.5195668,25.2775624 32.2481903,24.9772534 30.998696,24.2771923 L29.7492017,23.5771312 C29.7492017,23.5771312 28.9163583,25.0093743 28.3952584,25.0931969 C27.8746167,25.1774594 26.7293424,24.3775153 26.7293424,24.3775153" id="Fill-386" fill="#CBEDE0"></path>
                        <path d="M26.7293424,24.3775153 C25.4798482,23.2772622 25.2711792,23.1771592 25.3756282,22.7769672 C25.4798482,22.3769951 24.1261339,21.6771541 24.1261339,21.6771541 C24.1261339,21.6771541 23.6052632,21.9770231 23.6052632,21.6771541 C23.6052632,21.3768451 27.9790658,16.1756686 26.1044808,16.0757856 C24.2303539,15.9759026 26.1044808,16.6757436 25.1676464,16.6757436 C24.2303539,16.6757436 24.5425557,16.3760946 24.2303539,15.9759026 C23.917923,15.5757105 23.709025,14.0752654 24.1261339,13.6752934 C24.5425557,13.2753213 24.9589774,12.0745252 25.1676464,11.3746842 C25.3756282,10.6746231 26.7293424,9.17417796 27.9790658,9.37438399 C29.22856,9.57459001 27.0415442,9.374824 27.2497551,7.37408381 C27.458195,5.37334362 28.4997075,4.87326858 28.9163583,5.37334362 C29.3325509,5.87407869 29.1243401,6.47381673 29.8534217,6.77390576 C30.5822743,7.07421479 29.8534217,7.87415885 29.8534217,9.07429496 C29.8534217,10.2748711 31.8315395,9.07429496 32.1441994,10.0746651 C32.4566302,11.0745951 34.1225462,12.5750403 32.9772719,12.8751293 C31.8315395,13.1749983 31.103145,13.8754994 31.103145,13.8754994 C31.103145,13.8754994 32.0399794,15.2758415 31.9357594,16.2757716 C31.8315395,17.2761417 33.3547543,17.6763337 33.374224,18.3761748 C33.3939227,19.0764559 33.9145644,19.3765449 34.0183263,20.276592 C34.1225462,21.176859 34.1225462,21.9770231 34.0183263,22.2768921 C33.9145644,22.5772012 30.998696,22.7769672 30.998696,22.7769672 C30.998696,22.7769672 32.5606211,24.6776044 32.0402085,24.9776934 C31.5195668,25.2775624 32.2481903,24.9772534 30.998696,24.2771923 L29.7492017,23.5771312 C29.7492017,23.5771312 28.9163583,25.0093743 28.3952584,25.0931969 C27.8746167,25.1774594 26.7293424,24.3775153 26.7293424,24.3775153 Z" id="Stroke-387" stroke="#37383A" stroke-width="1.4" stroke-linecap="round" stroke-linejoin="round"></path>
                        <path d="M34.1574048,108.187135 C34.1574048,108.187135 35.0485833,107.381207 34.7007597,106.635091 C34.352936,105.88874 33.2222222,103.253292 33.2222222,103.253292 C33.2222222,103.253292 34.085659,102.220317 34.0020512,101.228857 C33.9178695,100.236929 33.8245043,99.1706464 34.0020512,98.7439928 C34.1788329,98.3180428 35.1874832,99.7037875 35.0746031,101.623377 C34.9619144,103.542732 35.6573703,103.50192 35.7446132,104.375633 C35.8318561,105.249346 35.9183337,104.076577 35.7446132,105.88874 C35.5707014,107.701608 34.1574048,108.187135 34.1574048,108.187135" id="Fill-406" fill="#FEFEFE"></path>
                        <path d="M34.1574048,108.187135 C34.1574048,108.187135 35.0485833,107.381207 34.7007597,106.635091 C34.352936,105.88874 33.2222222,103.253292 33.2222222,103.253292 C33.2222222,103.253292 34.085659,102.220317 34.0020512,101.228857 C33.9178695,100.236929 33.8245043,99.1706464 34.0020512,98.7439928 C34.1788329,98.3180428 35.1874832,99.7037875 35.0746031,101.623377 C34.9619144,103.542732 35.6573703,103.50192 35.7446132,104.375633 C35.8318561,105.249346 35.9183337,104.076577 35.7446132,105.88874 C35.5707014,107.701608 34.1574048,108.187135 34.1574048,108.187135 Z" id="Stroke-407" stroke="#37383A" stroke-linecap="round" stroke-linejoin="round"></path>
                        <polygon id="Fill-388" fill="#FEFEFE" points="27.9766082 27.6959064 29.7251462 27.6959064 29.7251462 23.3684211 27.9766082 23.3684211"></polygon>
                        <polygon id="Stroke-389" stroke="#37383A" stroke-width="1.4" stroke-linecap="round" stroke-linejoin="round" points="27.9766082 27.6959064 29.7251462 27.6959064 29.7251462 23.3684211 27.9766082 23.3684211"></polygon>
                        <path d="M31.4736842,29.4266626 C31.4736842,30.8604322 30.2991244,32.0233918 28.8509974,32.0233918 C27.4023896,32.0233918 26.2280702,30.8604322 26.2280702,29.4266626 C26.2280702,27.993131 27.4023896,26.8304094 28.8509974,26.8304094 C30.2991244,26.8304094 31.4736842,27.993131 31.4736842,29.4266626" id="Fill-390" fill="#FEFEFE"></path>
                        <path d="M31.4736842,29.4266626 C31.4736842,30.8604322 30.2991244,32.0233918 28.8509974,32.0233918 C27.4023896,32.0233918 26.2280702,30.8604322 26.2280702,29.4266626 C26.2280702,27.993131 27.4023896,26.8304094 28.8509974,26.8304094 C30.2991244,26.8304094 31.4736842,27.993131 31.4736842,29.4266626 Z" id="Stroke-391" stroke="#37383A" stroke-width="1.4" stroke-linecap="round" stroke-linejoin="round"></path>
                        <path d="M27.9766082,31.1578947 L24.8319404,31.672102 L21.5754848,36.9200944 L21.5754848,39.3892853 L19.8439917,39.3892853 L20.7112878,41.1385406 L22.771282,42.5786379 L21.5754848,87.6451051 C21.5754848,87.6451051 20.7112878,89.3948131 19.3016549,90.2174995 C19.6268356,90.5264313 19.3016549,92.275234 19.3016549,92.275234 L14.4219521,94.4359457 L14.4219521,105.136527 L10.8436363,106.165621 L10.8436363,111.721413 L6.28933561,113.368144 L6.28933561,115.425878 L0,115.425878 L0,119.438596 L27.9766082,119.438596 L27.9766082,31.1578947 Z" id="Fill-392" fill="#CBEDE0"></path>
                        <path d="M27.9766082,31.1578947 L24.8319404,31.672102 L21.5754848,36.9200944 L21.5754848,39.3892853 L19.8439917,39.3892853 L20.7112878,41.1385406 L22.771282,42.5786379 L21.5754848,87.6451051 C21.5754848,87.6451051 20.7112878,89.3948131 19.3016549,90.2174995 C19.6268356,90.5264313 19.3016549,92.275234 19.3016549,92.275234 L14.4219521,94.4359457 L14.4219521,105.136527 L10.8436363,106.165621 L10.8436363,111.721413 L6.28933561,113.368144 L6.28933561,115.425878 L0,115.425878 L0,119.438596 L27.9766082,119.438596 L27.9766082,31.1578947 Z" id="Stroke-393" stroke="#37383A" stroke-width="1.4" stroke-linecap="round" stroke-linejoin="round"></path>
                        <path d="M28.8508772,31.1578947 L31.9955699,31.672102 L35.2518299,36.9200944 L35.2518299,39.3892853 L36.9833367,39.3892853 L36.1164765,41.1385406 L34.0558018,42.5786379 L35.2518299,87.6451051 C35.2518299,87.6451051 36.1160337,89.3948131 37.5256778,90.2174995 C37.2004945,90.5264313 37.5256778,92.275234 37.5256778,92.275234 L42.4054191,94.4359457 L42.4054191,105.136527 L45.9837633,106.165621 L45.9837633,111.721413 L50.5381,113.368144 L50.5381,115.425878 L56.8274854,115.425878 L56.8274854,119.438596 L28.8508772,119.438596 L28.8508772,31.1578947 Z" id="Fill-394" fill="#CBEDE0"></path>
                        <path d="M28.8508772,31.1578947 L31.9955699,31.672102 L35.2518299,36.9200944 L35.2518299,39.3892853 L36.9833367,39.3892853 L36.1164765,41.1385406 L34.0558018,42.5786379 L35.2518299,87.6451051 C35.2518299,87.6451051 36.1160337,89.3948131 37.5256778,90.2174995 C37.2004945,90.5264313 37.5256778,92.275234 37.5256778,92.275234 L42.4054191,94.4359457 L42.4054191,105.136527 L45.9837633,106.165621 L45.9837633,111.721413 L50.5381,113.368144 L50.5381,115.425878 L56.8274854,115.425878 L56.8274854,119.438596 L28.8508772,119.438596 L28.8508772,31.1578947 Z" id="Stroke-395" stroke="#37383A" stroke-width="1.4" stroke-linecap="round" stroke-linejoin="round"></path>
                        <path d="M37.7794683,90.0116959 L26.4108423,90.0116959 L19.9222861,90.0116959 C19.5420775,90.0116959 19.2339181,90.3584973 19.2339181,90.7863825 L19.2339181,91.8335005 C19.2339181,92.2613858 19.5420775,92.6081871 19.9222861,92.6081871 L37.7794683,92.6081871 C38.1596769,92.6081871 38.4678363,92.2613858 38.4678363,91.8335005 L38.4678363,90.7863825 C38.4678363,90.3584973 38.1596769,90.0116959 37.7794683,90.0116959" id="Path" fill="#37383A"></path>
                        <polyline id="Path" fill="#FFFFFF" points="37.7794683 90.7863825 37.7794683 91.8335005 19.9222861 91.8335005 19.9222861 90.7863825 26.4108423 90.7863825 37.7794683 90.7863825"></polyline>
                        <path d="M24.2361208,90.0116959 C23.8067519,90.0116959 23.671527,89.8127356 23.6289252,89.6943441 C23.5008804,89.3358127 23.9247446,89.037708 24.1281802,88.8944744 C24.2397108,88.815696 24.3505234,88.7436316 24.4599,88.6724625 C24.8765841,88.4014378 25.2365455,88.1671167 25.5462464,87.5879162 C25.6472462,87.3985794 25.7422626,87.256241 25.8186108,87.1421018 C26.0311412,86.8234073 26.0349706,86.8175884 25.5732914,86.2005652 C24.8404443,85.2223251 24.4201702,84.0393057 24.4201702,82.9558784 C24.4201702,82.614356 24.4048527,82.3178178 24.3912106,82.0561928 C24.3675163,81.5978456 24.3502841,81.266618 24.4385991,81.0184212 C24.551087,80.7024123 25.4746849,79.0635075 25.6587343,78.7380988 C25.6685471,78.720866 25.6800352,78.7043046 25.6931987,78.6884147 L26.8142488,77.3458242 L26.8142488,76.2406881 C26.8142488,76.2288266 26.8149668,76.216965 26.8161635,76.2055511 C26.8408151,75.9868962 27.0940327,74.069805 28.3964995,74.069805 C28.4352719,74.069805 28.4742837,74.0713716 28.5147315,74.0751763 C29.3837607,74.1566403 29.8921105,74.7094322 30.0634751,75.158156 C30.1027263,75.2613289 30.1268992,75.3627114 30.1362333,75.4598416 C30.2185649,75.4314187 30.3042472,75.4003102 30.3875362,75.3692016 L32.0248341,72.0318606 C32.0834715,71.9125739 32.2110376,71.8362573 32.3512885,71.8362573 L32.359426,71.8362573 C32.5027883,71.8393905 32.6303544,71.9217498 32.6839657,72.0461839 C32.7059846,72.0965395 34.7898836,77.0694283 30.5033748,80.1502918 C30.8712343,81.7048231 33.1451662,85.1858453 33.1690998,85.2223251 C33.2205571,85.3004321 33.2353959,85.3948767 33.2102656,85.4837262 L32.6339444,87.5183136 C32.5922999,87.6657994 32.449895,87.7685247 32.2869071,87.7685247 L31.5059536,87.7685247 L31.9724196,88.2156818 C32.0379976,88.2783465 32.0743767,88.3624962 32.0743767,88.4497791 L32.0743767,89.1623659 C32.0743767,89.3035852 31.9800783,89.4298097 31.838152,89.4779272 L30.3423017,89.9864062 C30.3030505,89.9996106 30.2614061,90.0065485 30.2195223,90.0065485 L24.3615329,90.0065485 C24.3352059,90.0085627 24.2894927,90.0116959 24.2361208,90.0116959" id="Fill-398" stroke="#37383A" stroke-width="1.5" fill="#FEFEFE"></path>
                        <path d="M16.6111111,106.451427 C16.9201005,106.030281 17.0231724,104.871549 17.5378527,104.239366 C18.052986,103.607878 18.5620029,103.502475 18.256185,102.449146 C17.9501405,101.39628 17.5247138,101.290877 17.4800871,100.553755 C17.4352338,99.816633 17.0095805,98.8684744 17.4800871,98.3421571 C17.9501405,97.8156082 18.5409355,96.7622788 18.3483834,96.3409007 C18.1556049,95.9197542 18.3067016,95.3936686 18.3857612,94.9718272 C18.4648208,94.5506808 19.3915624,93.6027538 19.3915624,93.4978146 C19.3915624,93.3924122 20.1126131,93.2870097 20.3185305,93.4978146 C20.5246744,93.7086195 21.7604053,94.0243635 21.7604053,94.0243635 L22.4318456,93.3761964 C22.4318456,93.3761964 22.1729197,92.7602292 23.2025067,92.6548267 C24.2323203,92.5498876 24.3351657,92.6548267 24.9529179,92.6548267 C25.5708966,92.6548267 26.8908974,92.8658633 26.6428451,93.1816073 C26.3945662,93.4978146 25.879886,94.0243635 26.7040087,94.1295343 C27.5279048,94.2349367 28.5574918,94.4452783 28.6605638,94.1295343 C28.7636357,93.8135586 28.145657,93.4973513 28.6605638,93.2870097 C29.1754705,93.0766682 29.7678512,93.0766682 29.7678512,93.0766682 L30.8540711,93.2870097 C30.8540711,93.2870097 30.411428,93.7086195 30.411428,94.0243635 C30.411428,94.3403392 30.8540711,94.8664248 30.8540711,94.8664248 L31.7500044,94.8664248 C32.3682096,94.8664248 32.673801,94.9718272 32.9843761,94.8664248 C33.2947247,94.7614856 32.1591208,94.2349367 32.9843761,93.8135586 C33.8100845,93.3924122 35.0455889,93.3924122 35.0455889,93.3924122 L35.0455889,94.2349367 C35.0455889,94.2349367 35.1488874,94.8668881 35.5604957,94.9718272 C35.972557,95.0772297 36.8997517,95.3932053 36.8997517,95.3932053 L36.8997517,94.2349367 L37.560998,93.0467848 C37.560998,93.0467848 38.4442454,93.6027538 38.5470909,93.9184978 C38.6503894,94.2349367 38.9908666,94.4452783 38.5470909,95.0772297 C38.1033151,95.7094127 38.1033151,96.4465348 38.1033151,96.4465348 C38.1033151,96.4465348 38.8882477,97.6048034 38.7693186,98.3421571 C38.6503894,99.0792793 38.1350295,98.2367547 38.5470909,100.76456 C38.9591522,103.291902 39.6802029,103.923622 39.6802029,103.923622 C39.6802029,103.923622 40.0419742,104.797188 40.176081,104.835642 C40.3101878,104.87456 40.0918112,106.556366 39.7828218,106.451427 C39.474059,106.346025 16.6111111,106.451427 16.6111111,106.451427" id="Fill-400" fill="#FEFEFE"></path>
                        <path d="M16.6111111,106.451427 C16.9201005,106.030281 17.0231724,104.871549 17.5378527,104.239366 C18.052986,103.607878 18.5620029,103.502475 18.256185,102.449146 C17.9501405,101.39628 17.5247138,101.290877 17.4800871,100.553755 C17.4352338,99.816633 17.0095805,98.8684744 17.4800871,98.3421571 C17.9501405,97.8156082 18.5409355,96.7622788 18.3483834,96.3409007 C18.1556049,95.9197542 18.3067016,95.3936686 18.3857612,94.9718272 C18.4648208,94.5506808 19.3915624,93.6027538 19.3915624,93.4978146 C19.3915624,93.3924122 20.1126131,93.2870097 20.3185305,93.4978146 C20.5246744,93.7086195 21.7604053,94.0243635 21.7604053,94.0243635 L22.4318456,93.3761964 C22.4318456,93.3761964 22.1729197,92.7602292 23.2025067,92.6548267 C24.2323203,92.5498876 24.3351657,92.6548267 24.9529179,92.6548267 C25.5708966,92.6548267 26.8908974,92.8658633 26.6428451,93.1816073 C26.3945662,93.4978146 25.879886,94.0243635 26.7040087,94.1295343 C27.5279048,94.2349367 28.5574918,94.4452783 28.6605638,94.1295343 C28.7636357,93.8135586 28.145657,93.4973513 28.6605638,93.2870097 C29.1754705,93.0766682 29.7678512,93.0766682 29.7678512,93.0766682 L30.8540711,93.2870097 C30.8540711,93.2870097 30.411428,93.7086195 30.411428,94.0243635 C30.411428,94.3403392 30.8540711,94.8664248 30.8540711,94.8664248 L31.7500044,94.8664248 C32.3682096,94.8664248 32.673801,94.9718272 32.9843761,94.8664248 C33.2947247,94.7614856 32.1591208,94.2349367 32.9843761,93.8135586 C33.8100845,93.3924122 35.0455889,93.3924122 35.0455889,93.3924122 L35.0455889,94.2349367 C35.0455889,94.2349367 35.1488874,94.8668881 35.5604957,94.9718272 C35.972557,95.0772297 36.8997517,95.3932053 36.8997517,95.3932053 L36.8997517,94.2349367 L37.560998,93.0467848 C37.560998,93.0467848 38.4442454,93.6027538 38.5470909,93.9184978 C38.6503894,94.2349367 38.9908666,94.4452783 38.5470909,95.0772297 C38.1033151,95.7094127 38.1033151,96.4465348 38.1033151,96.4465348 C38.1033151,96.4465348 38.8882477,97.6048034 38.7693186,98.3421571 C38.6503894,99.0792793 38.1350295,98.2367547 38.5470909,100.76456 C38.9591522,103.291902 39.6802029,103.923622 39.6802029,103.923622 C39.6802029,103.923622 40.0419742,104.797188 40.176081,104.835642 C40.3101878,104.87456 40.0918112,106.556366 39.7828218,106.451427 C39.474059,106.346025 16.6111111,106.451427 16.6111111,106.451427 Z" id="Stroke-401" stroke="#37383A" stroke-width="1.3" stroke-linecap="round" stroke-linejoin="round"></path>
                        <rect id="Rectangle-3" stroke="#37383A" stroke-width="1.4" fill="#FFFFFF" x="11.3654971" y="106.45614" width="34.0964912" height="5.19298246"></rect>
                        <g id="Group-26" transform="translate(20.982456, 96.935673)">
                            <path d="M1.30803724,0.00338907827 C1.0750431,-0.0617824915 1.41383437,0.823558626 1.30803724,1.74633393 C1.20224011,2.66888373 1.03801411,2.4632212 1.33833369,3.48905328 C1.63913416,4.51398333 1.09283626,8.99097702 0,9.52046784 L3.49707602,9.52046784 C3.49707602,9.52046784 2.51364362,8.00009855 2.51364362,7.28208375 C2.51364362,6.56429445 2.29483592,6.15409692 2.51364362,5.33415288 C2.73197042,4.51398333 2.73197042,3.24234845 2.51364362,2.80193296 C2.29483592,2.36106646 2.51364362,0.338492721 1.30803724,0.00338907827" id="Fill-402" fill="#FEFEFE"></path>
                            <path d="M1.30803724,0.00338907827 C1.0750431,-0.0617824915 1.41383437,0.823558626 1.30803724,1.74633393 C1.20224011,2.66888373 1.03801411,2.4632212 1.33833369,3.48905328 C1.63913416,4.51398333 1.09283626,8.99097702 0,9.52046784 L3.49707602,9.52046784 C3.49707602,9.52046784 2.51364362,8.00009855 2.51364362,7.28208375 C2.51364362,6.56429445 2.29483592,6.15409692 2.51364362,5.33415288 C2.73197042,4.51398333 2.73197042,3.24234845 2.51364362,2.80193296 C2.29483592,2.36106646 2.51364362,0.338492721 1.30803724,0.00338907827 Z" id="Stroke-403" stroke="#37383A" stroke-linecap="round" stroke-linejoin="round"></path>
                            <path d="M13.5478033,0.00338907827 C13.3148092,-0.0617824915 13.6536004,0.823558626 13.5478033,1.74633393 C13.4420062,2.66888373 13.2777802,2.4632212 13.5780998,3.48905328 C13.8789002,4.51398333 13.3326023,8.99097702 12.2397661,9.52046784 L15.7368421,9.52046784 C15.7368421,9.52046784 14.7534097,8.00009855 14.7534097,7.28208375 C14.7534097,6.56429445 14.534602,6.15409692 14.7534097,5.33415288 C14.9717365,4.51398333 14.9717365,3.24234845 14.7534097,2.80193296 C14.534602,2.36106646 14.7534097,0.338492721 13.5478033,0.00338907827" id="Fill-402-Copy" fill="#FEFEFE"></path>
                            <path d="M13.5478033,0.00338907827 C13.3148092,-0.0617824915 13.6536004,0.823558626 13.5478033,1.74633393 C13.4420062,2.66888373 13.2777802,2.4632212 13.5780998,3.48905328 C13.8789002,4.51398333 13.3326023,8.99097702 12.2397661,9.52046784 L15.7368421,9.52046784 C15.7368421,9.52046784 14.7534097,8.00009855 14.7534097,7.28208375 C14.7534097,6.56429445 14.534602,6.15409692 14.7534097,5.33415288 C14.9717365,4.51398333 14.9717365,3.24234845 14.7534097,2.80193296 C14.534602,2.36106646 14.7534097,0.338492721 13.5478033,0.00338907827 Z" id="Stroke-403-Copy" stroke="#37383A" stroke-linecap="round" stroke-linejoin="round"></path>
                            <path d="M6.11988304,9.52046784 C6.11988304,9.52046784 7.10099819,8.7836031 6.84796887,8.10713363 C6.59475391,7.43045149 6.66808229,6.75334404 6.50453216,6.46348931 C6.34153895,6.17363458 6.24611924,5.88314188 6.50453216,5.59328715 C6.76368765,5.30343242 7.81070552,2.59649123 7.81070552,2.59649123 C7.81070552,2.59649123 8.28279177,3.95028081 8.28279177,4.62675029 C8.28279177,5.30343242 8.45172551,6.42903849 8.70475483,6.83309131 C8.95796979,7.23693146 7.86064308,9.51430071 7.86064308,9.51430071 L6.11988304,9.52046784 Z" id="Fill-404" fill="#FEFEFE"></path>
                            <path d="M6.11988304,9.52046784 C6.11988304,9.52046784 7.10099819,8.7836031 6.84796887,8.10713363 C6.59475391,7.43045149 6.66808229,6.75334404 6.50453216,6.46348931 C6.34153895,6.17363458 6.24611924,5.88314188 6.50453216,5.59328715 C6.76368765,5.30343242 7.81070552,2.59649123 7.81070552,2.59649123 C7.81070552,2.59649123 8.28279177,3.95028081 8.28279177,4.62675029 C8.28279177,5.30343242 8.45172551,6.42903849 8.70475483,6.83309131 C8.95796979,7.23693146 7.86064308,9.51430071 7.86064308,9.51430071 L6.11988304,9.52046784 Z" id="Stroke-405" stroke="#37383A" stroke-linecap="round" stroke-linejoin="round"></path>
                        </g>
                        <path d="M21.3141351,41.5438596 C21.1308272,41.5438596 20.9824561,41.3559759 20.9824561,41.1238514 L20.9824561,40.2328738 C20.9824561,40.0010292 21.1308272,39.8128655 21.3141351,39.8128655 L36.3876192,39.8128655 C36.5709272,39.8128655 36.7192982,40.0010292 36.7192982,40.2328738 L36.7192982,41.1238514 C36.7192982,41.3559759 36.5709272,41.5438596 36.3876192,41.5438596 L21.3141351,41.5438596 Z" id="Fill-408" fill="#FEFEFE"></path>
                        <path d="M36.0474093,39.8128655 L20.7800761,39.8128655 C20.4089694,39.8128655 20.1081871,40.0660484 20.1081871,40.3784266 L20.1081871,40.9782985 C20.1081871,41.2904883 20.4089694,41.5438596 20.7800761,41.5438596 L36.0474093,41.5438596 C36.4185159,41.5438596 36.7192982,41.2904883 36.7192982,40.9782985 L36.7192982,40.3784266 C36.7192982,40.0660484 36.4185159,39.8128655 36.0474093,39.8128655 Z M20.7800761,40.9782985 L36.0474093,40.9782985 L36.0474093,40.3784266 L20.7800761,40.3784266 L20.7800761,40.9782985 Z" id="Fill-409" fill="#231F20"></path>
                    </g>
                    <g id="main-building" transform="translate(102.289474, 26.830409)">
                        <g id="Group-17" transform="translate(103.163743, 105.590643)"></g>
                        <polygon id="Fill-418" fill="#FEFEFE" points="60.3245614 20.7719298 67.3187135 20.7719298 67.3187135 13.8479532 60.3245614 13.8479532"></polygon>
                        <polygon id="Stroke-419" stroke="#231F20" stroke-width="1.4" stroke-linecap="round" stroke-linejoin="round" points="60.3245614 20.7719298 67.3187135 20.7719298 67.3187135 13.8479532 60.3245614 13.8479532"></polygon>
                        <g id="Group-23" transform="translate(14.862573, 96.935673)">
                            <polygon id="Fill-416" fill="#FEFEFE" points="0 22.502924 99.92895 22.502924 99.92895 0 0 0"></polygon>
                            <polygon id="Stroke-417" stroke="#231F20" stroke-width="1.4" stroke-linecap="round" stroke-linejoin="round" points="0 22.502924 99.92895 22.502924 99.92895 0 0 0"></polygon>
                        </g>
                        <polygon id="Fill-420" fill="#FEFEFE" points="22.7309942 119.438596 107.535088 119.438596 107.535088 105.590643 22.7309942 105.590643"></polygon>
                        <polygon id="Stroke-421" stroke="#37383A" stroke-width="1.4" stroke-linecap="round" stroke-linejoin="round" points="22.7309942 119.438596 107.535088 119.438596 107.535088 105.590643 22.7309942 105.590643"></polygon>
                        <path d="M64.6959064,19.9064327 C52.6247527,19.9064327 42.8391813,32.3062317 42.8391813,47.6023392 L86.5526316,47.6023392 C86.5526316,32.3062317 76.7670602,19.9064327 64.6959064,19.9064327" id="Fill-422" fill="#5CC69D"></path>
                        <path d="M64.6959064,19.9064327 C52.6247527,19.9064327 42.8391813,32.3062317 42.8391813,47.6023392 L86.5526316,47.6023392 C86.5526316,32.3062317 76.7670602,19.9064327 64.6959064,19.9064327 Z" id="Stroke-423" stroke="#37383A" stroke-width="1.4" stroke-linecap="round" stroke-linejoin="round"></path>
                        <path d="M64.6957952,19.9064327 C58.9016387,19.9064327 54.2046784,32.3062317 54.2046784,47.6023392 L75.1871345,47.6023392 C75.1871345,32.3062317 70.4906191,19.9064327 64.6957952,19.9064327" id="Fill-424" fill="#5CC69D"></path>
                        <path d="M64.6957952,19.9064327 C58.9016387,19.9064327 54.2046784,32.3062317 54.2046784,47.6023392 L75.1871345,47.6023392 C75.1871345,32.3062317 70.4906191,19.9064327 64.6957952,19.9064327 Z" id="Stroke-425" stroke="#37383A" stroke-width="1.4" stroke-linecap="round" stroke-linejoin="round"></path>
                        <polygon id="Fill-426" fill="#ECE4DD" points="27.1023392 96.9356725 101.415205 96.9356725 101.415205 70.1052632 27.1023392 70.1052632"></polygon>
                        <polygon id="Stroke-427" stroke="#37383A" stroke-width="1.4" stroke-linecap="round" stroke-linejoin="round" points="27.1023392 96.9356725 101.415205 96.9356725 101.415205 70.1052632 27.1023392 70.1052632"></polygon>
                        <polygon id="Fill-428" fill="#FEFEFE" points="29.7251462 96.9356725 99.6666667 96.9356725 99.6666667 80.4912281 29.7251462 80.4912281"></polygon>
                        <polygon id="Stroke-429" stroke="#37383A" stroke-width="1.4" stroke-linecap="round" stroke-linejoin="round" points="29.7251462 96.9356725 99.6666667 96.9356725 99.6666667 80.4912281 29.7251462 80.4912281"></polygon>
                        <polygon id="Fill-430" fill="#FEFEFE" points="86.5526316 57.9883041 42.8391813 57.9883041 42.8391813 46.3034978 53.9701309 42.4093567 75.4301565 42.4093567 86.5526316 46.3034978"></polygon>
                        <polygon id="Stroke-431" stroke="#37383A" stroke-width="1.4" stroke-linecap="round" stroke-linejoin="round" points="86.5526316 57.9883041 42.8391813 57.9883041 42.8391813 46.3034978 53.9701309 42.4093567 75.4301565 42.4093567 86.5526316 46.3034978"></polygon>
                        <path d="M75.1871345,45.871345 L85.6783626,50.1988304" id="Fill-432" fill="#FEFEFE"></path>
                        <path d="M75.1871345,45.871345 L85.6783626,50.1988304" id="Stroke-433" stroke="#37383A" stroke-width="1.4" stroke-linecap="round" stroke-linejoin="round"></path>
                        <path d="M42.8391813,50.1988304 L53.3304094,45.871345" id="Fill-435" fill="#FEFEFE"></path>
                        <path d="M42.8391813,50.1988304 L53.3304094,45.871345" id="Stroke-436" stroke="#37383A" stroke-width="1.4" stroke-linecap="round" stroke-linejoin="round"></path>
                        <polygon id="Fill-438" fill="#FEFEFE" points="27.0012435 70.1052632 25.3538012 68.374269 63.8216374 68.374269 63.8216374 70.1052632"></polygon>
                        <polygon id="Stroke-439" stroke="#37383A" stroke-width="1.4" stroke-linecap="round" stroke-linejoin="round" points="27.0012435 70.1052632 25.3538012 68.374269 63.8216374 68.374269 63.8216374 70.1052632"></polygon>
                        <polygon id="Fill-440" fill="#FEFEFE" points="27.0012435 66.6432749 25.3538012 68.374269 63.8216374 68.374269 63.8216374 66.6432749"></polygon>
                        <polygon id="Stroke-441" stroke="#37383A" stroke-width="1.4" stroke-linecap="round" stroke-linejoin="round" points="27.0012435 66.6432749 25.3538012 68.374269 63.8216374 68.374269 63.8216374 66.6432749"></polygon>
                        <polygon id="Fill-442" fill="#FEFEFE" points="101.516519 70.1052632 103.163743 68.374269 64.6959064 68.374269 64.6959064 70.1052632"></polygon>
                        <polygon id="Stroke-443" stroke="#37383A" stroke-width="1.4" stroke-linecap="round" stroke-linejoin="round" points="101.516519 70.1052632 103.163743 68.374269 64.6959064 68.374269 64.6959064 70.1052632"></polygon>
                        <polygon id="Fill-444" fill="#FEFEFE" points="101.516519 66.6432749 103.163743 68.374269 64.6959064 68.374269 64.6959064 66.6432749"></polygon>
                        <polygon id="Stroke-445" stroke="#37383A" stroke-width="1.4" stroke-linecap="round" stroke-linejoin="round" points="101.516519 66.6432749 103.163743 68.374269 64.6959064 68.374269 64.6959064 66.6432749"></polygon>
                        <polygon id="Fill-446" fill="#FEFEFE" points="54.2046784 55.3918129 75.1871345 55.3918129 75.1871345 42.4093567 54.2046784 42.4093567"></polygon>
                        <polygon id="Stroke-447" stroke="#37383A" stroke-width="1.4" stroke-linecap="round" stroke-linejoin="round" points="54.2046784 55.3918129 75.1871345 55.3918129 75.1871345 42.4093567 54.2046784 42.4093567"></polygon>
                        <path d="M54.2046784,45.871345 L75.1871345,45.871345" id="Fill-451" fill="#FEFEFE"></path>
                        <path d="M54.2046784,45.871345 L75.1871345,45.871345" id="Stroke-452" stroke="#37383A" stroke-width="1.4" stroke-linecap="round" stroke-linejoin="round"></path>
                        <polygon id="Fill-454" fill="#FEFEFE" points="34.9707602 119.438596 93.5467836 119.438596 93.5467836 96.9356725 34.9707602 96.9356725"></polygon>
                        <polygon id="Stroke-455" stroke="#37383A" stroke-width="1.4" stroke-linecap="round" stroke-linejoin="round" points="34.9707602 119.438596 93.5467836 119.438596 93.5467836 96.9356725 34.9707602 96.9356725"></polygon>
                        <polygon id="Fill-456" fill="#FFFFFF" points="38.4678363 96.9356725 90.0497076 96.9356725 90.0497076 59.7192982 38.4678363 59.7192982"></polygon>
                        <polygon id="Stroke-457" stroke="#37383A" stroke-width="1.4" stroke-linecap="round" stroke-linejoin="round" points="38.4678363 96.9356725 90.0497076 96.9356725 90.0497076 59.7192982 38.4678363 59.7192982"></polygon>
                        <polygon id="Fill-458" fill="#FEFEFE" points="38.4678363 75.2982456 90.0497076 75.2982456 90.0497076 73.5672515 38.4678363 73.5672515"></polygon>
                        <polygon id="Stroke-459" stroke="#37383A" stroke-width="1.4" stroke-linecap="round" stroke-linejoin="round" points="38.4678363 75.2982456 90.0497076 75.2982456 90.0497076 73.5672515 38.4678363 73.5672515"></polygon>
                        <polygon id="Fill-462" fill="#FEFEFE" points="48.9590643 97.8011696 80.4327485 97.8011696 80.4327485 57.122807 48.9590643 57.122807"></polygon>
                        <polygon id="Stroke-463" stroke="#37383A" stroke-width="1.4" stroke-linecap="round" stroke-linejoin="round" points="48.9590643 97.8011696 80.4327485 97.8011696 80.4327485 57.122807 48.9590643 57.122807"></polygon>
                        <path d="M67.3187135,108.769778 C67.3187135,107.013853 65.9488152,105.590643 64.2586643,105.590643 C62.5687286,105.590643 61.1988304,107.013853 61.1988304,108.769778 L61.1988304,119.438596 L67.3187135,119.438596 L67.3187135,108.769778 Z" id="Fill-464" fill="#FEFEFE"></path>
                        <path d="M67.3187135,108.769778 C67.3187135,107.013853 65.9488152,105.590643 64.2586643,105.590643 C62.5687286,105.590643 61.1988304,107.013853 61.1988304,108.769778 L61.1988304,119.438596 L67.3187135,119.438596 L67.3187135,108.769778 Z" id="Stroke-465" stroke="#37383A" stroke-width="1.4" stroke-linecap="round" stroke-linejoin="round"></path>
                        <path d="M56.8274854,107.913453 C56.8274854,106.152237 55.4578024,104.725146 53.7676515,104.725146 C52.0775005,104.725146 50.7076023,106.152237 50.7076023,107.913453 L50.7076023,115.976608 L56.8274854,115.976608 L56.8274854,107.913453 Z" id="Fill-466" fill="#5CC69D"></path>
                        <path d="M56.8274854,107.913453 C56.8274854,106.152237 55.4578024,104.725146 53.7676515,104.725146 C52.0775005,104.725146 50.7076023,106.152237 50.7076023,107.913453 L50.7076023,115.976608 L56.8274854,115.976608 L56.8274854,107.913453 Z" id="Stroke-467" stroke="#37383A" stroke-width="1.4" stroke-linecap="round" stroke-linejoin="round"></path>
                        <path d="M44.5877193,107.913453 C44.5877193,106.152237 43.2172236,104.725146 41.5275626,104.725146 C39.8374711,104.725146 38.4678363,106.152237 38.4678363,107.913453 L38.4678363,115.976608 L44.5877193,115.976608 L44.5877193,107.913453 Z" id="Fill-468" fill="#5CC69D"></path>
                        <path d="M44.5877193,107.913453 C44.5877193,106.152237 43.2172236,104.725146 41.5275626,104.725146 C39.8374711,104.725146 38.4678363,106.152237 38.4678363,107.913453 L38.4678363,115.976608 L44.5877193,115.976608 L44.5877193,107.913453 Z" id="Stroke-469" stroke="#37383A" stroke-width="1.4" stroke-linecap="round" stroke-linejoin="round"></path>
                        <path d="M90.0497076,107.913453 C90.0497076,106.152237 88.679546,104.725146 86.9895509,104.725146 C85.2995557,104.725146 83.9298246,106.152237 83.9298246,107.913453 L83.9298246,115.976608 L90.0497076,115.976608 L90.0497076,107.913453 Z" id="Fill-470" fill="#5CC69D"></path>
                        <path d="M90.0497076,107.913453 C90.0497076,106.152237 88.679546,104.725146 86.9895509,104.725146 C85.2995557,104.725146 83.9298246,106.152237 83.9298246,107.913453 L83.9298246,115.976608 L90.0497076,115.976608 L90.0497076,107.913453 Z" id="Stroke-471" stroke="#37383A" stroke-width="1.4" stroke-linecap="round" stroke-linejoin="round"></path>
                        <path d="M78.6842105,107.913453 C78.6842105,106.152237 77.3143605,104.725146 75.6246994,104.725146 C73.9343927,104.725146 72.5643275,106.152237 72.5643275,107.913453 L72.5643275,115.976608 L78.6842105,115.976608 L78.6842105,107.913453 Z" id="Fill-472" fill="#5CC69D"></path>
                        <path d="M78.6842105,107.913453 C78.6842105,106.152237 77.3143605,104.725146 75.6246994,104.725146 C73.9343927,104.725146 72.5643275,106.152237 72.5643275,107.913453 L72.5643275,115.976608 L78.6842105,115.976608 L78.6842105,107.913453 Z" id="Stroke-473" stroke="#37383A" stroke-width="1.4" stroke-linecap="round" stroke-linejoin="round"></path>
                        <polygon id="Fill-474" fill="#FEFEFE" points="64.2584327 53.6608187 47.2105263 53.6608187 48.7743594 56.2573099 64.2584327 56.2573099 79.7427321 56.2573099 81.3070175 53.6608187"></polygon>
                        <polygon id="Fill-476" fill="#FEFEFE" points="64.2584327 47.6023392 47.2105263 53.6608187 64.2584327 53.6608187 81.3070175 53.6608187"></polygon>
                        <polygon id="Stroke-477" stroke="#37383A" stroke-width="1.4" stroke-linecap="round" stroke-linejoin="round" points="64.2584327 47.6023392 47.2105263 53.6608187 64.2584327 53.6608187 81.3070175 53.6608187"></polygon>
                        <polygon id="Fill-480" fill="#FEFEFE" points="54.2046784 96.9356725 75.1871345 96.9356725 75.1871345 73.5672515 54.2046784 73.5672515"></polygon>
                        <polygon id="Stroke-481" stroke="#37383A" stroke-width="1.4" stroke-linecap="round" stroke-linejoin="round" points="54.2046784 96.9356725 75.1871345 96.9356725 75.1871345 73.5672515 54.2046784 73.5672515"></polygon>
                        <path d="M75.1871345,72.4705794 C75.1871345,66.8623052 70.4897584,62.3157895 64.6956766,62.3157895 C58.9015947,62.3157895 54.2046784,66.8623052 54.2046784,72.4705794 L54.2046784,72.7017544 L75.1871345,72.7017544 L75.1871345,72.4705794 Z" id="Fill-482" fill="#FEFEFE"></path>
                        <path d="M75.1871345,72.4705794 C75.1871345,66.8623052 70.4897584,62.3157895 64.6956766,62.3157895 C58.9015947,62.3157895 54.2046784,66.8623052 54.2046784,72.4705794 L54.2046784,72.7017544 L75.1871345,72.7017544 L75.1871345,72.4705794 Z" id="Stroke-483" stroke="#37383A" stroke-width="1.4" stroke-linecap="round" stroke-linejoin="round"></path>
                        <path d="M75.1871345,69.0078739 C75.1871345,63.4001745 70.4897904,58.8538012 64.6957944,58.8538012 C58.9020225,58.8538012 54.2046784,63.4001745 54.2046784,69.0078739 L54.2046784,69.2397661 L75.1871345,69.2397661 L75.1871345,69.0078739 Z" id="Fill-484" fill="#FEFEFE"></path>
                        <path d="M75.1871345,69.0078739 C75.1871345,63.4001745 70.4897904,58.8538012 64.6957944,58.8538012 C58.9020225,58.8538012 54.2046784,63.4001745 54.2046784,69.0078739 L54.2046784,69.2397661 L75.1871345,69.2397661 L75.1871345,69.0078739 Z" id="Stroke-485" stroke="#37383A" stroke-width="1.4" stroke-linecap="round" stroke-linejoin="round"></path>
                        <path d="M75.1871345,72.4705794 C75.1871345,66.8623052 70.4897584,62.3157895 64.6956766,62.3157895 C58.9015947,62.3157895 54.2046784,66.8623052 54.2046784,72.4705794 L54.2046784,72.7017544 L75.1871345,72.7017544 L75.1871345,72.4705794 Z" id="Fill-486" fill="#FEFEFE"></path>
                        <path d="M75.1871345,72.4705794 C75.1871345,66.8623052 70.4897584,62.3157895 64.6956766,62.3157895 C58.9015947,62.3157895 54.2046784,66.8623052 54.2046784,72.4705794 L54.2046784,72.7017544 L75.1871345,72.7017544 L75.1871345,72.4705794 Z" id="Stroke-487" stroke="#37383A" stroke-width="1.4" stroke-linecap="round" stroke-linejoin="round"></path>
                        <polygon id="Fill-488" fill="#FEFEFE" points="75.3587107 77.0292398 54.0333248 77.0292398 52.4561404 73.5672515 76.9356725 73.5672515"></polygon>
                        <polygon id="Stroke-489" stroke="#37383A" stroke-width="1.4" stroke-linecap="round" stroke-linejoin="round" points="75.3587107 77.0292398 54.0333248 77.0292398 52.4561404 73.5672515 76.9356725 73.5672515"></polygon>
                        <polygon id="Fill-490" fill="#FEFEFE" points="53.3304094 73.5672515 76.0614035 73.5672515 76.0614035 69.2397661 53.3304094 69.2397661"></polygon>
                        <polygon id="Stroke-491" stroke="#37383A" stroke-width="1.4" stroke-linecap="round" stroke-linejoin="round" points="53.3304094 73.5672515 76.0614035 73.5672515 76.0614035 69.2397661 53.3304094 69.2397661"></polygon>
                        <polygon id="Fill-494" fill="#FEFEFE" points="79.5584795 97.8011696 48.9590643 97.8011696 53.9573194 91.7426901 74.5604502 91.7426901"></polygon>
                        <polygon id="Stroke-495" stroke="#37383A" stroke-width="1.4" stroke-linecap="round" stroke-linejoin="round" points="79.5584795 97.8011696 48.9590643 97.8011696 53.9573194 91.7426901 74.5604502 91.7426901"></polygon>
                        <polygon id="Fill-496" fill="#FEFEFE" points="60.3245614 13.8479532 63.8215289 7.78947368 67.3187135 13.8479532"></polygon>
                        <polygon id="Stroke-497" stroke="#37383A" stroke-width="1.4" stroke-linecap="round" stroke-linejoin="round" points="60.3245614 13.8479532 63.8215289 7.78947368 67.3187135 13.8479532"></polygon>
                        <polygon id="Fill-498" fill="#FEFEFE" points="66.8815789 2.52538084 64.7799916 2.52538084 64.7799916 0 62.8637437 0 62.8637437 2.52538084 60.7616959 2.52538084 60.7616959 4.32736945 62.8637437 4.32736945 62.8637437 8.65497076 64.7799916 8.65497076 64.7799916 4.32736945 66.8815789 4.32736945"></polygon>
                        <polygon id="Stroke-499" stroke="#37383A" stroke-width="1.4" stroke-linecap="round" stroke-linejoin="round" points="66.8815789 2.52538084 64.7799916 2.52538084 64.7799916 0 62.8637437 0 62.8637437 2.52538084 60.7616959 2.52538084 60.7616959 4.32736945 62.8637437 4.32736945 62.8637437 8.65497076 64.7799916 8.65497076 64.7799916 4.32736945 66.8815789 4.32736945"></polygon>
                        <g id="Group-12" transform="translate(56.827485, 77.029240)">
                            <polygon id="Fill-500" fill="#37383A" points="0 14.7134503 1.74853801 14.7134503 1.74853801 0 0 0"></polygon>
                            <polygon id="Stroke-501" stroke="#37383A" stroke-width="1.4" stroke-linecap="round" stroke-linejoin="round" points="0 14.7134503 1.74853801 14.7134503 1.74853801 0 0 0"></polygon>
                        </g>
                        <g id="Group-13" transform="translate(61.490253, 77.029240)">
                            <polygon id="Fill-502" fill="#37383A" points="0 14.7134503 1.74853801 14.7134503 1.74853801 0 0 0"></polygon>
                            <polygon id="Stroke-503" stroke="#37383A" stroke-width="1.4" stroke-linecap="round" stroke-linejoin="round" points="0 14.7134503 1.74853801 14.7134503 1.74853801 0 0 0"></polygon>
                        </g>
                        <g id="Group-19" transform="translate(66.153021, 77.029240)">
                            <polygon id="Fill-504" fill="#37383A" points="0 14.7134503 1.74853801 14.7134503 1.74853801 0 0 0"></polygon>
                            <polygon id="Stroke-505" stroke="#37383A" stroke-width="1.4" stroke-linecap="round" stroke-linejoin="round" points="0 14.7134503 1.74853801 14.7134503 1.74853801 0 0 0"></polygon>
                        </g>
                        <g id="Group-27" transform="translate(70.815789, 77.029240)">
                            <polygon id="Fill-506" fill="#37383A" points="0 14.7134503 1.74853801 14.7134503 1.74853801 0 0 0"></polygon>
                            <polygon id="Stroke-507" stroke="#37383A" stroke-width="1.4" stroke-linecap="round" stroke-linejoin="round" points="0 14.7134503 1.74853801 14.7134503 1.74853801 0 0 0"></polygon>
                        </g>
                        <polygon id="Stroke-509" stroke="#37383A" stroke-linecap="round" stroke-linejoin="round" points="42.8391813 83.9532164 44.5877193 83.9532164 44.5877193 80.4912281 42.8391813 80.4912281"></polygon>
                        <polygon id="Stroke-511" stroke="#37383A" fill="#ECE4DD" stroke-linecap="round" stroke-linejoin="round" points="42.8391813 91.7426901 44.5877193 91.7426901 44.5877193 88.2807018 42.8391813 88.2807018"></polygon>
                        <polygon id="Stroke-513" stroke="#37383A" fill="#ECE4DD" stroke-linecap="round" stroke-linejoin="round" points="84.3669591 83.9532164 86.1154971 83.9532164 86.1154971 80.4912281 84.3669591 80.4912281"></polygon>
                        <polygon id="Stroke-515" stroke="#37383A" fill="#ECE4DD" stroke-linecap="round" stroke-linejoin="round" points="84.3669591 91.7426901 86.1154971 91.7426901 86.1154971 88.2807018 84.3669591 88.2807018"></polygon>
                        <polygon id="Stroke-517" stroke="#37383A" fill="#ECE4DD" stroke-linecap="round" stroke-linejoin="round" points="42.8391813 67.5087719 44.5877193 67.5087719 44.5877193 64.9122807 42.8391813 64.9122807"></polygon>
                        <polygon id="Stroke-519" stroke="#37383A" fill="#ECE4DD" stroke-linecap="round" stroke-linejoin="round" points="84.3669591 67.5087719 86.1154971 67.5087719 86.1154971 64.9122807 84.3669591 64.9122807"></polygon>
                        <polygon id="Fill-520" fill="#FEFEFE" points="49.2716857 55.9020614 49.2716857 54.5816409 43.7135656 46.7368421 38.1545229 54.5816409 38.1545229 55.9020614 37.5935673 56.6790833 37.5935673 57.7661053 38.7168625 58.8538012 43.7135656 58.8538012 48.7098075 58.8538012 49.8333333 57.7661053 49.8333333 56.6790833"></polygon>
                        <polygon id="Stroke-521" stroke="#37383A" stroke-width="1.4" stroke-linecap="round" stroke-linejoin="round" points="49.2716857 55.9020614 49.2716857 54.5816409 43.7135656 46.7368421 38.1545229 54.5816409 38.1545229 55.9020614 37.5935673 56.6790833 37.5935673 57.7661053 38.7168625 58.8538012 43.7135656 58.8538012 48.7098075 58.8538012 49.8333333 57.7661053 49.8333333 56.6790833"></polygon>
                        <polygon id="Fill-522" fill="#FEFEFE" points="90.7994741 55.9020614 90.7994741 54.5816409 85.2412281 46.7368421 79.6832127 54.5816409 79.6832127 55.9020614 79.121345 56.6790833 79.121345 57.7661053 80.2443884 58.8538012 85.2412281 58.8538012 90.2373758 58.8538012 91.3611111 57.7661053 91.3611111 56.6790833"></polygon>
                        <polygon id="Stroke-523" stroke="#37383A" stroke-width="1.4" stroke-linecap="round" stroke-linejoin="round" points="90.7994741 55.9020614 90.7994741 54.5816409 85.2412281 46.7368421 79.6832127 54.5816409 79.6832127 55.9020614 79.121345 56.6790833 79.121345 57.7661053 80.2443884 58.8538012 85.2412281 58.8538012 90.2373758 58.8538012 91.3611111 57.7661053 91.3611111 56.6790833"></polygon>
                        <polygon id="Fill-524" fill="#FEFEFE" points="27.9766082 119.438596 32.3479532 119.438596 32.3479532 112.51462 27.9766082 112.51462"></polygon>
                        <polygon id="Stroke-525" stroke="#37383A" stroke-width="1.4" stroke-linecap="round" stroke-linejoin="round" points="27.9766082 119.438596 32.3479532 119.438596 32.3479532 112.51462 27.9766082 112.51462"></polygon>
                        <polygon id="Fill-526" fill="#FEFEFE" points="97.0438596 119.438596 101.415205 119.438596 101.415205 112.51462 97.0438596 112.51462"></polygon>
                        <polygon id="Stroke-527" stroke="#37383A" stroke-width="1.4" stroke-linecap="round" stroke-linejoin="round" points="97.0438596 119.438596 101.415205 119.438596 101.415205 112.51462 97.0438596 112.51462"></polygon>
                        <path d="M52.0187266,57.9883041 C51.5311798,57.9883041 50.189697,60.1848707 50.9215033,61.063077 C51.6535041,61.9419839 50.5560864,64.0467836 52.0187266,64.0467836 C53.4819503,64.0467836 52.3845325,61.9419839 53.1165333,61.063077 C53.8483396,60.1848707 52.5066623,57.9883041 52.0187266,57.9883041" id="Fill-528" fill="#FEFEFE"></path>
                        <path d="M52.0187266,58.8538012 C51.5311798,58.8538012 50.189697,61.0503678 50.9215033,61.9285741 C51.6535041,62.8074809 50.5560864,64.9122807 52.0187266,64.9122807 C53.4819503,64.9122807 52.3845325,62.8074809 53.1165333,61.9285741 C53.8483396,61.0503678 52.5066623,58.8538012 52.0187266,58.8538012 Z" id="Stroke-529" stroke="#37383A" stroke-linecap="round" stroke-linejoin="round"></path>
                        <path d="M77.3728275,57.9883041 C76.8849316,57.9883041 75.5437527,60.1848707 76.2751104,61.063077 C77.0074404,61.9419839 75.9099177,64.0467836 77.3728275,64.0467836 C78.8361263,64.0467836 77.7386036,61.9419839 78.4703502,61.063077 C79.2020968,60.1848707 77.8605289,57.9883041 77.3728275,57.9883041" id="Fill-530" fill="#FEFEFE"></path>
                        <path d="M77.3728275,58.8538012 C76.8849316,58.8538012 75.5437527,61.0503678 76.2751104,61.9285741 C77.0074404,62.8074809 75.9099177,64.9122807 77.3728275,64.9122807 C78.8361263,64.9122807 77.7386036,62.8074809 78.4703502,61.9285741 C79.2020968,61.0503678 77.8605289,58.8538012 77.3728275,58.8538012 Z" id="Stroke-531" stroke="#37383A" stroke-linecap="round" stroke-linejoin="round"></path>
                        <path d="M69.5043852,101.263158 C69.0164893,101.263158 67.675116,102.832551 68.4068626,103.459699 C69.1389981,104.086847 68.0416699,105.590643 69.5043852,105.590643 C70.9674895,105.590643 69.8701613,104.086847 70.6021023,103.459699 C71.33346,102.832551 69.9920866,101.263158 69.5043852,101.263158" id="Fill-532" fill="#37383A"></path>
                        <path d="M81.7443342,101.263158 C81.255996,101.263158 79.914865,102.832551 80.6466915,103.459699 C81.3781292,104.086847 80.2804865,105.590643 81.7443342,105.590643 C83.2075984,105.590643 82.1101502,104.086847 82.8417824,103.459699 C83.57322,102.832551 82.2322834,101.263158 81.7443342,101.263158" id="Fill-534" fill="#37383A"></path>
                        <path d="M59.0133325,101.263158 C58.5252283,101.263158 57.1842058,102.832551 57.9153898,103.459699 C58.647546,104.086847 57.5503812,105.590643 59.0133325,105.590643 C60.4762837,105.590643 59.37873,104.086847 60.1108862,103.459699 C60.8422646,102.832551 59.5006588,101.263158 59.0133325,101.263158" id="Fill-536" fill="#37383A"></path>
                        <path d="M47.6478536,101.263158 C47.1593243,101.263158 45.8183971,102.832551 46.5502186,103.459699 C47.2818456,104.086847 46.1840161,105.590643 47.6478536,105.590643 C49.1111076,105.590643 48.0136671,104.086847 48.7450996,103.459699 C49.4769211,102.832551 48.1359939,101.263158 47.6478536,101.263158" id="Fill-538" fill="#37383A"></path>
                        <path d="M15.1255702,105.590643 C15.1255702,105.590643 7.8261069,106.053856 7.8261069,109.293665 C7.8261069,112.53392 15.0100674,110.798213 14.5464924,114.269405 C14.0829174,117.741267 0.874269006,119.438596 0.874269006,119.438596 L24.6269589,119.438596 C24.6269589,119.438596 29.2613686,112.765303 15.1255702,109.062059 L15.1255702,105.590643 Z" id="Fill-540" fill="#ECE4DD"></path>
                        <path d="M14.6884357,105.590643 C14.6884357,105.590643 7.3889724,106.053856 7.3889724,109.293665 C7.3889724,112.53392 14.5729329,110.798213 14.1093579,114.269405 C13.6457829,117.741267 0.437134503,119.438596 0.437134503,119.438596 L24.1898244,119.438596 C24.1898244,119.438596 28.8242341,112.765303 14.6884357,109.062059 L14.6884357,105.590643 Z" id="Stroke-541" stroke="#37383A" stroke-width="1.4" stroke-linecap="round" stroke-linejoin="round"></path>
                        <path d="M114.266027,105.590643 C114.266027,105.590643 121.56571,106.053856 121.56571,109.293665 C121.56571,112.53392 114.382424,110.798213 114.845105,114.269405 C115.30868,117.741267 128.517544,119.438596 128.517544,119.438596 L104.764867,119.438596 C104.764867,119.438596 100.13046,112.765303 114.266027,109.062059 L114.266027,105.590643 Z" id="Fill-542" fill="#ECE4DD"></path>
                        <path d="M114.703162,105.590643 C114.703162,105.590643 122.002844,106.053856 122.002844,109.293665 C122.002844,112.53392 114.819558,110.798213 115.282239,114.269405 C115.745814,117.741267 128.954678,119.438596 128.954678,119.438596 L105.202002,119.438596 C105.202002,119.438596 100.567595,112.765303 114.703162,109.062059 L114.703162,105.590643 Z" id="Stroke-543" stroke="#37383A" stroke-width="1.4" stroke-linecap="round" stroke-linejoin="round"></path>
                    </g>
                </g>
            </g>
        </g>
    </g>
</svg>