<?xml version="1.0" encoding="UTF-8" standalone="no"?>
<svg width="299px" height="170px" viewBox="0 0 299 170" version="1.1" xmlns="http://www.w3.org/2000/svg" xmlns:xlink="http://www.w3.org/1999/xlink">
    <!-- Generator: Sketch 49.1 (51147) - http://www.bohemiancoding.com/sketch -->
    <title>office-san-francisco</title>
    <desc>Created with Sketch.</desc>
    <defs></defs>
    <g id="office-san-francisco" stroke="none" stroke-width="1" fill="none" fill-rule="evenodd">
        <g id="San-Francisco" transform="translate(0.000000, -42.000000)">
            <g id="san-francisco">
                <g id="Group-18" transform="translate(58.396091, 188.559571)" fill="#60C69D">
                    <polygon id="Path" points="0.235016253 5.25992412 4.06598129 0.783355396 5.23950615 0.783355396 8.80010244 0.783355396 0.235016253 10.7907636"></polygon>
                    <polygon id="Path" points="0.235016253 21.1234115 0.235016253 20.4102673 17.033898 0.783355396 17.1099392 0.783355396 21.7675744 0.783355396 4.3585843 21.1234115"></polygon>
                    <polygon id="Path" points="12.5923798 21.1234115 28.5112291 2.52429227 28.5112291 3.85349426 28.5112291 8.05513176 17.3260563 21.1234115"></polygon>
                    <polygon id="Path" points="27.8286369 21.1234115 25.5598518 21.1234115 28.5112291 17.675518 28.5112291 21.1234115"></polygon>
                    <polygon id="Path" points="32.0438102 21.1234115 46.2590695 4.51544744 50.992746 4.51544744 36.7774867 21.1234115"></polygon>
                    <polygon id="Path" points="45.0112822 21.1234115 59.2260968 4.51544744 63.960218 4.51544744 49.7449587 21.1234115"></polygon>
                    <polygon id="Path" points="57.9787542 21.1234115 72.1935688 4.51544744 76.9272453 4.51544744 62.7124307 21.1234115"></polygon>
                    <polygon id="Path" points="70.9462262 21.1234115 82.5213881 7.59926666 82.5213881 13.1305475 75.6803473 21.1234115"></polygon>
                    <polygon id="Path" points="90.3976565 21.1234115 107.807536 0.783355396 112.132102 0.783355396 112.132102 1.2621682 95.1308883 21.1234115"></polygon>
                    <polygon id="Path" points="103.365129 21.1234115 112.132102 10.8821131 112.132102 16.4125113 108.09925 21.1234115"></polygon>
                    <polygon id="Path" points="33.2907081 4.51544744 38.0248293 4.51544744 29.8452854 14.0718449 29.8452854 8.54100539"></polygon>
                    <polygon id="Path" points="94.8396194 0.783355396 95.257179 0.783355396 99.5732958 0.783355396 83.8554444 19.1468193 83.8554444 13.6164211"></polygon>
                    <polygon id="Path" points="83.8554444 3.99603484 83.8554444 3.85349426 83.8554444 0.783355396 86.6053791 0.783355396"></polygon>
                </g>
                <g id="Group-232" transform="translate(0.515835, 0.617823)">
                    <path d="M234.627153,188.329564 C234.627153,185.551126 235.742424,183.475241 236.739409,183.475241 C237.736394,183.475241 238.851665,185.551126 238.851665,188.329564 L238.851665,208.997066 L234.627153,208.997066 L234.627153,188.329564 Z M249.838953,188.329564 C249.838953,185.653066 252.033475,183.475241 254.730492,183.475241 C257.42751,183.475241 259.622032,185.653066 259.622032,188.329564 L259.622032,208.997066 L249.838953,208.997066 L249.838953,188.329564 Z M270.608875,188.329564 C270.608875,185.551126 271.724146,183.475241 272.721131,183.475241 C273.718116,183.475241 274.833387,185.551126 274.833387,188.329564 L274.833387,208.997066 L270.608875,208.997066 L270.608875,188.329564 Z" id="Fill-2" fill="#62C69D"></path>
                    <path d="M267.061397,169.628945 L263.059228,169.628945 L246.401757,169.628945 L242.399588,169.628945 L237.749067,169.628945 C240.68577,163.008531 247.390292,158.625077 254.730715,158.625077 C262.070693,158.625077 268.775215,163.008531 271.711918,169.628945 L267.061397,169.628945 Z M274.64862,170.952852 L274.64862,177.443964 L267.728425,177.443964 L267.728425,170.952852 L272.7049,170.952852 L274.64862,170.952852 Z M247.068785,177.443964 L262.3922,177.443964 L262.3922,170.952852 L247.068785,170.952852 L247.068785,177.443964 Z M241.732559,177.443964 L234.812365,177.443964 L234.812365,170.952852 L236.756085,170.952852 L241.732559,170.952852 L241.732559,177.443964 Z" id="Fill-4" fill="#ECE4DD"></path>
                    <path d="M110.938611,136.70282 C112.040541,135.210778 113.499554,135.093833 113.667645,135.085007 C113.878871,135.073533 114.326224,135.07927 114.538339,135.096039 C114.804261,135.115898 116.144543,135.286682 117.189109,136.70282 L117.189109,144.973263 L116.022699,144.973263 C115.742547,144.242908 115.033274,143.792339 114.495649,143.686868 C114.263079,143.641413 113.871311,143.64009 113.637851,143.684661 C113.098003,143.789691 112.385172,144.239819 112.104576,144.973263 L110.938611,144.973263 L110.938611,136.70282 Z" id="Fill-8" fill="#ECE4DD"></path>
                    <path d="M38.4357631,166.495877 C38.7968477,167.568682 38.9951774,168.714302 38.9951774,169.906259 C38.9951774,169.969366 38.9916199,170.032031 38.9907305,170.095137 L28.2324558,180.696979 C28.1946575,180.69742 28.1573039,180.700068 28.119061,180.700068 C26.8912845,180.700068 25.7119787,180.49398 24.6100482,180.120197 L38.4357631,166.495877 Z M18.2279228,174.386359 L32.7028785,160.121267 C33.6282689,160.549331 34.4820649,161.104047 35.2442557,161.761146 L19.8630312,176.920757 C19.2057861,176.159952 18.6534868,175.308239 18.2279228,174.386359 L18.2279228,174.386359 Z M25.3775753,159.460197 L17.6147016,167.111493 C18.6241376,163.377636 21.6044194,160.436357 25.3775753,159.460197 L25.3775753,159.460197 Z M28.505048,182.013824 C28.5077161,182.013824 28.5103842,182.01559 28.5130523,182.01559 C28.5166098,182.01559 28.5201673,182.013824 28.5232801,182.013383 C34.9085182,181.805971 40.0668693,176.712462 40.3167825,170.385955 C40.3172272,170.381983 40.3172272,170.37757 40.3172272,170.373157 C40.3234528,170.21826 40.3292337,170.062922 40.3292337,169.906259 C40.3292337,168.190918 39.9659257,166.558983 39.3157956,165.078414 C39.3109041,165.065616 39.3046785,165.053701 39.2988975,165.041345 C38.6745592,163.633591 37.7891905,162.364847 36.7019346,161.296896 C36.6952643,161.289835 36.6934856,161.280568 36.6863706,161.273507 C36.6770322,161.264681 36.6650257,161.261592 36.6552426,161.252766 C35.559093,160.187463 34.262835,159.323835 32.826501,158.726311 C32.8153839,158.721457 32.8042667,158.717044 32.7931496,158.712631 C31.3523688,158.118638 29.7741802,157.788544 28.119061,157.788544 C27.8513604,157.788544 27.5867725,157.800018 27.3230741,157.816788 C27.3221847,157.816788 27.32174,157.817229 27.3208506,157.817229 C20.9587361,158.227199 15.9084436,163.490609 15.9084436,169.906259 C15.9084436,171.517453 16.2295065,173.054509 16.8075976,174.462704 C16.8129338,174.476384 16.8178253,174.489182 16.8236062,174.503304 C17.4168166,175.932681 18.2772829,177.224814 19.3436386,178.319243 C19.3511982,178.328069 19.3538664,178.339102 19.3623154,178.347045 C19.3689857,178.354106 19.3783241,178.355871 19.3849943,178.362491 C20.4535734,179.448976 21.7249291,180.335994 23.1385841,180.965732 C23.1523694,180.97191 23.1648206,180.97853 23.1790505,180.983825 C24.6905363,181.650191 26.3612195,182.023974 28.119061,182.023974 C28.2484645,182.023974 28.3765339,182.018237 28.505048,182.013824 L28.505048,182.013824 Z M14.5717192,169.906259 C14.5717192,162.493266 20.649235,156.462432 28.119061,156.462432 C35.588887,156.462432 41.6659581,162.493266 41.6659581,169.906259 C41.6659581,177.318811 35.588887,183.349646 28.119061,183.349646 C20.649235,183.349646 14.5717192,177.318811 14.5717192,169.906259 L14.5717192,169.906259 Z M25.3691263,145.861472 L27.1709916,145.861472 C27.5396359,145.861472 27.8380198,145.564917 27.8380198,145.199519 L27.8380198,134.662107 L28.687369,134.662107 L28.687369,139.55703 C28.687369,139.922428 28.9857529,140.218983 29.3543971,140.218983 L30.8694404,140.218983 L30.8694404,155.395363 C30.1899611,155.269151 29.4949177,155.186186 28.7860891,155.155295 L28.7860891,152.038378 C28.7860891,151.67298 28.4877052,151.376425 28.119061,151.376425 C27.7508615,151.376425 27.4520328,151.67298 27.4520328,152.038378 L27.4520328,155.155295 C26.7436489,155.186186 26.0486056,155.269151 25.3691263,155.395363 L25.3691263,145.861472 Z M28.119061,188.435212 C28.4877052,188.435212 28.7860891,188.138657 28.7860891,187.773258 L28.7860891,184.656783 C29.4949177,184.625892 30.1899611,184.543368 30.8694404,184.416714 L30.8694404,208.997243 L25.3691263,208.997243 L25.3691263,184.416714 C26.0486056,184.543368 26.7436489,184.625892 27.4520328,184.656783 L27.4520328,187.773258 C27.4520328,188.138657 27.7508615,188.435212 28.119061,188.435212 L28.119061,188.435212 Z" id="Fill-10" fill="#CBEDE0"></path>
                    <path d="M63.7867907,187.401197 L69.9705863,187.401197 L69.9705863,141.672147 L63.7867907,141.672147 L63.7867907,187.401197 Z M75.6572237,187.401197 L81.9722016,187.401197 L81.9722016,175.899539 L75.6572237,175.899539 L75.6572237,187.401197 Z M146.154985,187.401197 L152.469963,187.401197 L152.469963,175.899539 L146.154985,175.899539 L146.154985,187.401197 Z M134.218293,183.574225 L140.401644,183.574225 L140.401644,141.672147 L134.218293,141.672147 L134.218293,183.574225 Z M105.432471,183.289143 L105.432471,160.649903 C105.996777,160.566497 106.792319,160.34717 107.377081,159.777449 C107.852449,159.314964 108.103252,158.692287 108.103252,157.976495 C108.103252,154.714831 110.777145,152.061281 114.063815,152.061281 C117.350486,152.061281 120.024379,154.714831 120.024379,157.976495 C120.024379,158.692287 120.275626,159.314964 120.75055,159.777449 C121.335312,160.34717 122.130854,160.566497 122.69516,160.649903 L122.69516,183.289143 C122.276711,183.054812 121.708403,182.951547 121.207242,182.860639 C120.8426,182.794444 120.244498,182.686325 120.064401,182.564084 C119.714878,181.506724 117.816071,181.1934 116.560279,181.102491 L114.483154,179.434811 C114.238577,179.238431 113.888609,179.238431 113.644477,179.434811 L111.567351,181.102491 C110.31156,181.1934 108.412753,181.507165 108.063675,182.564084 C107.883133,182.685883 107.285475,182.794444 106.920389,182.860639 C106.419228,182.951547 105.85092,183.054812 105.432471,183.289143 L105.432471,183.289143 Z M87.7255418,183.574225 L93.9093374,183.574225 L93.9093374,141.672147 L87.7255418,141.672147 L87.7255418,183.574225 Z M87.7255418,191.133289 L87.7255418,188.06315 L87.7255418,184.898131 L94.5768103,184.898131 L105.49117,184.898131 C105.797558,184.898131 106.057254,184.692484 106.134629,184.410933 C106.332959,184.312964 106.843013,184.220291 107.160519,184.162922 C108.062785,183.999199 109.084228,183.813852 109.325692,182.998767 C109.550703,182.752079 110.741126,182.474058 111.859954,182.41007 C111.999141,182.402126 112.132991,182.350935 112.241495,182.263999 L114.063815,180.801082 L115.886136,182.263999 C115.99464,182.351376 116.12849,182.402126 116.267676,182.410511 C117.365605,182.471852 118.578707,182.755168 118.802383,182.998767 C119.043403,183.813852 120.064845,183.999199 120.967112,184.162922 C121.284618,184.220291 121.794227,184.312964 121.992557,184.410933 C122.069932,184.692484 122.329628,184.898131 122.636461,184.898131 L133.551265,184.898131 L140.401644,184.898131 L140.401644,188.06315 L140.401644,191.133289 L87.7255418,191.133289 Z M158.157045,187.401197 L164.34084,187.401197 L164.34084,141.672147 L158.157045,141.672147 L158.157045,187.401197 Z" id="Fill-6" fill="#ECE4DD"></path>
                    <path d="M167.729788,209.065159 L170.012358,206.398812 L170.012358,209.065159 L167.729788,209.065159 Z M161.245385,209.065159 L170.012358,198.823861 L170.012358,204.354259 L165.979061,209.065159 L161.245385,209.065159 Z M154.761871,209.065159 L170.012358,191.24891 L170.012358,196.778867 L159.494658,209.065159 L154.761871,209.065159 Z M148.277913,209.065159 L165.687792,188.725103 L170.012358,188.725103 L170.012358,189.203916 L153.011145,209.065159 L148.277913,209.065159 Z M142.234638,209.065159 L141.793955,209.065159 L159.203834,188.725103 L163.937511,188.725103 L146.528076,209.065159 L142.234638,209.065159 Z M135.310441,209.065159 L140.401644,203.116848 L140.401644,208.647246 L140.044117,209.065159 L135.310441,209.065159 Z M128.826483,209.065159 L140.401644,195.541014 L140.401644,201.072295 L133.560604,209.065159 L128.826483,209.065159 Z M122.342524,209.065159 L136.557339,192.457195 L140.401644,192.457195 L140.401644,193.496903 L127.076645,209.065159 L122.342524,209.065159 Z M115.859011,209.065159 L130.073825,192.457195 L134.807502,192.457195 L120.592687,209.065159 L115.859011,209.065159 Z M109.375052,209.065159 L123.590312,192.457195 L128.323988,192.457195 L114.108729,209.065159 L109.375052,209.065159 Z M102.891539,209.065159 L117.106353,192.457195 L121.840474,192.457195 L107.625215,209.065159 L102.891539,209.065159 Z M96.4075802,209.065159 L110.62284,192.457195 L115.356516,192.457195 L101.141701,209.065159 L96.4075802,209.065159 Z M89.9240666,209.065159 L104.139326,192.457195 L108.873002,192.457195 L94.657743,209.065159 L89.9240666,209.065159 Z M87.7255418,209.065159 L87.7255418,204.058145 L97.6549229,192.457195 L102.389044,192.457195 L88.1742294,209.065159 L87.7255418,209.065159 Z M85.7088933,209.065159 L83.4401082,209.065159 L86.3914854,205.617266 L86.3914854,209.065159 L85.7088933,209.065159 Z M76.9561499,209.065159 L86.3914854,198.041432 L86.3914854,203.572272 L81.690271,209.065159 L76.9561499,209.065159 Z M70.4726362,209.065159 L86.3914854,190.46604 L86.3914854,191.795242 L86.3914854,195.996879 L75.2063127,209.065159 L70.4726362,209.065159 Z M63.9886779,209.065159 L81.397668,188.725103 L82.6392297,188.725103 L86.1317892,188.725103 L68.7223543,209.065159 L63.9886779,209.065159 Z M58.1152726,209.065159 L58.1152726,208.352015 L74.9141543,188.725103 L74.9901955,188.725103 L79.6478308,188.725103 L62.2388407,209.065159 L58.1152726,209.065159 Z M58.1152726,200.777064 L68.430196,188.725103 L70.6376145,188.725103 L73.1643171,188.725103 L58.1152726,206.307462 L58.1152726,200.777064 Z M58.1152726,193.201672 L61.9462377,188.725103 L63.1197625,188.725103 L66.6803588,188.725103 L58.1152726,198.732511 L58.1152726,193.201672 Z M58.1152726,188.725103 L60.1964005,188.725103 L58.1152726,191.156678 L58.1152726,188.725103 Z M63.7867907,187.401197 L69.9705863,187.401197 L69.9705863,141.672147 L63.7867907,141.672147 L63.7867907,187.401197 Z M75.6572237,187.401197 L81.9722016,187.401197 L81.9722016,175.899539 L75.6572237,175.899539 L75.6572237,187.401197 Z M152.719876,188.725103 L153.137435,188.725103 L157.453552,188.725103 L141.735701,207.088567 L141.735701,201.558169 L152.719876,188.725103 Z M146.154985,187.401197 L152.469963,187.401197 L152.469963,175.899539 L146.154985,175.899539 L146.154985,187.401197 Z M141.735701,191.937782 L141.735701,191.795242 L141.735701,188.725103 L144.485636,188.725103 L141.735701,191.937782 Z M146.235473,188.725103 L150.969594,188.725103 L141.735701,199.513616 L141.735701,193.982335 L146.235473,188.725103 Z M134.218293,183.574225 L140.401644,183.574225 L140.401644,141.672147 L134.218293,141.672147 L134.218293,183.574225 Z M105.432471,183.289143 L105.432471,160.649903 C105.996777,160.566497 106.792319,160.34717 107.377081,159.777449 C107.852449,159.314964 108.103252,158.692287 108.103252,157.976495 C108.103252,154.714831 110.777145,152.061281 114.063815,152.061281 C117.350486,152.061281 120.024379,154.714831 120.024379,157.976495 C120.024379,158.692287 120.275626,159.314964 120.75055,159.777449 C121.335312,160.34717 122.130854,160.566497 122.69516,160.649903 L122.69516,183.289143 C122.276711,183.054812 121.708403,182.951547 121.207242,182.860639 C120.8426,182.794444 120.244498,182.686325 120.064401,182.564084 C119.714878,181.506724 117.816071,181.1934 116.560279,181.102491 L114.483154,179.434811 C114.238577,179.238431 113.888609,179.238431 113.644477,179.434811 L111.567351,181.102491 C110.31156,181.1934 108.412753,181.507165 108.063675,182.564084 C107.883133,182.685883 107.285475,182.794444 106.920389,182.860639 C106.418783,182.951547 105.85092,183.054812 105.432471,183.289143 L105.432471,183.289143 Z M87.7255418,183.574225 L93.9093374,183.574225 L93.9093374,141.672147 L87.7255418,141.672147 L87.7255418,183.574225 Z M87.7255418,191.133289 L87.7255418,188.06315 L87.7255418,184.898131 L94.5768103,184.898131 L105.49117,184.898131 C105.797558,184.898131 106.057254,184.692484 106.134629,184.410933 C106.332959,184.312964 106.843013,184.220291 107.160074,184.162922 C108.062785,183.999199 109.084228,183.813852 109.325692,182.998767 C109.550258,182.752079 110.741126,182.474058 111.859954,182.41007 C111.999141,182.402126 112.132991,182.350935 112.241495,182.263999 L114.063815,180.801082 L115.886136,182.263999 C115.99464,182.351376 116.128045,182.402126 116.267676,182.410511 C117.365605,182.471852 118.578707,182.755168 118.802383,182.998767 C119.043403,183.813852 120.064845,183.999199 120.967112,184.162922 C121.284618,184.220291 121.794227,184.312964 121.992557,184.410933 C122.069932,184.692484 122.329628,184.898131 122.636461,184.898131 L133.551265,184.898131 L140.401644,184.898131 L140.401644,188.06315 L140.401644,191.133289 L87.7255418,191.133289 Z M87.7255418,194.4382 L87.7255418,192.457195 L89.4211273,192.457195 L87.7255418,194.4382 Z M91.1709645,192.457195 L95.9050857,192.457195 L87.7255418,202.013592 L87.7255418,196.482753 L91.1709645,192.457195 Z M158.157045,187.401197 L164.34084,187.401197 L164.34084,141.672147 L158.157045,141.672147 L158.157045,187.401197 Z M58.1152726,139.578168 L95.961116,139.578168 C97.6464738,139.578168 100.056224,139.19247 101.518795,135.858433 C101.614847,135.640429 101.585053,135.387563 101.440975,135.196921 C100.602298,134.087487 100.304803,132.848311 100.701463,132.113984 C101.16438,131.254328 102.50066,131.14003 103.541224,131.200047 C103.723545,131.204461 103.903198,131.144443 104.036604,131.019555 C104.169564,130.894666 104.245161,130.720793 104.245161,130.538977 L104.245161,128.764501 C105.416462,128.630345 106.980866,128.0593 107.54695,126.537691 L109.167384,126.537691 C109.444423,126.537691 109.692558,126.367348 109.790833,126.11051 C109.799282,126.089328 110.65041,123.960927 113.975323,123.85678 C114.018902,123.855456 114.105616,123.855456 114.149195,123.856339 C117.431418,123.95828 118.303446,126.027987 118.336798,126.11051 C118.435073,126.367789 118.683208,126.537691 118.960247,126.537691 L120.580681,126.537691 C121.146765,128.059742 122.711613,128.630345 123.882025,128.764501 L123.882025,130.538977 C123.882025,130.720793 123.957622,130.894666 124.091027,131.019555 C124.223988,131.144443 124.401862,131.206226 124.585962,131.200047 C125.626526,131.14003 126.962806,131.254328 127.426613,132.113984 C127.822383,132.848311 127.524888,134.087929 126.686656,135.196921 C126.542133,135.387563 126.512784,135.640429 126.608392,135.858433 C128.071407,139.19247 130.481157,139.578168 132.166515,139.578168 L170.012358,139.578168 L170.012358,187.401197 L165.674897,187.401197 L165.674897,141.010194 C165.674897,140.644796 165.376068,140.34824 165.007868,140.34824 L157.490016,140.34824 C157.121817,140.34824 156.822988,140.644796 156.822988,141.010194 L156.822988,187.401197 L153.804464,187.401197 L153.804464,175.237586 C153.804464,174.872188 153.505635,174.575633 153.137435,174.575633 L145.487956,174.575633 C145.119757,174.575633 144.820928,174.872188 144.820928,175.237586 L144.820928,187.401197 L141.735701,187.401197 L141.735701,184.236178 L141.735701,141.010194 C141.735701,140.644796 141.437317,140.34824 141.068673,140.34824 L133.551265,140.34824 C133.182621,140.34824 132.884237,140.644796 132.884237,141.010194 L132.884237,183.574225 L124.029216,183.574225 L124.029216,160.037817 C124.029216,159.861296 123.956732,159.691395 123.829997,159.567389 C123.70504,159.444707 123.535171,159.375864 123.359964,159.375864 L123.352405,159.375864 C123.028229,159.374981 122.149086,159.288045 121.682166,158.829973 C121.46427,158.616383 121.358435,158.33748 121.358435,157.976495 C121.358435,153.984917 118.085995,150.737375 114.063815,150.737375 C110.041636,150.737375 106.769196,153.984917 106.769196,157.976495 C106.769196,158.337039 106.66336,158.616383 106.445909,158.829973 C105.9781,159.288045 105.076278,159.382484 104.777894,159.375864 C104.591571,159.369245 104.425703,159.441177 104.298079,159.565624 C104.170454,159.690071 104.098415,159.860414 104.098415,160.037817 L104.098415,183.574225 L95.2438384,183.574225 L95.2438384,141.010194 C95.2438384,140.644796 94.9450098,140.34824 94.5768103,140.34824 L87.0585136,140.34824 C86.6903141,140.34824 86.3914854,140.644796 86.3914854,141.010194 L86.3914854,184.236178 L86.3914854,187.401197 L83.3062579,187.401197 L83.3062579,175.237586 C83.3062579,174.872188 83.007874,174.575633 82.6392297,174.575633 L74.9901955,174.575633 C74.621996,174.575633 74.3231674,174.872188 74.3231674,175.237586 L74.3231674,187.401197 L71.3046427,187.401197 L71.3046427,141.010194 C71.3046427,140.644796 71.0062587,140.34824 70.6376145,140.34824 L63.1197625,140.34824 C62.7511183,140.34824 62.4527344,140.644796 62.4527344,141.010194 L62.4527344,187.401197 L58.1152726,187.401197 L58.1152726,139.578168 Z M188.593539,204.165823 L190.82586,209.065159 L186.361663,209.065159 L188.593539,204.165823 Z M195.063268,204.165823 L197.295589,209.065159 L192.831391,209.065159 L195.063268,204.165823 Z M201.532996,204.165823 L203.765317,209.065159 L199.30112,209.065159 L201.532996,204.165823 Z M208.00228,204.166264 L210.234156,209.065159 L205.770848,209.065159 L208.00228,204.166264 Z M214.472008,204.165823 L216.703884,209.065159 L212.239687,209.065159 L214.472008,204.165823 Z M220.941737,204.165823 L223.173613,209.065159 L218.709416,209.065159 L220.941737,204.165823 Z M9.958508,205.757158 C9.05757531,205.757158 8.32473371,205.029451 8.32473371,204.135814 C8.32473371,203.516226 8.679148,202.959744 9.24923473,202.68393 C9.42888764,202.597435 9.55962516,202.435919 9.60587245,202.24307 C9.65256442,202.050221 9.60987462,201.847663 9.48936486,201.689677 C9.10604602,201.186151 8.90326946,200.589952 8.90326946,199.965068 C8.90326946,198.383441 10.1999722,197.096604 11.7937248,197.096604 C13.3874774,197.096604 14.6841801,198.383441 14.6841801,199.965068 C14.6841801,200.264712 14.6365988,200.562591 14.5418808,200.851203 C14.4547224,201.11819 14.5463276,201.410774 14.7708938,201.581558 C15.3583233,202.027273 15.6949501,202.7007 15.6949501,203.42929 C15.6949501,204.713038 14.6428244,205.757158 13.3496791,205.757158 L9.958508,205.757158 Z M14.5721194,169.906215 C14.5721194,162.493222 20.6491906,156.462387 28.1190165,156.462387 C35.5888425,156.462387 41.6659137,162.493222 41.6659137,169.906215 C41.6659137,177.318767 35.5888425,183.350043 28.1190165,183.350043 C20.6491906,183.350043 14.5721194,177.318767 14.5721194,169.906215 L14.5721194,169.906215 Z M25.3690818,145.861428 L27.1713919,145.861428 C27.5395914,145.861428 27.83842,145.564873 27.83842,145.199475 L27.83842,134.662063 L28.6873245,134.662063 L28.6873245,139.556986 C28.6873245,139.922384 28.9857084,140.218939 29.3543527,140.218939 L30.8693959,140.218939 L30.8693959,155.395319 C30.1899166,155.269107 29.4948733,155.186142 28.7860447,155.155251 L28.7860447,152.038334 C28.7860447,151.672936 28.4876608,151.37638 28.1190165,151.37638 C27.750817,151.37638 27.4519884,151.672936 27.4519884,152.038334 L27.4519884,155.155251 C26.7436045,155.186142 26.0485611,155.269107 25.3690818,155.395319 L25.3690818,145.861428 Z M28.1190165,188.435167 C28.4876608,188.435167 28.7860447,188.138612 28.7860447,187.773214 L28.7860447,184.656739 C29.4948733,184.625848 30.1899166,184.543324 30.8693959,184.41667 L30.8693959,208.997199 L25.3690818,208.997199 L25.3690818,184.41667 C26.0485611,184.543324 26.7436045,184.625848 27.4519884,184.656739 L27.4519884,187.773214 C27.4519884,188.138612 27.750817,188.435167 28.1190165,188.435167 L28.1190165,188.435167 Z M44.8609785,206.551502 L44.3220198,206.547972 C43.6349808,206.547972 43.0764559,205.993255 43.0764559,205.311443 C43.0764559,204.633162 43.6327573,204.078886 44.3166835,204.075797 C44.5345794,204.074915 44.73869,203.96812 44.8627573,203.789833 C44.9868245,203.611547 45.0148397,203.383836 44.9379091,203.181278 C44.8845468,203.040502 44.8578657,202.895755 44.8578657,202.750567 C44.8578657,202.068755 45.4168353,201.51448 46.1038743,201.51448 C46.6846335,201.51448 47.1826812,201.906356 47.3147527,202.468134 C47.3618894,202.668485 47.5001866,202.835738 47.6887332,202.920468 C48.346423,203.216582 48.7773231,203.842348 48.8133427,204.554169 C48.8386897,205.060784 48.664373,205.546657 48.3215206,205.922647 C47.9786681,206.298636 47.5086356,206.519728 46.9981367,206.545324 C46.5854686,206.565624 45.5409025,206.556798 44.8609785,206.551502 L44.8609785,206.551502 Z M177.405698,206.615932 C176.851176,206.615932 176.400265,206.168452 176.400265,205.618148 C176.400265,205.237304 176.61816,204.895295 176.969462,204.725394 C177.149115,204.638899 177.279852,204.477382 177.326544,204.284533 C177.373236,204.092125 177.330102,203.889126 177.210037,203.73114 C176.955232,203.396633 176.820492,203.000785 176.820492,202.586403 C176.820492,201.536104 177.681403,200.682184 178.739755,200.682184 C179.797661,200.682184 180.658128,201.536104 180.658128,202.586403 C180.658128,202.785871 180.626555,202.983575 180.563854,203.174658 C180.476696,203.441646 180.568301,203.734229 180.792867,203.905013 C181.174407,204.194508 181.393637,204.631838 181.393637,205.104031 C181.393637,205.937651 180.709711,206.615932 179.870145,206.615932 L177.405698,206.615932 Z M234.626931,188.329696 C234.626931,185.551258 235.742202,183.475373 236.739187,183.475373 C237.736616,183.475373 238.851443,185.551258 238.851443,188.329696 L238.851443,208.997199 L234.626931,208.997199 L234.626931,188.329696 Z M249.839175,188.329696 C249.839175,185.652758 252.033253,183.475373 254.730715,183.475373 C257.427732,183.475373 259.622255,185.652758 259.622255,188.329696 L259.622255,208.997199 L249.839175,208.997199 L249.839175,188.329696 Z M270.609098,188.329696 C270.609098,185.551258 271.723924,183.475373 272.721353,183.475373 C273.718338,183.475373 274.833609,185.551258 274.833609,188.329696 L274.833609,208.997199 L270.609098,208.997199 L270.609098,188.329696 Z M286.374975,204.942073 C284.963099,204.942073 283.814476,203.80219 283.814476,202.401056 C283.814476,201.549343 284.241819,200.758529 284.957763,200.285012 C285.172101,200.143795 285.284606,199.893136 285.248587,199.641152 C285.224129,199.469927 285.212567,199.329152 285.212567,199.198526 C285.212567,197.478772 286.62222,196.079844 288.354715,196.079844 C290.086764,196.079844 291.496417,197.478772 291.496417,199.198526 C291.496417,199.670719 291.388803,200.129232 291.176244,200.560826 C291.083304,200.751027 291.086417,200.973885 291.186027,201.160997 C291.285636,201.347668 291.469291,201.476086 291.679628,201.506536 C292.528532,201.628777 293.168435,202.362662 293.168435,203.213934 C293.168435,204.166705 292.387122,204.942073 291.427046,204.942073 L286.374975,204.942073 Z M296.779725,209.065159 L289.158261,209.065159 L289.158261,206.26598 L291.427046,206.26598 C293.122632,206.26598 294.502491,204.897061 294.502491,203.213934 C294.502491,201.986673 293.749194,200.896657 292.656602,200.419609 C292.77222,200.023761 292.830474,199.615115 292.830474,199.198526 C292.830474,196.748858 290.822719,194.755938 288.354715,194.755938 C285.88671,194.755938 283.878511,196.748858 283.878511,199.198526 C283.878511,199.273989 283.880734,199.349893 283.886071,199.428886 C282.998923,200.159682 282.48042,201.24352 282.48042,202.401056 C282.48042,204.532545 284.227589,206.26598 286.374975,206.26598 L287.824205,206.26598 L287.824205,209.065159 L279.77362,209.065159 C279.686017,209.022794 279.588631,208.997199 279.484574,208.997199 L279.067459,208.997199 L279.067459,183.861071 C279.067459,183.495673 278.768631,183.199118 278.400431,183.199118 C278.032232,183.199118 277.733403,183.495673 277.733403,183.861071 L277.733403,208.997199 L277.316733,208.997199 C277.212232,208.997199 277.114846,209.022794 277.027243,209.065159 L276.167666,209.065159 L276.167666,188.329696 C276.167666,184.807223 274.685974,182.151467 272.721353,182.151467 C270.756733,182.151467 269.275041,184.807223 269.275041,188.329696 L269.275041,209.065159 L268.434586,209.065159 C268.346983,209.022794 268.249597,208.997199 268.145096,208.997199 L267.728425,208.997199 L267.728425,183.861071 C267.728425,183.495673 267.429597,183.199118 267.061397,183.199118 C266.693198,183.199118 266.394369,183.495673 266.394369,183.861071 L266.394369,208.997199 L265.977254,208.997199 C265.873198,208.997199 265.775812,209.022794 265.688209,209.065159 L264.432417,209.065159 C264.344814,209.022794 264.247428,208.997199 264.142927,208.997199 L263.726256,208.997199 L263.726256,183.861071 C263.726256,183.495673 263.427428,183.199118 263.059228,183.199118 C262.691029,183.199118 262.3922,183.495673 262.3922,183.861071 L262.3922,208.997199 L261.975085,208.997199 C261.871029,208.997199 261.773643,209.022794 261.68604,209.065159 L260.956311,209.065159 L260.956311,188.329696 C260.956311,184.922844 258.163242,182.151467 254.730715,182.151467 C251.297743,182.151467 248.505119,184.922844 248.505119,188.329696 L248.505119,209.065159 L247.774945,209.065159 C247.687342,209.022794 247.589956,208.997199 247.4859,208.997199 L247.068785,208.997199 L247.068785,183.861071 C247.068785,183.495673 246.769956,183.199118 246.401757,183.199118 C246.033557,183.199118 245.734728,183.495673 245.734728,183.861071 L245.734728,208.997199 L245.318058,208.997199 C245.213557,208.997199 245.116171,209.022794 245.028568,209.065159 L243.772776,209.065159 C243.685173,209.022794 243.587787,208.997199 243.483731,208.997199 L243.066616,208.997199 L243.066616,183.861071 C243.066616,183.495673 242.767787,183.199118 242.399588,183.199118 C242.031388,183.199118 241.732559,183.495673 241.732559,183.861071 L241.732559,208.997199 L241.315889,208.997199 C241.211388,208.997199 241.114002,209.022794 241.026399,209.065159 L240.185499,209.065159 L240.185499,188.329696 C240.185499,184.807223 238.703807,182.151467 236.739187,182.151467 C234.775011,182.151467 233.292875,184.807223 233.292875,188.329696 L233.292875,209.065159 L232.433298,209.065159 C232.345695,209.022794 232.248308,208.997199 232.144252,208.997199 L231.727137,208.997199 L231.727137,183.861071 C231.727137,183.495673 231.428309,183.199118 231.060109,183.199118 C230.691909,183.199118 230.393081,183.495673 230.393081,183.861071 L230.393081,208.997199 L229.976411,208.997199 C229.87191,208.997199 229.774523,209.022794 229.68692,209.065159 L224.637962,209.065159 L221.549622,202.286317 C221.544285,202.273078 221.535392,202.262928 221.528721,202.251013 C221.518494,202.230713 221.507376,202.210413 221.494036,202.191437 C221.482474,202.173785 221.469578,202.157898 221.456238,202.14157 C221.442008,202.123918 221.427778,202.10759 221.411769,202.091703 C221.39665,202.076699 221.380641,202.06346 221.364188,202.050221 C221.34729,202.036099 221.329947,202.022418 221.31127,202.010062 C221.293038,201.998147 221.274361,201.987997 221.25524,201.977406 C221.241899,201.970786 221.230782,201.961519 221.216552,201.955782 C221.209882,201.952693 221.201878,201.951369 221.194763,201.94828 C221.175196,201.939895 221.154296,201.934599 221.133841,201.92798 C221.112496,201.921802 221.091596,201.915182 221.070251,201.91121 C221.048461,201.906797 221.027116,201.905032 221.004882,201.903267 C220.984426,201.901502 220.963971,201.898854 220.943515,201.898854 C220.919502,201.898854 220.896379,201.901502 220.872366,201.903708 C220.853689,201.905915 220.835012,201.906797 220.816335,201.910769 C220.791878,201.915182 220.768309,201.922684 220.744296,201.930186 C220.726954,201.935482 220.709166,201.940336 220.692268,201.947397 C220.683819,201.950486 220.67537,201.95181 220.666921,201.955782 C220.651357,201.962401 220.638016,201.972551 220.623342,201.980495 C220.606888,201.989321 220.59088,201.998147 220.575316,202.008738 C220.554416,202.021977 220.535294,202.03654 220.516617,202.052427 C220.501498,202.064783 220.487268,202.07714 220.473038,202.090379 C220.45614,202.107148 220.441021,202.124359 220.426346,202.142453 C220.413895,202.15834 220.400999,202.174226 220.389437,202.190996 C220.376541,202.210413 220.36498,202.230713 220.354307,202.251454 C220.347637,202.263369 220.339633,202.273519 220.333852,202.286317 L217.70665,208.051929 L215.079893,202.286317 C215.074557,202.273078 215.065663,202.262928 215.059438,202.251013 C215.048765,202.230713 215.037648,202.210413 215.024307,202.191437 C215.012746,202.173785 214.99985,202.157898 214.986954,202.14157 C214.972279,202.123918 214.958049,202.10759 214.942485,202.091703 C214.926921,202.076699 214.910913,202.063018 214.894459,202.049779 C214.877117,202.035658 214.860219,202.022418 214.841986,202.010503 C214.82331,201.997706 214.804188,201.987556 214.784622,201.976964 C214.771726,201.970786 214.760609,201.961519 214.746824,201.955782 C214.740154,201.952693 214.732594,201.951369 214.725924,201.948721 C214.705468,201.939895 214.684568,201.934599 214.663668,201.92798 C214.642767,201.921802 214.621867,201.915182 214.600967,201.91121 C214.579177,201.906797 214.557388,201.905032 214.535598,201.903267 C214.514698,201.901502 214.494687,201.898854 214.473787,201.898854 C214.450219,201.898854 214.42665,201.901502 214.402637,201.903708 C214.38396,201.905915 214.365284,201.906797 214.347052,201.910769 C214.322149,201.915182 214.298581,201.922684 214.274123,201.930186 C214.25678,201.935923 214.239882,201.940336 214.222984,201.946956 C214.214091,201.950486 214.205642,201.95181 214.197193,201.955782 C214.181629,201.962843 214.168288,201.972993 214.153169,201.980936 C214.13716,201.989762 214.121151,201.998147 214.106032,202.008297 C214.084687,202.021977 214.065566,202.036981 214.046444,202.052868 C214.03177,202.064783 214.01754,202.07714 214.004199,202.090379 C213.986856,202.106707 213.971292,202.124359 213.956618,202.142894 C213.943722,202.158781 213.931271,202.174226 213.919709,202.190996 C213.906813,202.210413 213.895251,202.230713 213.884579,202.251454 C213.877908,202.263369 213.869904,202.273519 213.864123,202.286317 L211.236922,208.051929 L208.610609,202.286317 C208.604829,202.273078 208.595935,202.262928 208.589709,202.251013 C208.579037,202.230713 208.56792,202.210413 208.555024,202.191437 C208.543017,202.173785 208.530121,202.157898 208.517226,202.14157 C208.502551,202.123918 208.488321,202.10759 208.472757,202.091703 C208.457193,202.076699 208.441184,202.063018 208.424731,202.049779 C208.407833,202.035658 208.390935,202.022418 208.372258,202.010503 C208.353581,201.997706 208.334904,201.987556 208.315338,201.976964 C208.301998,201.970786 208.290881,201.961519 208.27754,201.955782 C208.270425,201.952693 208.26331,201.951369 208.25664,201.948721 C208.23485,201.939895 208.212616,201.933717 208.190382,201.927097 C208.170816,201.921802 208.151694,201.915182 208.132128,201.91121 C208.109449,201.906797 208.085436,201.905032 208.061868,201.903267 C208.042301,201.901502 208.02318,201.898854 208.004059,201.898854 C207.980935,201.898854 207.956922,201.901502 207.932909,201.903708 C207.913787,201.905915 207.894666,201.907239 207.875544,201.910769 C207.852865,201.915182 207.830631,201.922243 207.807508,201.929304 C207.788386,201.935041 207.769265,201.940336 207.750588,201.947838 C207.743028,201.950928 207.735469,201.952251 207.727464,201.955782 C207.71279,201.96196 207.700338,201.971669 207.686553,201.979171 C207.668321,201.98888 207.650978,201.998147 207.63408,202.009621 C207.614514,202.022418 207.596282,202.03654 207.57805,202.051103 C207.562931,202.064342 207.547811,202.07714 207.533137,202.091262 C207.516683,202.107148 207.501564,202.124359 207.487334,202.142453 C207.474438,202.15834 207.461987,202.174226 207.44998,202.190996 C207.437085,202.210413 207.425967,202.230713 207.41485,202.251013 C207.408625,202.262928 207.400176,202.273519 207.394395,202.286317 L204.768083,208.051929 L202.140881,202.286317 C202.134655,202.273078 202.126651,202.262487 202.119981,202.250572 C202.109308,202.230272 202.098636,202.210854 202.086185,202.19232 C202.073289,202.173785 202.059948,202.157016 202.046163,202.140246 C202.032822,202.123918 202.018593,202.10759 202.003473,202.092586 C201.987909,202.076699 201.971011,202.062577 201.953668,202.048897 C201.93766,202.035216 201.921206,202.022418 201.903419,202.010503 C201.884298,201.998147 201.864731,201.987556 201.844721,201.976964 C201.831825,201.970345 201.821152,201.961519 201.807812,201.955782 C201.800697,201.952693 201.794026,201.95181 201.786911,201.948721 C201.765122,201.939895 201.742888,201.933717 201.720653,201.927097 C201.701532,201.921802 201.68241,201.915182 201.662844,201.91121 C201.639276,201.906797 201.615263,201.904591 201.59125,201.902826 C201.572573,201.901502 201.553896,201.898854 201.535219,201.898854 C201.510317,201.898854 201.485859,201.901502 201.460957,201.903708 C201.442725,201.905915 201.424493,201.907239 201.406705,201.910769 C201.383137,201.915182 201.359569,201.922243 201.335556,201.929745 C201.317324,201.935482 201.299092,201.940336 201.281749,201.947838 C201.274189,201.950928 201.26574,201.952251 201.257736,201.955782 C201.242616,201.962401 201.230165,201.97211 201.215935,201.979612 C201.198593,201.98888 201.181695,201.998147 201.164797,202.009179 C201.14523,202.022418 201.126554,202.03654 201.108321,202.051544 C201.092757,202.064342 201.078083,202.07714 201.063853,202.09082 C201.0474,202.107148 201.03228,202.124359 201.017606,202.142453 C201.00471,202.15834 200.992259,202.174226 200.980252,202.190996 C200.967356,202.210413 200.956239,202.230713 200.945122,202.251013 C200.938896,202.262928 200.930447,202.273519 200.924666,202.286317 L198.298354,208.051929 L195.671153,202.286317 C195.664927,202.273078 195.656923,202.262487 195.650252,202.250572 C195.63958,202.230272 195.628908,202.210854 195.616456,202.19232 C195.604005,202.173785 195.59022,202.157016 195.576435,202.140246 C195.563094,202.123918 195.549309,202.10759 195.533745,202.092586 C195.518181,202.076699 195.501283,202.062577 195.48394,202.048897 C195.467931,202.035216 195.451478,202.022418 195.433691,202.010503 C195.414569,201.998147 195.395003,201.987556 195.374992,201.976964 C195.362541,201.970345 195.351424,201.961519 195.338083,201.955782 C195.330968,201.952693 195.324298,201.95181 195.317183,201.948721 C195.295393,201.939895 195.273159,201.933717 195.25137,201.927097 C195.231803,201.921802 195.212682,201.915182 195.193116,201.91121 C195.169547,201.906797 195.145534,201.904591 195.121966,201.902826 C195.103289,201.901502 195.084168,201.898854 195.065491,201.898854 C195.040589,201.898854 195.016131,201.901502 194.991673,201.903708 C194.973441,201.905915 194.955209,201.907239 194.937422,201.910769 C194.913409,201.915182 194.88984,201.922243 194.865827,201.929745 C194.847595,201.935482 194.829363,201.940336 194.81202,201.947838 C194.804461,201.950928 194.796012,201.952251 194.788452,201.955782 C194.772888,201.962401 194.760437,201.97211 194.746207,201.979612 C194.728864,201.98888 194.711966,201.998147 194.695513,202.009179 C194.675502,202.022418 194.656825,202.03654 194.638593,202.051544 C194.623474,202.064342 194.608354,202.07714 194.594125,202.09082 C194.577671,202.107148 194.562552,202.124359 194.548322,202.142453 C194.534981,202.15834 194.52253,202.174226 194.510968,202.190996 C194.497628,202.210413 194.486511,202.230713 194.475838,202.251013 C194.469168,202.262928 194.460719,202.273519 194.455383,202.286317 L191.828626,208.051929 L189.201424,202.286317 C189.195199,202.273078 189.187194,202.262487 189.180524,202.250572 C189.169852,202.230713 189.158734,202.210854 189.146283,202.191878 C189.134277,202.173785 189.120936,202.157016 189.107151,202.140687 C189.093366,202.123918 189.07958,202.10759 189.064461,202.092144 C189.048452,202.076699 189.031999,202.063018 189.015101,202.049338 C188.998648,202.035216 188.981305,202.022418 188.963073,202.010062 C188.944841,201.998147 188.926164,201.987997 188.906598,201.977406 C188.893702,201.970786 188.88214,201.961519 188.868355,201.955782 C188.86124,201.952693 188.85368,201.951369 188.846565,201.94828 C188.825665,201.939895 188.804765,201.933717 188.782975,201.927539 C188.762964,201.921802 188.742954,201.915182 188.722498,201.91121 C188.699374,201.906797 188.676251,201.905032 188.652682,201.903267 C188.633561,201.901502 188.614439,201.898854 188.595318,201.898854 C188.570416,201.898854 188.545958,201.901502 188.521056,201.90415 C188.503268,201.905915 188.485481,201.907239 188.467693,201.910769 C188.443236,201.915182 188.419667,201.922684 188.395654,201.930186 C188.377867,201.935923 188.360079,201.940336 188.342737,201.947838 C188.334732,201.950928 188.326283,201.952251 188.318724,201.955782 C188.303604,201.962401 188.290708,201.97211 188.276479,201.979612 C188.259136,201.98888 188.242238,201.998147 188.225784,202.009179 C188.205774,202.022418 188.187097,202.03654 188.168865,202.051544 C188.153745,202.064342 188.139071,202.07714 188.124396,202.09082 C188.107943,202.107148 188.092823,202.124359 188.078593,202.142453 C188.065253,202.15834 188.052802,202.174226 188.04124,202.190996 C188.027899,202.210413 188.016782,202.230713 188.00611,202.251013 C187.999439,202.262928 187.99099,202.273519 187.985654,202.286317 L184.897314,209.065159 L179.579321,209.065159 L179.579321,207.939839 L179.870145,207.939839 C181.445666,207.939839 182.727694,206.667565 182.727694,205.104031 C182.727694,204.367498 182.445763,203.677301 181.94149,203.153476 C181.975286,202.966805 181.992184,202.777045 181.992184,202.586403 C181.992184,200.80619 180.533171,199.358278 178.739755,199.358278 C176.945894,199.358278 175.486436,200.80619 175.486436,202.586403 C175.486436,203.061685 175.590048,203.52108 175.789267,203.944289 C175.332575,204.373235 175.066208,204.971641 175.066208,205.618148 C175.066208,206.898366 176.115666,207.939839 177.405698,207.939839 L178.245264,207.939839 L178.245264,209.065159 L171.346415,209.065159 L171.346415,188.725103 L172.788974,188.725103 C173.157174,188.725103 173.456002,188.428548 173.456002,188.06315 C173.456002,187.697752 173.157174,187.401197 172.788974,187.401197 L171.346415,187.401197 L171.346415,139.578168 L172.788974,139.578168 C173.157174,139.578168 173.456002,139.281613 173.456002,138.916215 C173.456002,138.550817 173.157174,138.254262 172.788974,138.254262 L132.166515,138.254262 C130.725289,138.254262 129.113749,137.936966 127.986472,135.662936 C128.789129,134.457298 129.319194,132.818302 128.602806,131.4891 C128.206146,130.753891 127.297654,129.914976 125.216082,129.86555 L125.216082,128.133439 C125.216082,127.95427 125.142708,127.783045 125.01286,127.657715 C124.883012,127.533268 124.706472,127.458688 124.527264,127.471927 C124.502806,127.471927 122.078826,127.531944 121.742644,125.753938 C121.6835,125.440614 121.40824,125.213784 121.087177,125.213784 L119.368913,125.213784 C118.878425,124.383254 117.461212,122.634373 114.190995,122.533315 C114.124293,122.530667 113.989998,122.531109 113.928186,122.533756 C110.663306,122.636139 109.248317,124.383695 108.758718,125.213784 L107.040454,125.213784 C106.719391,125.213784 106.444131,125.441055 106.384987,125.753938 C106.051473,127.517823 103.69464,127.469721 103.600367,127.471927 C103.419825,127.459129 103.244619,127.533268 103.114326,127.657715 C102.984478,127.783045 102.911105,127.95427 102.911105,128.133439 L102.911105,129.86555 C100.830422,129.914976 99.9214845,130.75345 99.5252698,131.4891 C98.8084369,132.818302 99.3385019,134.456857 100.140714,135.662936 C99.0138816,137.937407 97.4027862,138.254262 95.961116,138.254262 L55.3382121,138.254262 C54.9700125,138.254262 54.6711839,138.550817 54.6711839,138.916215 C54.6711839,139.281613 54.9700125,139.578168 55.3382121,139.578168 L56.7812163,139.578168 L56.7812163,187.401197 L55.3382121,187.401197 C54.9700125,187.401197 54.6711839,187.697752 54.6711839,188.06315 C54.6711839,188.428548 54.9700125,188.725103 55.3382121,188.725103 L56.7812163,188.725103 L56.7812163,209.065159 L46.6130391,209.065159 L46.6130391,207.878939 C46.7949155,207.876732 46.9527788,207.873202 47.0648395,207.867465 C47.9310868,207.824217 48.7288524,207.449552 49.310501,206.810988 C49.8925942,206.172424 50.1891994,205.34763 50.1456202,204.487973 C50.0900346,203.383394 49.475924,202.401056 48.520295,201.857371 C48.149872,200.861353 47.1978005,200.190573 46.1038743,200.190573 C44.6813256,200.190573 43.5238094,201.338841 43.5238094,202.750567 C43.5238094,202.792932 43.5246988,202.834856 43.5269222,202.877221 C42.4930286,203.210845 41.7423995,204.177738 41.7423995,205.311443 C41.7423995,206.723169 42.8994711,207.871878 44.3220198,207.871878 L44.8498614,207.875409 C44.9814883,207.876732 45.1277898,207.877615 45.2789828,207.878939 L45.2789828,209.065159 L32.2034523,209.065159 L32.2034523,184.103787 C33.1697537,183.829297 34.0960335,183.46081 34.9716191,183.008034 L36.5440268,185.710568 C36.6676493,185.923276 36.8913261,186.041545 37.1221179,186.041545 C37.235068,186.041545 37.3497968,186.013301 37.4551873,185.952843 C37.7740267,185.770144 37.8834193,185.36547 37.6988749,185.048615 L36.1255778,182.344316 C37.9416731,181.188987 39.4887338,179.654138 40.6524755,177.85186 L43.3779526,179.412746 C43.4828983,179.472763 43.5976272,179.501447 43.7105773,179.501447 C43.941369,179.501447 44.1654905,179.382737 44.289113,179.170471 C44.4732128,178.853616 44.3638202,178.448942 44.0449807,178.266243 L41.3217271,176.706681 C42.2946989,174.854095 42.8843517,172.773796 42.9830719,170.568168 L46.1234405,170.568168 C46.49164,170.568168 46.7904686,170.271613 46.7904686,169.906215 C46.7904686,169.540817 46.49164,169.244262 46.1234405,169.244262 L42.9830719,169.244262 C42.8843517,167.038193 42.2946989,164.958336 41.3217271,163.105308 L44.0449807,161.545305 C44.3638202,161.362606 44.4732128,160.957932 44.289113,160.641519 C44.1050133,160.325105 43.6976814,160.216545 43.3779526,160.399244 L40.6524755,161.960571 C39.4882891,160.158293 37.9416731,158.623003 36.1255778,157.467674 L37.6988749,154.762933 C37.8834193,154.446078 37.7740267,154.041404 37.4551873,153.858705 C37.1359031,153.675565 36.7281266,153.784125 36.5440268,154.10098 L34.9716191,156.803514 C34.0960335,156.351179 33.1697537,155.982692 32.2034523,155.708643 L32.2034523,139.556986 C32.2034523,139.191588 31.9050683,138.895033 31.5364241,138.895033 L30.0213808,138.895033 L30.0213808,134.000109 C30.0213808,133.634711 29.7225522,133.338156 29.3543527,133.338156 L27.1713919,133.338156 C26.8027476,133.338156 26.5043637,133.634711 26.5043637,134.000109 L26.5043637,144.537522 L24.7020536,144.537522 C24.3334094,144.537522 24.0350255,144.834077 24.0350255,145.199475 L24.0350255,155.708643 C23.0682793,155.982692 22.1424443,156.351179 21.2668586,156.803514 L19.6944509,154.10098 C19.5103512,153.784125 19.1030193,153.675565 18.7832905,153.858705 C18.464451,154.041404 18.3550584,154.446078 18.5391582,154.762933 L20.1128999,157.467674 C18.2968046,158.623003 16.749744,160.158293 15.5851128,161.960571 L12.8600805,160.399244 C12.541241,160.216545 12.1330198,160.325105 11.94892,160.641519 C11.7648202,160.957932 11.8742129,161.362606 12.1930523,161.545305 L14.9163059,163.105308 C13.9433342,164.958336 13.3532366,167.038193 13.2549611,169.244262 L10.1145926,169.244262 C9.74594836,169.244262 9.44756443,169.540817 9.44756443,169.906215 C9.44756443,170.271613 9.74594836,170.568168 10.1145926,170.568168 L13.2549611,170.568168 C13.3532366,172.774238 13.9433342,174.854095 14.9163059,176.706681 L12.1930523,178.266243 C11.8742129,178.448942 11.7648202,178.853616 11.94892,179.170471 C12.0720979,179.382737 12.296664,179.501447 12.5270111,179.501447 C12.6404059,179.501447 12.7551347,179.472763 12.8600805,179.412746 L15.5851128,177.85186 C16.749744,179.654138 18.2963599,181.188987 20.1128999,182.344316 L18.5391582,185.048615 C18.3550584,185.36547 18.464451,185.770144 18.7832905,185.952843 C18.8886809,186.013301 19.0029651,186.041545 19.1163599,186.041545 C19.3467069,186.041545 19.5708284,185.923276 19.6944509,185.710568 L21.266414,183.008475 C22.1419996,183.46081 23.0682793,183.829297 24.0350255,184.103787 L24.0350255,209.065159 L12.6986597,209.065159 L12.6986597,207.081065 L13.3496791,207.081065 C15.3783341,207.081065 17.0290064,205.442951 17.0290064,203.42929 C17.0290064,202.437242 16.632347,201.511391 15.9275206,200.826931 C15.9879978,200.543174 16.0182364,200.254562 16.0182364,199.965068 C16.0182364,197.653527 14.1234318,195.772698 11.7937248,195.772698 C9.46446248,195.772698 7.56921315,197.653527 7.56921315,199.965068 C7.56921315,200.643791 7.73196802,201.298683 8.04458188,201.892234 C7.3815559,202.442538 6.9906774,203.25321 6.9906774,204.135814 C6.9906774,205.759806 8.32162091,207.081065 9.958508,207.081065 L11.3646033,207.081065 L11.3646033,209.065159 L0.889593215,209.065159 C0.520948988,209.065159 0.222565061,209.361714 0.222565061,209.727112 C0.222565061,210.09251 0.520948988,210.389065 0.889593215,210.389065 L57.4482445,210.389065 L85.7088933,210.389065 L87.0585136,210.389065 L141.068673,210.389065 L142.234638,210.389065 L170.679386,210.389065 L296.779725,210.389065 C297.147924,210.389065 297.446753,210.09251 297.446753,209.727112 C297.446753,209.361714 297.147924,209.065159 296.779725,209.065159 L296.779725,209.065159 Z" id="Fill-36" fill="#37383A"></path>
                    <path d="M188.727256,201.277721 L220.808198,201.277721 C221.176397,201.277721 221.475226,200.981166 221.475226,200.615768 C221.475226,200.25037 221.176397,199.953815 220.808198,199.953815 L188.727256,199.953815 C188.359057,199.953815 188.060228,200.25037 188.060228,200.615768 C188.060228,200.981166 188.359057,201.277721 188.727256,201.277721" id="Fill-86" fill="#37383A"></path>
                    <path d="M204.767238,46.9510595 C205.135437,46.9510595 205.434266,46.6549457 205.434266,46.2891063 L205.434266,42.5521599 C205.434266,42.1867617 205.135437,41.8902067 204.767238,41.8902067 C204.399038,41.8902067 204.10021,42.1867617 204.10021,42.5521599 L204.10021,46.2891063 C204.10021,46.6549457 204.399038,46.9510595 204.767238,46.9510595" id="Fill-88" fill="#37383A"></path>
                    <path d="M38.4357631,166.495877 C38.7968477,167.568682 38.9951774,168.714302 38.9951774,169.906259 C38.9951774,169.969366 38.9916199,170.032031 38.9907305,170.095137 L28.2324558,180.696979 C28.1946575,180.69742 28.1573039,180.700068 28.119061,180.700068 C26.8912845,180.700068 25.7119787,180.49398 24.6100482,180.120197 L38.4357631,166.495877 Z M20.7897556,177.873528 L36.1976613,162.687881 C36.8709151,163.429268 37.4418912,164.263329 37.8892447,165.16844 L23.277326,179.567245 C22.3692783,179.117559 21.5319356,178.546514 20.7897556,177.873528 L20.7897556,177.873528 Z M18.2279228,174.386359 L32.7028785,160.121267 C33.6282689,160.549331 34.4820649,161.104047 35.2442557,161.761146 L19.8630312,176.920757 C19.2057861,176.159952 18.6534868,175.308239 18.2279228,174.386359 L18.2279228,174.386359 Z M17.2424999,169.906259 C17.2424999,169.712086 17.2482808,169.519679 17.2585086,169.328154 L27.6112302,159.125249 C27.779766,159.117305 27.9487465,159.112451 28.119061,159.112451 C29.2410023,159.112451 30.3233667,159.28147 31.342141,159.596118 L17.7094196,173.031561 C17.4070335,172.041279 17.2424999,170.992304 17.2424999,169.906259 L17.2424999,169.906259 Z M25.3775753,159.460197 L17.6147016,167.111493 C18.6241376,163.377636 21.6044194,160.436357 25.3775753,159.460197 L25.3775753,159.460197 Z M30.3576075,180.468826 L38.7448195,172.203237 C37.8376612,176.33912 34.5358718,179.597695 30.3576075,180.468826 L30.3576075,180.468826 Z M28.505048,182.013824 C28.5077161,182.013824 28.5103842,182.01559 28.5130523,182.01559 C28.5166098,182.01559 28.5201673,182.013824 28.5232801,182.013383 C34.9085182,181.805971 40.0668693,176.712462 40.3167825,170.385955 C40.3172272,170.381983 40.3172272,170.37757 40.3172272,170.373157 C40.3234528,170.21826 40.3292337,170.062922 40.3292337,169.906259 C40.3292337,168.190918 39.9659257,166.558983 39.3157956,165.078414 C39.3109041,165.065616 39.3046785,165.053701 39.2988975,165.041345 C38.6745592,163.633591 37.7891905,162.364847 36.7019346,161.296896 C36.6952643,161.289835 36.6934856,161.280568 36.6863706,161.273507 C36.6770322,161.264681 36.6650257,161.261592 36.6552426,161.252766 C35.559093,160.187463 34.262835,159.323835 32.826501,158.726311 C32.8153839,158.721457 32.8042667,158.717044 32.7931496,158.712631 C31.3523688,158.118638 29.7741802,157.788544 28.119061,157.788544 C27.8513604,157.788544 27.5867725,157.800018 27.3230741,157.816788 C27.3221847,157.816788 27.32174,157.817229 27.3208506,157.817229 C20.9587361,158.227199 15.9084436,163.490609 15.9084436,169.906259 C15.9084436,171.517453 16.2295065,173.054509 16.8075976,174.462704 C16.8129338,174.476384 16.8178253,174.489182 16.8236062,174.503304 C17.4168166,175.932681 18.2772829,177.224814 19.3436386,178.319243 C19.3511982,178.328069 19.3538664,178.339102 19.3623154,178.347045 C19.3689857,178.354106 19.3783241,178.355871 19.3849943,178.362491 C20.4535734,179.448976 21.7249291,180.335994 23.1385841,180.965732 C23.1523694,180.97191 23.1648206,180.97853 23.1790505,180.983825 C24.6905363,181.650191 26.3612195,182.023974 28.119061,182.023974 C28.2484645,182.023974 28.3765339,182.018237 28.505048,182.013824 L28.505048,182.013824 Z" id="Fill-90" fill="#37383A"></path>
                    <path d="M28.1191944,150.64907 C28.4878386,150.64907 28.7862226,150.352515 28.7862226,149.987117 L28.7862226,149.217486 C28.7862226,148.852088 28.4878386,148.555533 28.1191944,148.555533 C27.7505502,148.555533 27.4521662,148.852088 27.4521662,149.217486 L27.4521662,149.987117 C27.4521662,150.352515 27.7505502,150.64907 28.1191944,150.64907" id="Fill-92" fill="#37383A"></path>
                    <path d="M17.5057982,152.986604 C17.6294207,153.19887 17.8535422,153.31758 18.0838892,153.31758 C18.197284,153.31758 18.3120129,153.289337 18.4169586,153.228879 C18.7362428,153.046179 18.8451907,152.641064 18.6610909,152.32465 L18.2733252,151.658284 C18.0892255,151.341429 17.6818936,151.232869 17.3617201,151.416009 C17.0428806,151.598709 16.933488,152.003824 17.1180325,152.320237 L17.5057982,152.986604 Z" id="Fill-94" fill="#37383A"></path>
                    <path d="M9.48754165,159.230764 C9.3029972,159.547178 9.41238982,159.952293 9.73122927,160.134992 L10.4027043,160.519807 C10.50765,160.580266 10.6228236,160.608509 10.7357737,160.608509 C10.9665654,160.608509 11.1906869,160.49024 11.3138647,160.277533 C11.4984092,159.961119 11.3890166,159.556004 11.0701771,159.373305 L10.3987021,158.988489 C10.0798627,158.805349 9.67208611,158.913909 9.48754165,159.230764" id="Fill-96" fill="#37383A"></path>
                    <path d="M7.27194094,170.567992 L8.04747234,170.567992 C8.41611656,170.567992 8.71450049,170.271437 8.71450049,169.906039 C8.71450049,169.540641 8.41611656,169.244086 8.04747234,169.244086 L7.27194094,169.244086 C6.90329671,169.244086 6.60491278,169.540641 6.60491278,169.906039 C6.60491278,170.271437 6.90329671,170.567992 7.27194094,170.567992" id="Fill-98" fill="#37383A"></path>
                    <path d="M10.0657661,180.912334 C10.1787162,180.912334 10.2938898,180.884091 10.3988355,180.823633 L11.0698658,180.438817 C11.3887053,180.255677 11.4980979,179.851003 11.3135535,179.534148 C11.129009,179.217734 10.7216771,179.109174 10.402393,179.292314 L9.73136268,179.67713 C9.41252322,179.86027 9.3031306,180.264944 9.48767506,180.581799 C9.61129761,180.793624 9.83541907,180.912334 10.0657661,180.912334" id="Fill-100" fill="#37383A"></path>
                    <path d="M17.6949229,188.484726 C17.9257146,188.484726 18.1493914,188.366015 18.2730139,188.153749 L18.6607796,187.487383 C18.8453241,187.170969 18.7359315,186.765854 18.417092,186.583155 C18.0978079,186.400014 17.6900313,186.508575 17.5059316,186.82543 L17.1181659,187.491796 C16.9336214,187.80821 17.043014,188.213325 17.3618535,188.396024 C17.4667992,188.456482 17.5819728,188.484726 17.6949229,188.484726" id="Fill-102" fill="#37383A"></path>
                    <path d="M27.4521662,190.594679 C27.4521662,190.960078 27.7505502,191.256633 28.1191944,191.256633 C28.4878386,191.256633 28.7862226,190.960078 28.7862226,190.594679 L28.7862226,189.825048 C28.7862226,189.45965 28.4878386,189.163095 28.1191944,189.163095 C27.7505502,189.163095 27.4521662,189.45965 27.4521662,189.825048 L27.4521662,190.594679 Z" id="Fill-104" fill="#37383A"></path>
                    <path d="M37.8214747,186.58289 C37.5026352,186.765589 37.3932426,187.170263 37.5773423,187.487118 L37.965108,188.153926 C38.0887306,188.366192 38.3128521,188.484902 38.5436438,188.484902 C38.6565939,188.484902 38.7713227,188.456218 38.8762685,188.395759 C39.195108,188.21306 39.3045006,187.808386 39.1204008,187.491972 L38.7326351,186.825165 C38.54898,186.508751 38.1412035,186.400191 37.8214747,186.58289" id="Fill-106" fill="#37383A"></path>
                    <path d="M46.5067593,179.677174 L45.8348396,179.292358 C45.5155555,179.109218 45.1082236,179.21822 44.9236792,179.534633 C44.7395794,179.851488 44.848972,180.256162 45.1678115,180.438861 L45.8397312,180.823677 C45.9446769,180.883694 46.0594058,180.912378 46.1728005,180.912378 C46.4031476,180.912378 46.6272691,180.793668 46.7508916,180.581402 C46.9349914,180.264547 46.8255988,179.859873 46.5067593,179.677174" id="Fill-108" fill="#37383A"></path>
                    <path d="M48.1908275,169.244086 C47.8221833,169.244086 47.5237994,169.540641 47.5237994,169.906039 C47.5237994,170.271437 47.8221833,170.567992 48.1908275,170.567992 L48.9663589,170.567992 C49.3350032,170.567992 49.6333871,170.271437 49.6333871,169.906039 C49.6333871,169.540641 49.3350032,169.244086 48.9663589,169.244086 L48.1908275,169.244086 Z" id="Fill-110" fill="#37383A"></path>
                    <path d="M45.8397312,158.988577 L45.1678115,159.373393 C44.848972,159.556092 44.7395794,159.960766 44.9236792,160.277621 C45.0473017,160.489887 45.2714232,160.608597 45.5022149,160.608597 C45.615165,160.608597 45.7298939,160.579913 45.8348396,160.519896 L46.5067593,160.13508 C46.8255988,159.952381 46.9349914,159.547707 46.7508916,159.230852 C46.5672365,158.913997 46.15946,158.805437 45.8397312,158.988577" id="Fill-112" fill="#37383A"></path>
                    <path d="M37.8212968,153.22879 C37.9262425,153.289249 38.0414161,153.317492 38.1543662,153.317492 C38.3851579,153.317492 38.6088347,153.199223 38.7324572,152.986515 L39.1202229,152.320149 C39.3047674,152.004177 39.1953748,151.599062 38.8765353,151.416362 C38.5576959,151.233222 38.1494746,151.341782 37.9653749,151.658196 L37.5776092,152.324562 C37.3930647,152.640976 37.5024573,153.046091 37.8212968,153.22879" id="Fill-114" fill="#37383A"></path>
                    <path d="M139.114458,142.23847 C138.747148,142.266272 138.472332,142.584892 138.500792,142.948966 C138.59551,144.176669 138.500347,146.38671 137.83999,147.094117 C137.721259,147.221212 137.604751,147.275492 137.450445,147.275492 L137.168959,147.275492 C137.014653,147.275492 136.898146,147.221212 136.779859,147.094117 C136.119502,146.38671 136.024339,144.176669 136.119057,142.948966 C136.147517,142.584892 135.872701,142.266272 135.505391,142.23847 C135.135413,142.21155 134.817463,142.482951 134.789003,142.847025 C134.759209,143.230517 134.531975,146.632956 135.800217,147.99305 C136.170196,148.389339 136.643341,148.599399 137.168959,148.599399 L137.450445,148.599399 C137.976063,148.599399 138.449209,148.389339 138.819187,147.99305 C140.08743,146.632956 139.86064,143.230517 139.830846,142.847025 C139.801942,142.482951 139.477766,142.20802 139.114458,142.23847" id="Fill-116" fill="#37383A"></path>
                    <path d="M138.744257,149.019209 L135.875592,149.019209 C135.506947,149.019209 135.208563,149.315764 135.208563,149.681163 C135.208563,150.046561 135.506947,150.343116 135.875592,150.343116 L138.744257,150.343116 C139.112902,150.343116 139.411286,150.046561 139.411286,149.681163 C139.411286,149.315764 139.112902,149.019209 138.744257,149.019209" id="Fill-118" fill="#37383A"></path>
                    <path d="M138.200096,150.688302 L136.42002,150.688302 C136.051376,150.688302 135.752992,150.984857 135.752992,151.350255 C135.752992,151.715654 136.051376,152.012209 136.42002,152.012209 L138.200096,152.012209 C138.56874,152.012209 138.867124,151.715654 138.867124,151.350255 C138.867124,150.984857 138.56874,150.688302 138.200096,150.688302" id="Fill-120" fill="#37383A"></path>
                    <path d="M137.639703,152.32465 L136.980235,152.32465 C136.61159,152.32465 136.313207,152.621206 136.313207,152.986604 C136.313207,153.352002 136.61159,153.648557 136.980235,153.648557 L137.639703,153.648557 C138.008347,153.648557 138.306731,153.352002 138.306731,152.986604 C138.306731,152.621206 138.008347,152.32465 137.639703,152.32465" id="Fill-122" fill="#37383A"></path>
                    <path d="M161.108155,148.599443 L161.389641,148.599443 C161.914814,148.599443 162.388404,148.389383 162.758383,147.993094 C164.026181,146.633001 163.799836,143.230561 163.769153,142.84707 C163.741137,142.482995 163.417406,142.204534 163.052764,142.238514 C162.685454,142.266316 162.411083,142.584936 162.439543,142.949452 C162.535595,144.175389 162.440877,146.383665 161.779185,147.09372 C161.660454,147.221256 161.543947,147.275536 161.389641,147.275536 L161.108155,147.275536 C160.953849,147.275536 160.837342,147.221256 160.718611,147.094161 C160.058697,146.386754 159.96309,144.176713 160.057808,142.94901 C160.085823,142.584936 159.811452,142.266316 159.444142,142.238514 C159.081279,142.209829 158.756214,142.482554 158.727754,142.84707 C158.69796,143.230561 158.47117,146.633001 159.739413,147.993094 C160.109391,148.389383 160.582537,148.599443 161.108155,148.599443" id="Fill-124" fill="#37383A"></path>
                    <path d="M162.683231,149.019209 L159.814565,149.019209 C159.446366,149.019209 159.147537,149.315764 159.147537,149.681163 C159.147537,150.046561 159.446366,150.343116 159.814565,150.343116 L162.683231,150.343116 C163.05143,150.343116 163.350259,150.046561 163.350259,149.681163 C163.350259,149.315764 163.05143,149.019209 162.683231,149.019209" id="Fill-126" fill="#37383A"></path>
                    <path d="M162.139069,150.688302 L160.358549,150.688302 C159.990349,150.688302 159.691521,150.984857 159.691521,151.350255 C159.691521,151.715654 159.990349,152.012209 160.358549,152.012209 L162.139069,152.012209 C162.507269,152.012209 162.806097,151.715654 162.806097,151.350255 C162.806097,150.984857 162.507269,150.688302 162.139069,150.688302" id="Fill-128" fill="#37383A"></path>
                    <path d="M161.578454,152.32465 L160.91943,152.32465 C160.550786,152.32465 160.252402,152.621206 160.252402,152.986604 C160.252402,153.352002 160.550786,153.648557 160.91943,153.648557 L161.578454,153.648557 C161.946654,153.648557 162.245482,153.352002 162.245482,152.986604 C162.245482,152.621206 161.946654,152.32465 161.578454,152.32465" id="Fill-130" fill="#37383A"></path>
                    <path d="M143.842709,173.903221 C143.888067,173.905427 144.596006,173.935877 145.283935,173.935877 C145.653468,173.935877 146.017221,173.927493 146.268468,173.900132 C147.642991,173.752737 148.686668,173.244798 149.31234,172.4659 C149.938457,173.244798 150.982579,173.752737 152.357101,173.900132 C152.612351,173.927493 152.976103,173.936319 153.345637,173.936319 C154.000214,173.936319 154.672134,173.908517 154.783305,173.903221 C155.15106,173.887334 155.436103,173.578423 155.420095,173.213024 C155.403641,172.847626 155.090583,172.562986 154.724162,172.580639 C154.279921,172.600938 153.013457,172.638449 152.500735,172.584169 C151.559336,172.483111 149.979368,172.077113 149.979368,170.493279 C149.979368,170.127881 149.68054,169.831326 149.31234,169.831326 C148.943696,169.831326 148.645312,170.127881 148.645312,170.493279 C148.645312,172.077113 147.066234,172.483111 146.12528,172.584169 C145.612557,172.638449 144.346538,172.600938 143.901852,172.580639 C143.529206,172.563869 143.221928,172.847626 143.20592,173.213024 C143.189466,173.578423 143.47451,173.887334 143.842709,173.903221" id="Fill-132" fill="#37383A"></path>
                    <path d="M149.312251,167.425435 C149.408303,167.425435 149.486568,167.502663 149.486568,167.597985 C149.486568,167.692864 149.408303,167.770092 149.312251,167.770092 C149.216644,167.770092 149.138824,167.692864 149.138824,167.597985 C149.138824,167.502663 149.216644,167.425435 149.312251,167.425435 M149.312251,169.093999 C150.143813,169.093999 150.820624,168.422778 150.820624,167.597985 C150.820624,166.77275 150.143813,166.101529 149.312251,166.101529 C148.481134,166.101529 147.804768,166.77275 147.804768,167.597985 C147.804768,168.422778 148.481134,169.093999 149.312251,169.093999" id="Fill-134" fill="#37383A"></path>
                    <path d="M149.312251,165.529248 C149.680451,165.529248 149.979279,165.232693 149.979279,164.867295 L149.979279,162.984259 C149.979279,162.618861 149.680451,162.322306 149.312251,162.322306 C148.943607,162.322306 148.645223,162.618861 148.645223,162.984259 L148.645223,164.867295 C148.645223,165.232693 148.943607,165.529248 149.312251,165.529248" id="Fill-136" fill="#37383A"></path>
                    <path d="M145.488134,171.948782 C145.856779,171.948782 146.155163,171.652227 146.155163,171.286829 L146.155163,170.34509 C146.155163,169.979692 145.856779,169.683137 145.488134,169.683137 C145.11949,169.683137 144.821106,169.979692 144.821106,170.34509 L144.821106,171.286829 C144.821106,171.652227 145.11949,171.948782 145.488134,171.948782" id="Fill-138" fill="#37383A"></path>
                    <path d="M153.137257,171.948782 C153.505457,171.948782 153.804286,171.652227 153.804286,171.286829 L153.804286,170.34509 C153.804286,169.979692 153.505457,169.683137 153.137257,169.683137 C152.769058,169.683137 152.470229,169.979692 152.470229,170.34509 L152.470229,171.286829 C152.470229,171.652227 152.769058,171.948782 153.137257,171.948782" id="Fill-140" fill="#37383A"></path>
                    <path d="M141.068628,137.972005 C141.437272,137.972005 141.735656,137.67545 141.735656,137.310052 C141.735656,136.944654 141.437272,136.648099 141.068628,136.648099 C139.491329,136.648099 139.411286,134.964531 139.411286,134.626935 L139.411286,133.448658 C139.411286,133.085908 139.116904,132.790677 138.751372,132.786705 L135.882707,132.756697 C135.695939,132.758903 135.533184,132.823333 135.406448,132.94778 C135.279713,133.072228 135.208563,133.241688 135.208563,133.41865 L135.208563,134.596926 C135.208563,134.934081 135.12852,136.61809 133.551221,136.61809 C133.182577,136.61809 132.884193,136.914645 132.884193,137.280043 C132.884193,137.645442 133.182577,137.941997 133.551221,137.941997 C135.917392,137.941997 136.54262,135.754021 136.54262,134.596926 L136.54262,134.087222 L138.077229,134.103551 L138.077229,134.626935 C138.077229,135.784029 138.702457,137.972005 141.068628,137.972005" id="Fill-142" fill="#37383A"></path>
                    <path d="M157.489883,137.94182 C159.856054,137.94182 160.481727,135.753844 160.481727,134.59675 L160.481727,134.087487 L162.016336,134.103815 L162.016336,134.626758 C162.016336,135.783853 162.641564,137.971829 165.007735,137.971829 C165.375935,137.971829 165.674763,137.675274 165.674763,137.309875 C165.674763,136.944477 165.375935,136.647922 165.007735,136.647922 C163.429991,136.647922 163.350392,134.964355 163.350392,134.626758 L163.350392,133.448482 C163.350392,133.085731 163.056011,132.7905 162.690034,132.786529 L159.821369,132.75652 C159.64972,132.759168 159.471846,132.823157 159.345555,132.948045 C159.21882,133.072492 159.14767,133.241952 159.14767,133.418473 L159.14767,134.59675 C159.14767,134.934346 159.067627,136.617914 157.489883,136.617914 C157.121683,136.617914 156.822855,136.914469 156.822855,137.279867 C156.822855,137.645265 157.121683,137.94182 157.489883,137.94182" id="Fill-144" fill="#37383A"></path>
                    <path d="M92.6224622,142.23847 C92.2551521,142.266272 91.9803365,142.584892 92.0087963,142.948966 C92.1035143,144.176669 92.007907,146.38671 91.3479938,147.094117 C91.2292628,147.221212 91.1127552,147.275492 90.9584493,147.275492 L90.6769635,147.275492 C90.5226576,147.275492 90.40615,147.221212 90.287419,147.094117 C89.6275058,146.38671 89.5318985,144.176669 89.6270611,142.948966 C89.6550763,142.584892 89.3802607,142.266272 89.0129506,142.23847 C88.6487532,142.21155 88.3254669,142.482951 88.2965623,142.847025 C88.2667684,143.230517 88.0399788,146.632956 89.307777,147.99305 C89.6777553,148.389339 90.1513453,148.599399 90.6769635,148.599399 L90.9584493,148.599399 C91.4840675,148.599399 91.9572128,148.389339 92.3271911,147.99305 C93.595434,146.632956 93.3686444,143.230517 93.3388505,142.847025 C93.3099459,142.482951 92.9866596,142.20802 92.6224622,142.23847" id="Fill-146" fill="#37383A"></path>
                    <path d="M92.2520393,149.019209 L89.3833735,149.019209 C89.015174,149.019209 88.7163454,149.315764 88.7163454,149.681163 C88.7163454,150.046561 89.015174,150.343116 89.3833735,150.343116 L92.2520393,150.343116 C92.6206835,150.343116 92.9190674,150.046561 92.9190674,149.681163 C92.9190674,149.315764 92.6206835,149.019209 92.2520393,149.019209" id="Fill-148" fill="#37383A"></path>
                    <path d="M91.7079222,150.688302 L89.9274017,150.688302 C89.5587575,150.688302 89.2603735,150.984857 89.2603735,151.350255 C89.2603735,151.715654 89.5587575,152.012209 89.9274017,152.012209 L91.7079222,152.012209 C92.0765664,152.012209 92.3749503,151.715654 92.3749503,151.350255 C92.3749503,150.984857 92.0765664,150.688302 91.7079222,150.688302" id="Fill-150" fill="#37383A"></path>
                    <path d="M91.1472628,152.32465 L90.488239,152.32465 C90.1195947,152.32465 89.8212108,152.621206 89.8212108,152.986604 C89.8212108,153.352002 90.1195947,153.648557 90.488239,153.648557 L91.1472628,153.648557 C91.515907,153.648557 91.8142909,153.352002 91.8142909,152.986604 C91.8142909,152.621206 91.515907,152.32465 91.1472628,152.32465" id="Fill-152" fill="#37383A"></path>
                    <path d="M66.7382124,148.599443 L67.0192536,148.599443 C67.5448718,148.599443 68.0184618,148.389383 68.38844,147.993094 C69.6562382,146.633001 69.4298933,143.230561 69.3996547,142.84707 C69.3711948,142.482995 69.0461298,142.208064 68.6837112,142.238514 C68.316401,142.266316 68.0415854,142.584936 68.0696006,142.94901 C68.1647633,144.176713 68.0691559,146.386754 67.4092427,147.094161 C67.2905117,147.221256 67.1735594,147.275536 67.0192536,147.275536 L66.7382124,147.275536 C66.5839065,147.275536 66.4673989,147.221256 66.3486679,147.094161 C65.6883101,146.386754 65.5931474,144.176713 65.6878654,142.94901 C65.7163252,142.584936 65.441065,142.266316 65.0741995,142.238514 C64.708668,142.211595 64.3862711,142.482995 64.3578112,142.84707 C64.3280173,143.230561 64.1012277,146.633001 65.3690259,147.993094 C65.7390042,148.389383 66.2125942,148.599443 66.7382124,148.599443" id="Fill-154" fill="#37383A"></path>
                    <path d="M68.3130659,149.019209 L65.4444001,149.019209 C65.0762006,149.019209 64.7773719,149.315764 64.7773719,149.681163 C64.7773719,150.046561 65.0762006,150.343116 65.4444001,150.343116 L68.3130659,150.343116 C68.6817101,150.343116 68.980094,150.046561 68.980094,149.681163 C68.980094,149.315764 68.6817101,149.019209 68.3130659,149.019209" id="Fill-156" fill="#37383A"></path>
                    <path d="M67.7689488,150.688302 L65.9884283,150.688302 C65.619784,150.688302 65.3214001,150.984857 65.3214001,151.350255 C65.3214001,151.715654 65.619784,152.012209 65.9884283,152.012209 L67.7689488,152.012209 C68.137593,152.012209 68.4359769,151.715654 68.4359769,151.350255 C68.4359769,150.984857 68.137593,150.688302 67.7689488,150.688302" id="Fill-158" fill="#37383A"></path>
                    <path d="M67.2082894,152.32465 L66.5492655,152.32465 C66.1806213,152.32465 65.8822374,152.621206 65.8822374,152.986604 C65.8822374,153.352002 66.1806213,153.648557 66.5492655,153.648557 L67.2082894,153.648557 C67.5769336,153.648557 67.8753175,153.352002 67.8753175,152.986604 C67.8753175,152.621206 67.5769336,152.32465 67.2082894,152.32465" id="Fill-160" fill="#37383A"></path>
                    <path d="M73.3448594,173.903221 C73.3902174,173.905427 74.0981566,173.935877 74.7856402,173.935877 C75.1556185,173.935877 75.5193712,173.927493 75.7706185,173.900132 C77.1451412,173.752737 78.1888179,173.244798 78.814935,172.4659 C79.4406074,173.244798 80.4842841,173.752737 81.8592515,173.900132 C82.1104988,173.927493 82.4738068,173.935877 82.843785,173.935877 C83.5312687,173.935877 84.2396526,173.905427 84.2850105,173.903221 C84.6527654,173.887334 84.9378088,173.578423 84.9218001,173.213024 C84.9053467,172.847626 84.6002925,172.562986 84.2258674,172.580639 C83.7816266,172.60138 82.5156072,172.63889 82.0024402,172.584169 C81.0610411,172.483111 79.4819631,172.077113 79.4819631,170.493279 C79.4819631,170.127881 79.1831345,169.831326 78.814935,169.831326 C78.4462908,169.831326 78.1479068,170.127881 78.1479068,170.493279 C78.1479068,172.077113 76.5688288,172.483111 75.6269851,172.584169 C75.1147075,172.638449 73.8482433,172.600938 73.4040026,172.580639 C73.0309115,172.563869 72.7240786,172.847626 72.7080699,173.213024 C72.6916165,173.578423 72.9766599,173.887334 73.3448594,173.903221" id="Fill-162" fill="#37383A"></path>
                    <path d="M78.814846,167.425435 C78.9104534,167.425435 78.9887181,167.502663 78.9887181,167.597985 C78.9887181,167.692864 78.9104534,167.770092 78.814846,167.770092 C78.7192387,167.770092 78.640974,167.692864 78.640974,167.597985 C78.640974,167.502663 78.7192387,167.425435 78.814846,167.425435 M78.814846,169.093999 C79.6464078,169.093999 80.3227744,168.422778 80.3227744,167.597985 C80.3227744,166.77275 79.6464078,166.101529 78.814846,166.101529 C77.9832843,166.101529 77.3069177,166.77275 77.3069177,167.597985 C77.3069177,168.422778 77.9832843,169.093999 78.814846,169.093999" id="Fill-164" fill="#37383A"></path>
                    <path d="M78.814846,165.529248 C79.1834903,165.529248 79.4818742,165.232693 79.4818742,164.867295 L79.4818742,162.984259 C79.4818742,162.618861 79.1834903,162.322306 78.814846,162.322306 C78.4462018,162.322306 78.1478179,162.618861 78.1478179,162.984259 L78.1478179,164.867295 C78.1478179,165.232693 78.4462018,165.529248 78.814846,165.529248" id="Fill-166" fill="#37383A"></path>
                    <path d="M82.6394076,171.948782 C83.0080518,171.948782 83.3064358,171.652227 83.3064358,171.286829 L83.3064358,170.34509 C83.3064358,169.979692 83.0080518,169.683137 82.6394076,169.683137 C82.2707634,169.683137 81.9723795,169.979692 81.9723795,170.34509 L81.9723795,171.286829 C81.9723795,171.652227 82.2707634,171.948782 82.6394076,171.948782" id="Fill-168" fill="#37383A"></path>
                    <path d="M74.9902845,171.948782 C75.3589287,171.948782 75.6573126,171.652227 75.6573126,171.286829 L75.6573126,170.34509 C75.6573126,169.979692 75.3589287,169.683137 74.9902845,169.683137 C74.6216403,169.683137 74.3232563,169.979692 74.3232563,170.34509 L74.3232563,171.286829 C74.3232563,171.652227 74.6216403,171.948782 74.9902845,171.948782" id="Fill-170" fill="#37383A"></path>
                    <path d="M87.0586915,137.972005 C89.4253074,137.972005 90.0505351,135.784029 90.0505351,134.626935 L90.0505351,134.103551 L91.5851445,134.087222 L91.5851445,134.596926 C91.5851445,135.754021 92.2103723,137.941997 94.5765435,137.941997 C94.9451877,137.941997 95.2435716,137.645442 95.2435716,137.280043 C95.2435716,136.914645 94.9451877,136.61809 94.5765435,136.61809 C92.9987995,136.61809 92.9192008,134.934081 92.9192008,134.596926 L92.9192008,133.41865 C92.9192008,133.241688 92.8480512,133.072228 92.7213158,132.94778 C92.5945805,132.823333 92.4118148,132.756697 92.2450577,132.756697 L89.376392,132.786705 C89.0108605,132.790677 88.7164788,133.085908 88.7164788,133.448658 L88.7164788,134.626935 C88.7164788,134.964531 88.6364354,136.648099 87.0586915,136.648099 C86.6900472,136.648099 86.3916633,136.944654 86.3916633,137.310052 C86.3916633,137.67545 86.6900472,137.972005 87.0586915,137.972005" id="Fill-172" fill="#37383A"></path>
                    <path d="M62.4526899,137.310052 C62.4526899,137.67545 62.7510738,137.972005 63.119718,137.972005 C65.4863339,137.972005 66.1115617,135.784029 66.1115617,134.626935 L66.1115617,134.103551 L67.6461711,134.087222 L67.6461711,134.596926 C67.6461711,135.754021 68.2713988,137.941997 70.63757,137.941997 C71.0062143,137.941997 71.3045982,137.645442 71.3045982,137.280043 C71.3045982,136.914645 71.0062143,136.61809 70.63757,136.61809 C69.0598261,136.61809 68.9802274,134.934081 68.9802274,134.596926 L68.9802274,133.41865 C68.9802274,133.241688 68.9090777,133.072228 68.7823424,132.94778 C68.655607,132.823333 68.4884053,132.756697 68.3060843,132.756697 L65.4374185,132.786705 C65.0718871,132.790677 64.7775054,133.085908 64.7775054,133.448658 L64.7775054,134.626935 C64.7775054,134.964531 64.697462,136.648099 63.119718,136.648099 C62.7510738,136.648099 62.4526899,136.944654 62.4526899,137.310052" id="Fill-174" fill="#37383A"></path>
                    <path d="M110.938611,136.70282 C112.040541,135.210778 113.499554,135.093833 113.667645,135.085007 C113.878871,135.073533 114.326224,135.07927 114.538339,135.096039 C114.804261,135.115898 116.144543,135.286682 117.189109,136.70282 L117.189109,144.973263 L116.022699,144.973263 C115.742547,144.242908 115.033274,143.792339 114.495649,143.686868 C114.263079,143.641413 113.871311,143.64009 113.637851,143.684661 C113.098003,143.789691 112.385172,144.239819 112.104576,144.973263 L110.938611,144.973263 L110.938611,136.70282 Z M104.765487,149.263602 C105.300889,149.263602 105.782483,149.063251 106.158242,148.684173 C106.799034,148.037665 107.012038,146.988249 107.081409,146.29717 L112.65065,146.29717 C113.019294,146.29717 113.317678,146.000615 113.317678,145.635216 C113.317678,145.256579 113.729901,145.015628 113.890433,144.984737 C113.960248,144.971939 114.168806,144.973705 114.237287,144.986061 C114.400042,145.017835 114.810042,145.258344 114.810042,145.635216 C114.810042,146.000615 115.108426,146.29717 115.47707,146.29717 L121.045866,146.29717 C121.115682,146.988249 121.328241,148.037665 121.969033,148.684173 C122.344792,149.063251 122.826386,149.263602 123.362232,149.263602 C123.730877,149.263602 124.029261,148.967047 124.029261,148.601649 C124.029261,148.236251 123.730877,147.939696 123.362232,147.939696 C123.183024,147.939696 123.04695,147.883209 122.921104,147.756997 C122.436397,147.268917 122.342124,146.038125 122.34746,145.646249 C122.350573,145.468846 122.281647,145.29762 122.156245,145.170967 C122.030844,145.044313 121.85964,144.973263 121.680432,144.973263 L118.523165,144.973263 L118.523165,136.494084 C118.523165,136.362576 118.483588,136.234157 118.409771,136.125156 C117.323404,134.520581 115.749662,133.859511 114.639728,133.775663 C114.372916,133.755363 113.867309,133.750509 113.599164,133.762865 C113.204283,133.783165 111.161398,133.99146 109.717949,136.125156 C109.644131,136.234157 109.604554,136.362576 109.604554,136.494084 L109.604554,144.973263 L106.446843,144.973263 C106.268524,144.973263 106.097765,145.044754 105.972364,145.170525 C105.846962,145.297179 105.777592,145.467963 105.779815,145.645366 C105.787819,146.230533 105.639294,147.321432 105.206171,147.756997 C105.080769,147.883209 104.944696,147.939696 104.765487,147.939696 C104.396843,147.939696 104.098459,148.236251 104.098459,148.601649 C104.098459,148.967047 104.396843,149.263602 104.765487,149.263602 L104.765487,149.263602 Z" id="Fill-176" fill="#37383A"></path>
                    <path d="M114.063771,132.738868 C114.432415,132.738868 114.730799,132.442313 114.730799,132.076915 L114.730799,128.346147 C114.730799,127.980749 114.432415,127.684193 114.063771,127.684193 C113.695127,127.684193 113.396743,127.980749 113.396743,128.346147 L113.396743,132.076915 C113.396743,132.442313 113.695127,132.738868 114.063771,132.738868" id="Fill-178" fill="#37383A"></path>
                    <path d="M106.447021,144.158399 C106.815665,144.158399 107.114049,143.861844 107.114049,143.496446 L107.114049,135.2997 C107.114049,134.934302 106.815665,134.637747 106.447021,134.637747 C106.078377,134.637747 105.779993,134.934302 105.779993,135.2997 L105.779993,143.496446 C105.779993,143.861844 106.078377,144.158399 106.447021,144.158399" id="Fill-182" fill="#37383A"></path>
                    <path d="M106.447021,133.785637 C106.815665,133.785637 107.114049,133.489082 107.114049,133.123683 L107.114049,131.290956 C107.114049,130.925558 106.815665,130.629003 106.447021,130.629003 C106.078377,130.629003 105.779993,130.925558 105.779993,131.290956 L105.779993,133.123683 C105.779993,133.489082 106.078377,133.785637 106.447021,133.785637" id="Fill-184" fill="#37383A"></path>
                    <path d="M121.680521,144.158399 C122.049165,144.158399 122.347549,143.861844 122.347549,143.496446 L122.347549,135.2997 C122.347549,134.934302 122.049165,134.637747 121.680521,134.637747 C121.311877,134.637747 121.013493,134.934302 121.013493,135.2997 L121.013493,143.496446 C121.013493,143.861844 121.311877,144.158399 121.680521,144.158399" id="Fill-186" fill="#37383A"></path>
                    <path d="M121.680521,133.785637 C122.049165,133.785637 122.347549,133.489082 122.347549,133.123683 L122.347549,131.290956 C122.347549,130.925558 122.049165,130.629003 121.680521,130.629003 C121.311877,130.629003 121.013493,130.925558 121.013493,131.290956 L121.013493,133.123683 C121.013493,133.489082 121.311877,133.785637 121.680521,133.785637" id="Fill-188" fill="#37383A"></path>
                    <path d="M281.151922,180.165475 C281.151922,179.800076 280.853094,179.503521 280.484894,179.503521 L228.975646,179.503521 C228.607446,179.503521 228.308618,179.800076 228.308618,180.165475 C228.308618,180.530873 228.607446,180.827428 228.975646,180.827428 L280.484894,180.827428 C280.853094,180.827428 281.151922,180.530873 281.151922,180.165475" id="Fill-190" fill="#37383A"></path>
                    <path d="M267.061397,169.628945 L263.059228,169.628945 L246.401757,169.628945 L242.399588,169.628945 L237.749067,169.628945 C240.68577,163.008531 247.390292,158.625077 254.730715,158.625077 C262.070693,158.625077 268.775215,163.008531 271.711918,169.628945 L267.061397,169.628945 Z M274.64862,170.952852 L274.64862,177.443964 L267.728425,177.443964 L267.728425,170.952852 L272.7049,170.952852 L274.64862,170.952852 Z M263.726256,177.443964 L266.394369,177.443964 L266.394369,170.952852 L263.726256,170.952852 L263.726256,177.443964 Z M247.068785,177.443964 L262.3922,177.443964 L262.3922,170.952852 L247.068785,170.952852 L247.068785,177.443964 Z M243.066616,177.443964 L245.734728,177.443964 L245.734728,170.952852 L243.066616,170.952852 L243.066616,177.443964 Z M241.732559,177.443964 L234.812365,177.443964 L234.812365,170.952852 L236.756085,170.952852 L241.732559,170.952852 L241.732559,177.443964 Z M275.982676,177.443964 L278.650789,177.443964 L278.650789,170.952852 L275.982676,170.952852 L275.982676,177.443964 Z M230.810196,177.443964 L233.478308,177.443964 L233.478308,170.952852 L230.810196,170.952852 L230.810196,177.443964 Z M254.730715,157.30117 C246.667678,157.30117 239.324143,162.237135 236.304729,169.628945 L234.145337,169.628945 L232.81128,169.628945 L232.81128,167.201783 C232.81128,166.836385 232.512452,166.53983 232.144252,166.53983 C231.775608,166.53983 231.477224,166.836385 231.477224,167.201783 L231.477224,169.628945 L230.143168,169.628945 L228.975868,169.628945 C228.607224,169.628945 228.30884,169.9255 228.30884,170.290898 C228.30884,170.656296 228.607224,170.952852 228.975868,170.952852 L229.476139,170.952852 L229.476139,177.443964 L228.975868,177.443964 C228.607224,177.443964 228.30884,177.740519 228.30884,178.105918 C228.30884,178.471316 228.607224,178.767871 228.975868,178.767871 L230.143168,178.767871 L234.145337,178.767871 L242.399588,178.767871 L246.401757,178.767871 L263.059228,178.767871 L267.061397,178.767871 L275.315648,178.767871 L279.317817,178.767871 L280.485116,178.767871 C280.853316,178.767871 281.152145,178.471316 281.152145,178.105918 C281.152145,177.740519 280.853316,177.443964 280.485116,177.443964 L279.984845,177.443964 L279.984845,170.952852 L280.485116,170.952852 C280.853316,170.952852 281.152145,170.656296 281.152145,170.290898 C281.152145,169.9255 280.853316,169.628945 280.485116,169.628945 L279.317817,169.628945 L277.983761,169.628945 L277.983761,167.201783 C277.983761,166.836385 277.684932,166.53983 277.316733,166.53983 C276.948089,166.53983 276.649705,166.836385 276.649705,167.201783 L276.649705,169.628945 L275.315648,169.628945 L273.156256,169.628945 C270.136842,162.237135 262.793306,157.30117 254.730715,157.30117 L254.730715,157.30117 Z" id="Fill-192" fill="#37383A"></path>
                    <path d="M261.975308,181.378614 C261.607108,181.378614 261.308279,181.675169 261.308279,182.040567 C261.308279,182.405965 261.607108,182.702521 261.975308,182.702521 L264.143149,182.702521 C264.511349,182.702521 264.810177,182.405965 264.810177,182.040567 C264.810177,181.675169 264.511349,181.378614 264.143149,181.378614 L261.975308,181.378614 Z" id="Fill-194" fill="#37383A"></path>
                    <path d="M265.977476,181.378614 C265.609277,181.378614 265.310448,181.675169 265.310448,182.040567 C265.310448,182.405965 265.609277,182.702521 265.977476,182.702521 L268.145318,182.702521 C268.513518,182.702521 268.812346,182.405965 268.812346,182.040567 C268.812346,181.675169 268.513518,181.378614 268.145318,181.378614 L265.977476,181.378614 Z" id="Fill-196" fill="#37383A"></path>
                    <path d="M245.317836,181.378614 C244.949636,181.378614 244.650808,181.675169 244.650808,182.040567 C244.650808,182.405965 244.949636,182.702521 245.317836,182.702521 L247.485677,182.702521 C247.853877,182.702521 248.152705,182.405965 248.152705,182.040567 C248.152705,181.675169 247.853877,181.378614 247.485677,181.378614 L245.317836,181.378614 Z" id="Fill-198" fill="#37383A"></path>
                    <path d="M241.315667,181.378614 C240.947467,181.378614 240.648639,181.675169 240.648639,182.040567 C240.648639,182.405965 240.947467,182.702521 241.315667,182.702521 L243.483508,182.702521 C243.851708,182.702521 244.150537,182.405965 244.150537,182.040567 C244.150537,181.675169 243.851708,181.378614 243.483508,181.378614 L241.315667,181.378614 Z" id="Fill-200" fill="#37383A"></path>
                    <path d="M229.976188,181.378614 C229.607989,181.378614 229.30916,181.675169 229.30916,182.040567 C229.30916,182.405965 229.607989,182.702521 229.976188,182.702521 L232.14403,182.702521 C232.512229,182.702521 232.811058,182.405965 232.811058,182.040567 C232.811058,181.675169 232.512229,181.378614 232.14403,181.378614 L229.976188,181.378614 Z" id="Fill-202" fill="#37383A"></path>
                    <path d="M277.31651,181.378614 C276.948311,181.378614 276.649482,181.675169 276.649482,182.040567 C276.649482,182.405965 276.948311,182.702521 277.31651,182.702521 L279.484352,182.702521 C279.852551,182.702521 280.15138,182.405965 280.15138,182.040567 C280.15138,181.675169 279.852551,181.378614 279.484352,181.378614 L277.31651,181.378614 Z" id="Fill-204" fill="#37383A"></path>
                    <path d="M231.477002,164.12732 L231.477002,164.995361 C231.477002,165.360759 231.77583,165.657314 232.14403,165.657314 C232.512229,165.657314 232.811058,165.360759 232.811058,164.995361 L232.811058,164.12732 C232.811058,163.761922 232.512229,163.465367 232.14403,163.465367 C231.77583,163.465367 231.477002,163.761922 231.477002,164.12732" id="Fill-212" fill="#37383A"></path>
                    <path d="M277.31651,165.657226 C277.68471,165.657226 277.983539,165.360671 277.983539,164.995273 L277.983539,164.127232 C277.983539,163.761833 277.68471,163.465278 277.31651,163.465278 C276.948311,163.465278 276.649482,163.761833 276.649482,164.127232 L276.649482,164.995273 C276.649482,165.360671 276.948311,165.657226 277.31651,165.657226" id="Fill-214" fill="#37383A"></path>
                    <path d="M188.593539,204.165999 L190.826305,209.065336 L186.361663,209.065336 L188.593539,204.165999 Z M195.063268,204.165999 L197.295589,209.065336 L192.831391,209.065336 L195.063268,204.165999 Z M201.532996,204.165999 L203.765317,209.065336 L199.30112,209.065336 L201.532996,204.165999 Z M208.00228,204.166441 L210.234156,209.065336 L205.770848,209.065336 L208.00228,204.166441 Z M214.472008,204.165999 L216.703884,209.065336 L212.239687,209.065336 L214.472008,204.165999 Z M220.941737,204.165999 L223.173613,209.065336 L218.709416,209.065336 L220.941737,204.165999 Z" id="Fill-216" stroke="#37383A" fill="#37383A"></path>
                    <path d="M189.909764,193.729469 L219.625423,193.729469 L220.065217,197.786359 L189.46997,197.786359 L189.909764,193.729469 Z M191.416358,179.828893 L218.118829,179.828893 L218.728937,185.455054 L190.806694,185.455054 L191.416358,179.828893 Z M192.922952,165.928318 L216.61179,165.928318 L217.221898,171.554479 L192.313288,171.554479 L192.922952,165.928318 Z M194.429991,152.027742 L215.104751,152.027742 L215.71486,157.653903 L193.820327,157.653903 L194.429991,152.027742 Z M195.93703,138.127167 L213.598602,138.127167 L214.208265,143.753328 L195.326922,143.753328 L195.93703,138.127167 Z M197.44318,124.226591 L212.091563,124.226591 L212.701226,129.852752 L196.833516,129.852752 L197.44318,124.226591 Z M197.348462,84.7662383 L200.379438,84.7662383 L197.348462,112.728023 L197.348462,84.7662383 Z M209.077485,96.424999 L209.687593,102.051601 L199.847149,102.051601 L200.457258,96.424999 L209.077485,96.424999 Z M204.767149,56.6627952 L208.180554,88.1510255 L201.353743,88.1510255 L204.767149,56.6627952 Z M210.584524,110.325575 L211.194187,115.952177 L198.340555,115.952177 L198.950219,110.325575 L210.584524,110.325575 Z M212.227636,84.7662383 L212.227636,113.108426 L209.155305,84.7662383 L212.227636,84.7662383 Z" id="Fill-218" fill="#CBEDE0"></path>
                    <path d="M189.909764,193.729469 L219.625423,193.729469 L220.065217,197.786359 L189.46997,197.786359 L189.909764,193.729469 Z M190.663061,186.778961 L218.872126,186.778961 L219.482235,192.405563 L190.052952,192.405563 L190.663061,186.778961 Z M191.416358,179.828893 L218.118829,179.828893 L218.728937,185.455054 L190.806694,185.455054 L191.416358,179.828893 Z M192.169655,172.878385 L217.365087,172.878385 L217.975196,178.504987 L191.559991,178.504987 L192.169655,172.878385 Z M192.922952,165.928318 L216.61179,165.928318 L217.221898,171.554479 L192.313288,171.554479 L192.922952,165.928318 Z M193.676694,158.97781 L215.858493,158.97781 L216.468601,164.604412 L193.06703,164.604412 L193.676694,158.97781 Z M194.429991,152.027742 L215.104751,152.027742 L215.71486,157.653903 L193.820327,157.653903 L194.429991,152.027742 Z M195.183288,145.077234 L214.351454,145.077234 L214.961562,150.703836 L194.57318,150.703836 L195.183288,145.077234 Z M195.93703,138.127167 L213.598602,138.127167 L214.208265,143.753328 L195.326922,143.753328 L195.93703,138.127167 Z M196.690327,131.176658 L212.844415,131.176658 L213.454523,136.803261 L196.080219,136.803261 L196.690327,131.176658 Z M197.44318,124.226591 L212.091563,124.226591 L212.701226,129.852752 L196.833516,129.852752 L197.44318,124.226591 Z M197.348462,84.7662383 L200.379438,84.7662383 L197.348462,112.728023 L197.348462,84.7662383 Z M209.077485,96.424999 L209.687593,102.051601 L199.847149,102.051601 L200.457258,96.424999 L209.077485,96.424999 Z M201.210555,89.4749319 L208.324188,89.4749319 L208.933851,95.1010926 L200.600446,95.1010926 L201.210555,89.4749319 Z M204.767149,56.6627952 L208.180554,88.1510255 L201.353743,88.1510255 L204.767149,56.6627952 Z M211.338265,117.276083 L211.947929,122.902685 L197.587258,122.902685 L198.196921,117.276083 L211.338265,117.276083 Z M199.093852,109.001668 L199.703516,103.375507 L209.831227,103.375507 L210.44089,109.001668 L199.093852,109.001668 Z M210.584524,110.325575 L211.194187,115.952177 L198.340555,115.952177 L198.950219,110.325575 L210.584524,110.325575 Z M212.227636,84.7662383 L212.227636,113.108426 L209.155305,84.7662383 L212.227636,84.7662383 Z M188.727345,199.110266 L220.807842,199.110266 C220.811399,199.110707 220.814957,199.110707 220.816736,199.110266 C221.18538,199.110266 221.483764,198.813711 221.483764,198.448313 C221.483764,198.386972 221.475315,198.327396 221.459751,198.270909 L213.560803,125.403544 C213.560803,125.399572 213.561693,125.395601 213.561693,125.39207 L213.561693,84.1042851 C213.561693,83.7388869 213.263309,83.4423319 212.894664,83.4423319 L209.012116,83.4423319 L205.430175,50.4029247 C205.393711,50.0670937 205.108222,49.8120211 204.767149,49.8120211 C204.42652,49.8120211 204.140587,50.0670937 204.104123,50.4029247 L200.522626,83.4423319 L196.681433,83.4423319 C196.312789,83.4423319 196.014405,83.7388869 196.014405,84.1042851 L196.014405,125.035498 L188.064319,198.377704 C188.043864,198.564375 188.104341,198.751046 188.231076,198.890497 C188.357811,199.030831 188.537909,199.110266 188.727345,199.110266 L188.727345,199.110266 Z" id="Fill-84" fill="#37383A"></path>
                    <path d="M9.95828566,205.757114 C9.05735296,205.757114 8.32451136,205.029848 8.32451136,204.13577 C8.32451136,203.516182 8.67892566,202.9597 9.24945707,202.683886 C9.4286653,202.597391 9.55940282,202.435874 9.60609479,202.243025 C9.65234208,202.050618 9.60965227,201.847619 9.48958721,201.689633 C9.10582368,201.186548 8.9034918,200.589908 8.9034918,199.965024 C8.9034918,198.383397 10.2001945,197.09656 11.7939471,197.09656 C13.3876997,197.09656 14.6844025,198.383397 14.6844025,199.965024 C14.6844025,200.264668 14.6363764,200.562547 14.5421031,200.851159 C14.4545001,201.118146 14.5461053,201.41073 14.7711161,201.581514 C15.3581009,202.027229 15.6947278,202.700656 15.6947278,203.429246 C15.6947278,204.712993 14.642602,205.757114 13.3494568,205.757114 L9.95828566,205.757114 Z" id="Fill-224" fill="#00A669"></path>
                    <path d="M44.8608896,206.55137 L44.3223755,206.547839 C43.6353365,206.547839 43.0763669,205.993123 43.0763669,205.311311 C43.0763669,204.633029 43.6326684,204.078754 44.3165946,204.076106 C44.5349351,204.075224 44.7390458,203.967987 44.8626683,203.789701 C44.9867356,203.611415 45.0147507,203.383703 44.9378202,203.181145 C44.8844579,203.04037 44.8577768,202.895623 44.8577768,202.750876 C44.8577768,202.069064 45.4167464,201.514347 46.1037854,201.514347 C46.6849892,201.514347 47.1825922,201.906665 47.3151085,202.468001 C47.3622452,202.668352 47.5000976,202.835606 47.6886443,202.920336 C48.346334,203.21645 48.7776789,203.842216 48.8132537,204.554478 C48.8386008,205.060651 48.6642841,205.546966 48.3214316,205.922514 C47.9785792,206.298945 47.5085467,206.520037 46.9980478,206.545192 C46.5853797,206.565491 45.5408136,206.557107 44.8608896,206.55137" id="Fill-226" fill="#FDCF83"></path>
                    <path d="M177.405609,206.616021 C176.851087,206.616021 176.400176,206.168099 176.400176,205.618236 C176.400176,205.237393 176.618071,204.895384 176.969818,204.725482 C177.149026,204.638987 177.279763,204.477029 177.326455,204.284621 C177.373147,204.092214 177.330013,203.889215 177.210393,203.731229 C176.955143,203.396722 176.820848,203.000874 176.820848,202.586491 C176.820848,201.536192 177.681314,200.682272 178.739666,200.682272 C179.797572,200.682272 180.658039,201.536192 180.658039,202.586491 C180.658039,202.785518 180.626466,202.983663 180.56421,203.174747 C180.476607,203.441734 180.568212,203.734318 180.792778,203.90466 C181.174763,204.194596 181.393548,204.631926 181.393548,205.104119 C181.393548,205.937739 180.710067,206.616021 179.870056,206.616021 L177.405609,206.616021 Z" id="Fill-228" fill="#5AC69C"></path>
                    <path d="M286.374797,204.942162 C284.962921,204.942162 283.814298,203.802278 283.814298,202.401144 C283.814298,201.549431 284.241641,200.758617 284.957585,200.284659 C285.171923,200.143884 285.284873,199.893224 285.248854,199.640799 C285.223951,199.470015 285.212834,199.32924 285.212834,199.198173 C285.212834,197.47886 286.622487,196.079932 288.354537,196.079932 C290.087031,196.079932 291.496684,197.47886 291.496684,199.198173 C291.496684,199.670808 291.388626,200.129321 291.176511,200.560914 C291.083127,200.751115 291.086684,200.973973 291.185849,201.161085 C291.285458,201.347314 291.469114,201.476175 291.679894,201.506625 C292.528354,201.628865 293.168257,202.362751 293.168257,203.214022 C293.168257,204.166794 292.387389,204.942162 291.426868,204.942162 L286.374797,204.942162 Z" id="Fill-230" fill="#00A669"></path>
                </g>
            </g>
        </g>
    </g>
</svg>